<svg xmlns="http://www.w3.org/2000/svg" xmlns:xlink="http://www.w3.org/1999/xlink" xmlns:lucid="lucid" width="1600" height="1055"><g transform="translate(-100 -46.99999999994924)" lucid:page-tab-id="HWEp-vi-RSFO"><path d="M0 0h1760v1360H0z" fill="#fff"/><path d="M453.15 75c0-4.42 3.58-8 8-8h836.75c4.4 0 8 3.58 8 8v25.16c0 4.4-3.6 8-8 8H461.15c-4.42 0-8-3.6-8-8z" stroke="#000" stroke-opacity="0" stroke-width="2" fill="#fff" fill-opacity="0"/><use xlink:href="#a" transform="matrix(1,0,0,1,457.1465527853429,70.99999999994924) translate(243.92975308641977 23.657777777777778)"/><use xlink:href="#b" transform="matrix(1,0,0,1,457.1465527853429,70.99999999994924) translate(394.051975308642 23.657777777777778)"/><use xlink:href="#c" transform="matrix(1,0,0,1,457.1465527853429,70.99999999994924) translate(437.68283950617285 23.657777777777778)"/><use xlink:href="#d" transform="matrix(1,0,0,1,457.1465527853429,70.99999999994924) translate(551.0939506172839 23.657777777777778)"/><path d="M729.63 106.8H1039M729.65 106.8h-1.02M1038.96 106.8h1.03" stroke="#a9afb8" stroke-width="2" fill="none"/><path d="M120 340h360v393H120z" stroke="#333" stroke-width="2" fill="#fff"/><path d="M120 377.6h360M120 523.1h360" stroke="#333" stroke-width="2" fill="none"/><use xlink:href="#e" transform="matrix(1,0,0,1,128,348) translate(141.075 14.6)"/><use xlink:href="#f" transform="matrix(1,0,0,1,132,385.6) translate(125.6 25.39999999999999)"/><use xlink:href="#g" transform="matrix(1,0,0,1,132,385.6) translate(155.5 25.39999999999999)"/><use xlink:href="#h" transform="matrix(1,0,0,1,132,385.6) translate(116.65 46.99999999999999)"/><use xlink:href="#i" transform="matrix(1,0,0,1,132,385.6) translate(175.45000000000002 46.99999999999999)"/><use xlink:href="#j" transform="matrix(1,0,0,1,132,385.6) translate(111.075 68.6)"/><use xlink:href="#k" transform="matrix(1,0,0,1,132,385.6) translate(122.025 68.6)"/><use xlink:href="#i" transform="matrix(1,0,0,1,132,385.6) translate(181.025 68.6)"/><use xlink:href="#j" transform="matrix(1,0,0,1,132,385.6) translate(115.625 90.20000000000002)"/><use xlink:href="#l" transform="matrix(1,0,0,1,132,385.6) translate(126.575 90.20000000000002)"/><use xlink:href="#m" transform="matrix(1,0,0,1,132,385.6) translate(175.425 90.20000000000002)"/><use xlink:href="#n" transform="matrix(1,0,0,1,132,385.6) translate(58.675 111.80000000000001)"/><use xlink:href="#o" transform="matrix(1,0,0,1,132,385.6) translate(202.47500000000002 111.80000000000001)"/><use xlink:href="#p" transform="matrix(1,0,0,1,132,531.1) translate(129.325 25.500000000000007)"/><use xlink:href="#q" transform="matrix(1,0,0,1,132,531.1) translate(129.825 47.10000000000001)"/><use xlink:href="#r" transform="matrix(1,0,0,1,132,531.1) translate(88.42500000000001 68.70000000000002)"/><use xlink:href="#s" transform="matrix(1,0,0,1,132,531.1) translate(137.85 90.30000000000003)"/><use xlink:href="#t" transform="matrix(1,0,0,1,132,531.1) translate(132.325 111.90000000000002)"/><use xlink:href="#u" transform="matrix(1,0,0,1,132,531.1) translate(100.875 133.5)"/><use xlink:href="#v" transform="matrix(1,0,0,1,132,531.1) translate(67.95000000000002 155.1)"/><use xlink:href="#w" transform="matrix(1,0,0,1,132,531.1) translate(72.95000000000002 176.70000000000002)"/><path d="M120 880h360v202H120z" stroke="#333" stroke-width="2" fill="#fff"/><path d="M120 917.6h360m-360 92.8h360" stroke="#333" stroke-width="2" fill="none"/><use xlink:href="#x" transform="matrix(1,0,0,1,128,888) translate(104.57499999999999 14.6)"/><use xlink:href="#y" transform="matrix(1,0,0,1,128,888) translate(165.575 14.6)"/><use xlink:href="#f" transform="matrix(1,0,0,1,132,925.6) translate(125.6 20.5)"/><use xlink:href="#g" transform="matrix(1,0,0,1,132,925.6) translate(155.5 20.5)"/><use xlink:href="#z" transform="matrix(1,0,0,1,132,925.6) translate(94.675 42.1)"/><use xlink:href="#g" transform="matrix(1,0,0,1,132,925.6) translate(186.425 42.1)"/><use xlink:href="#A" transform="matrix(1,0,0,1,132,925.6) translate(64.675 63.7)"/><use xlink:href="#B" transform="matrix(1,0,0,1,132,925.6) translate(216.425 63.7)"/><use xlink:href="#p" transform="matrix(1,0,0,1,132,1018.4) translate(129.325 20.799999999999997)"/><use xlink:href="#C" transform="matrix(1,0,0,1,132,1018.4) translate(129.825 42.4)"/><path d="M721.98 286H1080v501H721.98z" stroke="#333" stroke-width="2" fill="#fff"/><path d="M721.98 323.6H1080M721.98 598.7H1080" stroke="#333" stroke-width="2" fill="none"/><use xlink:href="#D" transform="matrix(1,0,0,1,729.9843940449894,294) translate(109.025 14.6)"/><use xlink:href="#E" transform="matrix(1,0,0,1,729.9843940449894,294) translate(161.025 14.6)"/><use xlink:href="#F" transform="matrix(1,0,0,1,729.9843940449894,294) translate(186.025 14.6)"/><use xlink:href="#f" transform="matrix(1,0,0,1,733.9843940449894,331.6) translate(125.1 25.600000000000016)"/><use xlink:href="#g" transform="matrix(1,0,0,1,733.9843940449894,331.6) translate(155 25.600000000000016)"/><use xlink:href="#z" transform="matrix(1,0,0,1,733.9843940449894,331.6) translate(94.175 47.20000000000002)"/><use xlink:href="#g" transform="matrix(1,0,0,1,733.9843940449894,331.6) translate(185.925 47.20000000000002)"/><use xlink:href="#G" transform="matrix(1,0,0,1,733.9843940449894,331.6) translate(115.1 68.80000000000003)"/><use xlink:href="#i" transform="matrix(1,0,0,1,733.9843940449894,331.6) translate(176 68.80000000000003)"/><use xlink:href="#j" transform="matrix(1,0,0,1,733.9843940449894,331.6) translate(120.575 90.40000000000003)"/><use xlink:href="#H" transform="matrix(1,0,0,1,733.9843940449894,331.6) translate(131.525 90.40000000000003)"/><use xlink:href="#i" transform="matrix(1,0,0,1,733.9843940449894,331.6) translate(170.525 90.40000000000003)"/><use xlink:href="#j" transform="matrix(1,0,0,1,733.9843940449894,331.6) translate(104.625 112.00000000000003)"/><use xlink:href="#I" transform="matrix(1,0,0,1,733.9843940449894,331.6) translate(115.575 112.00000000000003)"/><use xlink:href="#i" transform="matrix(1,0,0,1,733.9843940449894,331.6) translate(186.47500000000002 112.00000000000003)"/><use xlink:href="#j" transform="matrix(1,0,0,1,733.9843940449894,331.6) translate(103.1 133.60000000000002)"/><use xlink:href="#J" transform="matrix(1,0,0,1,733.9843940449894,331.6) translate(114.05 133.60000000000002)"/><use xlink:href="#i" transform="matrix(1,0,0,1,733.9843940449894,331.6) translate(188 133.60000000000002)"/><use xlink:href="#j" transform="matrix(1,0,0,1,733.9843940449894,331.6) translate(96.625 155.20000000000002)"/><use xlink:href="#K" transform="matrix(1,0,0,1,733.9843940449894,331.6) translate(107.575 155.20000000000002)"/><use xlink:href="#i" transform="matrix(1,0,0,1,733.9843940449894,331.6) translate(194.47500000000002 155.20000000000002)"/><use xlink:href="#L" transform="matrix(1,0,0,1,733.9843940449894,331.6) translate(69.17500000000001 176.8)"/><use xlink:href="#M" transform="matrix(1,0,0,1,733.9843940449894,331.6) translate(185.025 176.8)"/><use xlink:href="#N" transform="matrix(1,0,0,1,733.9843940449894,331.6) translate(38.19999999999999 198.4)"/><use xlink:href="#O" transform="matrix(1,0,0,1,733.9843940449894,331.6) translate(227.89999999999998 198.4)"/><use xlink:href="#P" transform="matrix(1,0,0,1,733.9843940449894,331.6) translate(44.175 220)"/><use xlink:href="#Q" transform="matrix(1,0,0,1,733.9843940449894,331.6) translate(55.125 220)"/><use xlink:href="#R" transform="matrix(1,0,0,1,733.9843940449894,331.6) translate(221.925 220)"/><use xlink:href="#S" transform="matrix(1,0,0,1,733.9843940449894,331.6) translate(90.6 241.6)"/><use xlink:href="#o" transform="matrix(1,0,0,1,733.9843940449894,331.6) translate(169.55 241.6)"/><g><use xlink:href="#p" transform="matrix(1,0,0,1,733.9843940449894,606.7) translate(128.825 25.300000000000004)"/><use xlink:href="#q" transform="matrix(1,0,0,1,733.9843940449894,606.7) translate(129.325 46.900000000000006)"/><use xlink:href="#T" transform="matrix(1,0,0,1,733.9843940449894,606.7) translate(95.35000000000001 68.50000000000001)"/><use xlink:href="#U" transform="matrix(1,0,0,1,733.9843940449894,606.7) translate(110.35 90.10000000000002)"/><use xlink:href="#V" transform="matrix(1,0,0,1,733.9843940449894,606.7) translate(105.35 111.70000000000002)"/><use xlink:href="#W" transform="matrix(1,0,0,1,733.9843940449894,606.7) translate(112.32499999999999 133.3)"/><use xlink:href="#X" transform="matrix(1,0,0,1,733.9843940449894,606.7) translate(33.00000000000003 154.9)"/></g><path d="M1320 880h360v202h-360z" stroke="#333" stroke-width="2" fill="#fff"/><path d="M1320 917.6h360m-360 92.8h360" stroke="#333" stroke-width="2" fill="none"/><g><use xlink:href="#Y" transform="matrix(1,0,0,1,1328,888) translate(106.525 14.6)"/><use xlink:href="#E" transform="matrix(1,0,0,1,1328,888) translate(150.525 14.6)"/><use xlink:href="#Z" transform="matrix(1,0,0,1,1328,888) translate(175.525 14.6)"/></g><g><use xlink:href="#aa" transform="matrix(1,0,0,1,1332,925.6) translate(168 20.5)"/><use xlink:href="#f" transform="matrix(1,0,0,1,1332,925.6) translate(125.6 42.1)"/><use xlink:href="#g" transform="matrix(1,0,0,1,1332,925.6) translate(155.5 42.1)"/><use xlink:href="#ab" transform="matrix(1,0,0,1,1332,925.6) translate(107.6 63.7)"/><use xlink:href="#ac" transform="matrix(1,0,0,1,1332,925.6) translate(184.5 63.7)"/></g><g><use xlink:href="#p" transform="matrix(1,0,0,1,1332,1018.4) translate(129.325 20.799999999999997)"/><use xlink:href="#C" transform="matrix(1,0,0,1,1332,1018.4) translate(129.825 42.4)"/></g><path d="M1320 340h360v372h-360z" stroke="#333" stroke-width="2" fill="#fff"/><path d="M1320 377.6h360m-360 145.5h360" stroke="#333" stroke-width="2" fill="none"/><g><use xlink:href="#ad" transform="matrix(1,0,0,1,1328,348) translate(105.025 14.6)"/><use xlink:href="#E" transform="matrix(1,0,0,1,1328,348) translate(166.025 14.6)"/><use xlink:href="#F" transform="matrix(1,0,0,1,1328,348) translate(191.025 14.6)"/></g><g><use xlink:href="#f" transform="matrix(1,0,0,1,1332,385.6) translate(125.6 25.39999999999999)"/><use xlink:href="#g" transform="matrix(1,0,0,1,1332,385.6) translate(155.5 25.39999999999999)"/><use xlink:href="#j" transform="matrix(1,0,0,1,1332,385.6) translate(84.625 46.99999999999999)"/><use xlink:href="#ae" transform="matrix(1,0,0,1,1332,385.6) translate(95.575 46.99999999999999)"/><use xlink:href="#R" transform="matrix(1,0,0,1,1332,385.6) translate(182.47500000000002 46.99999999999999)"/><use xlink:href="#af" transform="matrix(1,0,0,1,1332,385.6) translate(73.67499999999998 68.6)"/><use xlink:href="#R" transform="matrix(1,0,0,1,1332,385.6) translate(193.425 68.6)"/><use xlink:href="#ag" transform="matrix(1,0,0,1,1332,385.6) translate(99.625 90.20000000000002)"/><use xlink:href="#i" transform="matrix(1,0,0,1,1332,385.6) translate(192.47500000000002 90.20000000000002)"/><use xlink:href="#ah" transform="matrix(1,0,0,1,1332,385.6) translate(76.125 111.80000000000001)"/><use xlink:href="#ai" transform="matrix(1,0,0,1,1332,385.6) translate(211.925 111.80000000000001)"/></g><g><use xlink:href="#p" transform="matrix(1,0,0,1,1332,531.1) translate(129.325 25.300000000000004)"/><use xlink:href="#q" transform="matrix(1,0,0,1,1332,531.1) translate(129.825 46.900000000000006)"/><use xlink:href="#aj" transform="matrix(1,0,0,1,1332,531.1) translate(91.35000000000001 68.50000000000001)"/><use xlink:href="#ak" transform="matrix(1,0,0,1,1332,531.1) translate(106.35 90.10000000000002)"/><use xlink:href="#al" transform="matrix(1,0,0,1,1332,531.1) translate(101.35 111.70000000000002)"/><use xlink:href="#am" transform="matrix(1,0,0,1,1332,531.1) translate(108.32499999999999 133.3)"/><use xlink:href="#an" transform="matrix(1,0,0,1,1332,531.1) translate(24.450000000000017 154.9)"/></g><path d="M481.5 421.7h238.98" stroke="#333" fill="none"/><path d="M481.5 422.2h-.5v-1h.5M720.98 422.2h-.5v-1h.5" fill="#333"/><g><use xlink:href="#ao" transform="matrix(1,0,0,1,496.56023814776813,425.69230518176585) translate(0 14.4)"/></g><g><use xlink:href="#ap" transform="matrix(1,0,0,1,692.1560677620308,396.0923051817658) translate(0 14.4)"/></g><path d="M300 734.5v144" stroke="#333" fill="none"/><path d="M300.5 734.5h-1v-.5h1M300.5 879h-1v-.5h1" fill="#333"/><g><use xlink:href="#aq" transform="matrix(1,0,0,1,265,733.2) translate(0 14.4)"/></g><g><use xlink:href="#ap" transform="matrix(1,0,0,1,308,858.2) translate(0 14.4)"/></g><path d="M720.48 564.06h-8.5c-6.62 0-12 5.37-12 12V969c0 6.63-5.37 12-12 12H481.5" stroke="#333" fill="none"/><path d="M720.98 564.56h-.5v-1h.5M481.5 981.5h-.5v-1h.5" fill="#333"/><g><use xlink:href="#aq" transform="matrix(1,0,0,1,694.6628723616651,538.4618639638854) translate(0 14.4)"/></g><g><use xlink:href="#ap" transform="matrix(1,0,0,1,480.50000000000034,985) translate(0 14.4)"/></g><path d="M1081.5 457.97h237" stroke="#333" fill="none"/><path d="M1081.5 458.47h-.5v-1h.5M1319 458.47h-.5v-1h.5" fill="#333"/><g><use xlink:href="#aq" transform="matrix(1,0,0,1,1080.9236099553727,461.9679486551582) translate(0 14.4)"/></g><g><use xlink:href="#ap" transform="matrix(1,0,0,1,1292.0493472828591,432.3679486551582) translate(0 14.4)"/></g><path d="M1081.5 536.5h56.5c6.63 0 12 5.37 12 12V969c0 6.63 5.37 12 12 12h156.5" stroke="#333" fill="none"/><path d="M1081.5 537h-.5v-1h.5M1319 981.5h-.5v-1h.5" fill="#333"/><g><use xlink:href="#ap" transform="matrix(1,0,0,1,1080.5000000449893,540.5000000000001) translate(0 14.4)"/></g><g><use xlink:href="#aq" transform="matrix(1,0,0,1,1292.5000000000005,955.4) translate(0 14.4)"/></g><defs><path fill="#a9afb8" d="M24-248c120-7 223 5 221 122C244-46 201 0 124 0H24v-248zM76-40c74 7 117-18 117-86 0-67-45-88-117-82v168" id="ar"/><path fill="#a9afb8" d="M24 0v-248h52V0H24" id="as"/><path fill="#a9afb8" d="M199 0l-22-63H83L61 0H9l90-248h61L250 0h-51zm-33-102l-36-108c-10 38-24 72-36 108h72" id="at"/><path fill="#a9afb8" d="M67-125c0 54 23 88 75 88 28 0 53-7 68-21v-34h-60v-39h108v91C232-14 192 4 140 4 58 4 20-42 15-125 8-236 126-280 215-234c19 10 29 26 37 47l-47 15c-11-23-29-39-63-39-53 1-75 33-75 86" id="au"/><path fill="#a9afb8" d="M240-174c0 40-23 61-54 70L253 0h-59l-57-94H76V0H24v-248c93 4 217-23 216 74zM76-134c48-2 112 12 112-38 0-48-66-32-112-35v73" id="av"/><path fill="#a9afb8" d="M230 0l2-204L168 0h-37L68-204 70 0H24v-248h70l56 185 57-185h69V0h-46" id="aw"/><g id="a"><use transform="matrix(0.0728395061728395,0,0,0.0728395061728395,0,0)" xlink:href="#ar"/><use transform="matrix(0.0728395061728395,0,0,0.0728395061728395,18.86543209876543,0)" xlink:href="#as"/><use transform="matrix(0.0728395061728395,0,0,0.0728395061728395,26.14938271604938,0)" xlink:href="#at"/><use transform="matrix(0.0728395061728395,0,0,0.0728395061728395,45.01481481481481,0)" xlink:href="#au"/><use transform="matrix(0.0728395061728395,0,0,0.0728395061728395,65.40987654320988,0)" xlink:href="#av"/><use transform="matrix(0.0728395061728395,0,0,0.0728395061728395,84.2753086419753,0)" xlink:href="#at"/><use transform="matrix(0.0728395061728395,0,0,0.0728395061728395,103.14074074074074,0)" xlink:href="#aw"/><use transform="matrix(0.0728395061728395,0,0,0.0728395061728395,124.91975308641975,0)" xlink:href="#at"/></g><path fill="#a9afb8" d="M24 0v-248h195v40H76v63h132v40H76v65h150V0H24" id="ax"/><g id="b"><use transform="matrix(0.0728395061728395,0,0,0.0728395061728395,0,0)" xlink:href="#ar"/><use transform="matrix(0.0728395061728395,0,0,0.0728395061728395,18.86543209876543,0)" xlink:href="#ax"/></g><path fill="#a9afb8" d="M67-125c0 53 21 87 73 88 37 1 54-22 65-47l45 17C233-25 199 4 140 4 58 4 20-42 15-125 8-235 124-281 211-232c18 10 29 29 36 50l-46 12c-8-25-30-41-62-41-52 0-71 34-72 86" id="ay"/><path fill="#a9afb8" d="M24 0v-248h52v208h133V0H24" id="az"/><path fill="#a9afb8" d="M169-182c-1-43-94-46-97-3 18 66 151 10 154 114 3 95-165 93-204 36-6-8-10-19-12-30l50-8c3 46 112 56 116 5-17-69-150-10-154-114-4-87 153-88 188-35 5 8 8 18 10 28" id="aA"/><g id="c"><use transform="matrix(0.0728395061728395,0,0,0.0728395061728395,0,0)" xlink:href="#ay"/><use transform="matrix(0.0728395061728395,0,0,0.0728395061728395,18.86543209876543,0)" xlink:href="#az"/><use transform="matrix(0.0728395061728395,0,0,0.0728395061728395,34.81728395061728,0)" xlink:href="#at"/><use transform="matrix(0.0728395061728395,0,0,0.0728395061728395,53.68271604938271,0)" xlink:href="#aA"/><use transform="matrix(0.0728395061728395,0,0,0.0728395061728395,71.16419753086419,0)" xlink:href="#aA"/><use transform="matrix(0.0728395061728395,0,0,0.0728395061728395,88.64567901234567,0)" xlink:href="#ax"/></g><path fill="#a9afb8" d="M238-95c0 69-44 99-111 99C63 4 22-25 22-93v-155h51v151c-1 38 19 59 55 60 90 1 49-130 58-211h52v153" id="aB"/><g id="d"><use transform="matrix(0.0728395061728395,0,0,0.0728395061728395,0,0)" xlink:href="#aB"/><use transform="matrix(0.0728395061728395,0,0,0.0728395061728395,18.86543209876543,0)" xlink:href="#aw"/><use transform="matrix(0.0728395061728395,0,0,0.0728395061728395,40.644444444444446,0)" xlink:href="#az"/></g><path fill="#333" d="M232-93c-1 65-40 97-104 97C67 4 28-28 28-90v-158h33c8 89-33 224 67 224 102 0 64-133 71-224h33v155" id="aC"/><path fill="#333" d="M135-143c-3-34-86-38-87 0 15 53 115 12 119 90S17 21 10-45l28-5c4 36 97 45 98 0-10-56-113-15-118-90-4-57 82-63 122-42 12 7 21 19 24 35" id="aD"/><path fill="#333" d="M84 4C-5 8 30-112 23-190h32v120c0 31 7 50 39 49 72-2 45-101 50-169h31l1 190h-30c-1-10 1-25-2-33-11 22-28 36-60 37" id="aE"/><path fill="#333" d="M141-36C126-15 110 5 73 4 37 3 15-17 15-53c-1-64 63-63 125-63 3-35-9-54-41-54-24 1-41 7-42 31l-33-3c5-37 33-52 76-52 45 0 72 20 72 64v82c-1 20 7 32 28 27v20c-31 9-61-2-59-35zM48-53c0 20 12 33 32 33 41-3 63-29 60-74-43 2-92-5-92 41zm25-158c8-23 27-35 38-54h36v5l-58 49H73" id="aF"/><path fill="#333" d="M114-163C36-179 61-72 57 0H25l-1-190h30c1 12-1 29 2 39 6-27 23-49 58-41v29" id="aG"/><path fill="#333" d="M24-231v-30h32v30H24zM24 0v-190h32V0H24" id="aH"/><path fill="#333" d="M100-194c62-1 85 37 85 99 1 63-27 99-86 99S16-35 15-95c0-66 28-99 85-99zM99-20c44 1 53-31 53-75 0-43-8-75-51-75s-53 32-53 75 10 74 51 75" id="aI"/><g id="e"><use transform="matrix(0.05,0,0,0.05,0,0)" xlink:href="#aC"/><use transform="matrix(0.05,0,0,0.05,12.950000000000001,0)" xlink:href="#aD"/><use transform="matrix(0.05,0,0,0.05,21.950000000000003,0)" xlink:href="#aE"/><use transform="matrix(0.05,0,0,0.05,31.950000000000003,0)" xlink:href="#aF"/><use transform="matrix(0.05,0,0,0.05,41.95,0)" xlink:href="#aG"/><use transform="matrix(0.05,0,0,0.05,47.900000000000006,0)" xlink:href="#aH"/><use transform="matrix(0.05,0,0,0.05,51.85,0)" xlink:href="#aI"/></g><path fill="#333" d="M16-82v-28h88v28H16" id="aJ"/><path fill="#333" d="M85-194c31 0 48 13 60 33l-1-100h32l1 261h-30c-2-10 0-23-3-31C134-8 116 4 85 4 32 4 16-35 15-94c0-66 23-100 70-100zm9 24c-40 0-46 34-46 75 0 40 6 74 45 74 42 0 51-32 51-76 0-42-9-74-50-73" id="aK"/><path fill="#333" d="M33-154v-36h34v36H33zM33 0v-36h34V0H33" id="aL"/><g id="f"><use transform="matrix(0.05,0,0,0.05,0,0)" xlink:href="#aJ"/><use transform="matrix(0.05,0,0,0.05,5.95,0)" xlink:href="#aH"/><use transform="matrix(0.05,0,0,0.05,9.9,0)" xlink:href="#aK"/><use transform="matrix(0.05,0,0,0.05,19.9,0)" xlink:href="#aL"/></g><path fill="#333" d="M117-194c89-4 53 116 60 194h-32v-121c0-31-8-49-39-48C34-167 62-67 57 0H25l-1-190h30c1 10-1 24 2 32 11-22 29-35 61-36" id="aM"/><path fill="#333" d="M59-47c-2 24 18 29 38 22v24C64 9 27 4 27-40v-127H5v-23h24l9-43h21v43h35v23H59v120" id="aN"/><path fill="#333" d="M100-194c63 0 86 42 84 106H49c0 40 14 67 53 68 26 1 43-12 49-29l28 8c-11 28-37 45-77 45C44 4 14-33 15-96c1-61 26-98 85-98zm52 81c6-60-76-77-97-28-3 7-6 17-6 28h103" id="aO"/><path fill="#333" d="M177-190C167-65 218 103 67 71c-23-6-38-20-44-43l32-5c15 47 100 32 89-28v-30C133-14 115 1 83 1 29 1 15-40 15-95c0-56 16-97 71-98 29-1 48 16 59 35 1-10 0-23 2-32h30zM94-22c36 0 50-32 50-73 0-42-14-75-50-75-39 0-46 34-46 75s6 73 46 73" id="aP"/><g id="g"><use transform="matrix(0.05,0,0,0.05,0,0)" xlink:href="#aH"/><use transform="matrix(0.05,0,0,0.05,3.95,0)" xlink:href="#aM"/><use transform="matrix(0.05,0,0,0.05,13.949999999999998,0)" xlink:href="#aN"/><use transform="matrix(0.05,0,0,0.05,18.95,0)" xlink:href="#aO"/><use transform="matrix(0.05,0,0,0.05,28.950000000000003,0)" xlink:href="#aP"/><use transform="matrix(0.05,0,0,0.05,38.95,0)" xlink:href="#aO"/><use transform="matrix(0.05,0,0,0.05,48.95,0)" xlink:href="#aG"/></g><path fill="#333" d="M210-169c-67 3-38 105-44 169h-31v-121c0-29-5-50-35-48C34-165 62-65 56 0H25l-1-190h30c1 10-1 24 2 32 10-44 99-50 107 0 11-21 27-35 58-36 85-2 47 119 55 194h-31v-121c0-29-5-49-35-48" id="aQ"/><path fill="#333" d="M141-36C126-15 110 5 73 4 37 3 15-17 15-53c-1-64 63-63 125-63 3-35-9-54-41-54-24 1-41 7-42 31l-33-3c5-37 33-52 76-52 45 0 72 20 72 64v82c-1 20 7 32 28 27v20c-31 9-61-2-59-35zM48-53c0 20 12 33 32 33 41-3 63-29 60-74-43 2-92-5-92 41" id="aR"/><path fill="#333" d="M24 0v-261h32V0H24" id="aS"/><g id="h"><use transform="matrix(0.05,0,0,0.05,0,0)" xlink:href="#aJ"/><use transform="matrix(0.05,0,0,0.05,5.95,0)" xlink:href="#aO"/><use transform="matrix(0.05,0,0,0.05,15.949999999999998,0)" xlink:href="#aQ"/><use transform="matrix(0.05,0,0,0.05,30.899999999999995,0)" xlink:href="#aR"/><use transform="matrix(0.05,0,0,0.05,40.9,0)" xlink:href="#aH"/><use transform="matrix(0.05,0,0,0.05,44.85,0)" xlink:href="#aS"/><use transform="matrix(0.05,0,0,0.05,48.800000000000004,0)" xlink:href="#aL"/></g><g id="i"><use transform="matrix(0.05,0,0,0.05,0,0)" xlink:href="#aD"/><use transform="matrix(0.05,0,0,0.05,9,0)" xlink:href="#aN"/><use transform="matrix(0.05,0,0,0.05,14,0)" xlink:href="#aG"/><use transform="matrix(0.05,0,0,0.05,19.95,0)" xlink:href="#aH"/><use transform="matrix(0.05,0,0,0.05,23.9,0)" xlink:href="#aM"/><use transform="matrix(0.05,0,0,0.05,33.9,0)" xlink:href="#aP"/></g><use transform="matrix(0.05,0,0,0.05,0,0)" xlink:href="#aJ" id="j"/><path fill="#333" d="M106-169C34-169 62-67 57 0H25v-261h32l-1 103c12-21 28-36 61-36 89 0 53 116 60 194h-32v-121c2-32-8-49-39-48" id="aT"/><g id="k"><use transform="matrix(0.05,0,0,0.05,0,0)" xlink:href="#aD"/><use transform="matrix(0.05,0,0,0.05,9,0)" xlink:href="#aO"/><use transform="matrix(0.05,0,0,0.05,19,0)" xlink:href="#aM"/><use transform="matrix(0.05,0,0,0.05,29,0)" xlink:href="#aT"/><use transform="matrix(0.05,0,0,0.05,39,0)" xlink:href="#aR"/><use transform="matrix(0.05,0,0,0.05,49,0)" xlink:href="#aL"/></g><path fill="#333" d="M115-194c55 1 70 41 70 98S169 2 115 4C84 4 66-9 55-30l1 105H24l-1-265h31l2 30c10-21 28-34 59-34zm-8 174c40 0 45-34 45-75s-6-73-45-74c-42 0-51 32-51 76 0 43 10 73 51 73" id="aU"/><path fill="#333" d="M101-234c-31-9-42 10-38 44h38v23H63V0H32v-167H5v-23h27c-7-52 17-82 69-68v24" id="aV"/><g id="l"><use transform="matrix(0.05,0,0,0.05,0,0)" xlink:href="#aU"/><use transform="matrix(0.05,0,0,0.05,10,0)" xlink:href="#aO"/><use transform="matrix(0.05,0,0,0.05,20,0)" xlink:href="#aG"/><use transform="matrix(0.05,0,0,0.05,25.950000000000003,0)" xlink:href="#aV"/><use transform="matrix(0.05,0,0,0.05,30.950000000000003,0)" xlink:href="#aH"/><use transform="matrix(0.05,0,0,0.05,34.9,0)" xlink:href="#aS"/><use transform="matrix(0.05,0,0,0.05,38.85,0)" xlink:href="#aL"/></g><g id="m"><use transform="matrix(0.05,0,0,0.05,0,0)" xlink:href="#aO"/><use transform="matrix(0.05,0,0,0.05,10,0)" xlink:href="#aM"/><use transform="matrix(0.05,0,0,0.05,20,0)" xlink:href="#aE"/><use transform="matrix(0.05,0,0,0.05,30,0)" xlink:href="#aQ"/></g><path fill="#333" d="M63-220v92h138v28H63V0H30v-248h175v28H63" id="aW"/><path fill="#333" d="M108 0H70L1-190h34L89-25l56-165h34" id="aX"/><g id="n"><use transform="matrix(0.05,0,0,0.05,0,0)" xlink:href="#aJ"/><use transform="matrix(0.05,0,0,0.05,5.95,0)" xlink:href="#aU"/><use transform="matrix(0.05,0,0,0.05,15.949999999999998,0)" xlink:href="#aI"/><use transform="matrix(0.05,0,0,0.05,25.950000000000003,0)" xlink:href="#aM"/><use transform="matrix(0.05,0,0,0.05,35.95,0)" xlink:href="#aN"/><use transform="matrix(0.05,0,0,0.05,40.95,0)" xlink:href="#aI"/><use transform="matrix(0.05,0,0,0.05,50.95,0)" xlink:href="#aD"/><use transform="matrix(0.05,0,0,0.05,59.95,0)" xlink:href="#aW"/><use transform="matrix(0.05,0,0,0.05,70.9,0)" xlink:href="#aR"/><use transform="matrix(0.05,0,0,0.05,80.9,0)" xlink:href="#aX"/><use transform="matrix(0.05,0,0,0.05,89.9,0)" xlink:href="#aI"/><use transform="matrix(0.05,0,0,0.05,99.9,0)" xlink:href="#aG"/><use transform="matrix(0.05,0,0,0.05,105.85000000000001,0)" xlink:href="#aH"/><use transform="matrix(0.05,0,0,0.05,109.80000000000001,0)" xlink:href="#aN"/><use transform="matrix(0.05,0,0,0.05,114.80000000000001,0)" xlink:href="#aI"/><use transform="matrix(0.05,0,0,0.05,124.80000000000001,0)" xlink:href="#aD"/><use transform="matrix(0.05,0,0,0.05,133.8,0)" xlink:href="#aL"/></g><path fill="#333" d="M96-169c-40 0-48 33-48 73s9 75 48 75c24 0 41-14 43-38l32 2c-6 37-31 61-74 61-59 0-76-41-82-99-10-93 101-131 147-64 4 7 5 14 7 22l-32 3c-4-21-16-35-41-35" id="aY"/><g id="o"><use transform="matrix(0.05,0,0,0.05,0,0)" xlink:href="#aY"/><use transform="matrix(0.05,0,0,0.05,9,0)" xlink:href="#aI"/><use transform="matrix(0.05,0,0,0.05,19,0)" xlink:href="#aS"/><use transform="matrix(0.05,0,0,0.05,22.95,0)" xlink:href="#aS"/><use transform="matrix(0.05,0,0,0.05,26.899999999999995,0)" xlink:href="#aO"/><use transform="matrix(0.05,0,0,0.05,36.9,0)" xlink:href="#aY"/><use transform="matrix(0.05,0,0,0.05,45.9,0)" xlink:href="#aN"/><use transform="matrix(0.05,0,0,0.05,50.9,0)" xlink:href="#aH"/><use transform="matrix(0.05,0,0,0.05,54.85,0)" xlink:href="#aI"/><use transform="matrix(0.05,0,0,0.05,64.85,0)" xlink:href="#aM"/></g><path fill="#333" d="M118-107v75H92v-75H18v-26h74v-75h26v75h74v26h-74" id="aZ"/><path fill="#333" d="M87 75C49 33 22-17 22-94c0-76 28-126 65-167h31c-38 41-64 92-64 168S80 34 118 75H87" id="ba"/><path fill="#333" d="M33-261c38 41 65 92 65 168S71 34 33 75H2C39 34 66-17 66-93S39-220 2-261h31" id="bb"/><g id="p"><use transform="matrix(0.05,0,0,0.05,0,0)" xlink:href="#aZ"/><use transform="matrix(0.05,0,0,0.05,10.5,0)" xlink:href="#aP"/><use transform="matrix(0.05,0,0,0.05,20.5,0)" xlink:href="#aO"/><use transform="matrix(0.05,0,0,0.05,30.5,0)" xlink:href="#aN"/><use transform="matrix(0.05,0,0,0.05,35.5,0)" xlink:href="#aN"/><use transform="matrix(0.05,0,0,0.05,40.5,0)" xlink:href="#aO"/><use transform="matrix(0.05,0,0,0.05,50.5,0)" xlink:href="#aG"/><use transform="matrix(0.05,0,0,0.05,56.45,0)" xlink:href="#aD"/><use transform="matrix(0.05,0,0,0.05,65.45,0)" xlink:href="#ba"/><use transform="matrix(0.05,0,0,0.05,71.4,0)" xlink:href="#bb"/></g><g id="q"><use transform="matrix(0.05,0,0,0.05,0,0)" xlink:href="#aZ"/><use transform="matrix(0.05,0,0,0.05,10.5,0)" xlink:href="#aD"/><use transform="matrix(0.05,0,0,0.05,19.5,0)" xlink:href="#aO"/><use transform="matrix(0.05,0,0,0.05,29.5,0)" xlink:href="#aN"/><use transform="matrix(0.05,0,0,0.05,34.5,0)" xlink:href="#aN"/><use transform="matrix(0.05,0,0,0.05,39.5,0)" xlink:href="#aO"/><use transform="matrix(0.05,0,0,0.05,49.5,0)" xlink:href="#aG"/><use transform="matrix(0.05,0,0,0.05,55.45,0)" xlink:href="#aD"/><use transform="matrix(0.05,0,0,0.05,64.45,0)" xlink:href="#ba"/><use transform="matrix(0.05,0,0,0.05,70.4,0)" xlink:href="#bb"/></g><g id="r"><use transform="matrix(0.05,0,0,0.05,0,0)" xlink:href="#aZ"/><use transform="matrix(0.05,0,0,0.05,10.5,0)" xlink:href="#aY"/><use transform="matrix(0.05,0,0,0.05,19.5,0)" xlink:href="#aR"/><use transform="matrix(0.05,0,0,0.05,29.5,0)" xlink:href="#aK"/><use transform="matrix(0.05,0,0,0.05,39.5,0)" xlink:href="#aR"/><use transform="matrix(0.05,0,0,0.05,49.5,0)" xlink:href="#aD"/><use transform="matrix(0.05,0,0,0.05,58.5,0)" xlink:href="#aN"/><use transform="matrix(0.05,0,0,0.05,63.5,0)" xlink:href="#aG"/><use transform="matrix(0.05,0,0,0.05,69.45,0)" xlink:href="#aR"/><use transform="matrix(0.05,0,0,0.05,79.45,0)" xlink:href="#aG"/><use transform="matrix(0.05,0,0,0.05,85.4,0)" xlink:href="#aC"/><use transform="matrix(0.05,0,0,0.05,98.35000000000001,0)" xlink:href="#aD"/><use transform="matrix(0.05,0,0,0.05,107.35000000000001,0)" xlink:href="#aE"/><use transform="matrix(0.05,0,0,0.05,117.35000000000001,0)" xlink:href="#aR"/><use transform="matrix(0.05,0,0,0.05,127.35000000000001,0)" xlink:href="#aG"/><use transform="matrix(0.05,0,0,0.05,133.3,0)" xlink:href="#aH"/><use transform="matrix(0.05,0,0,0.05,137.25,0)" xlink:href="#aI"/><use transform="matrix(0.05,0,0,0.05,147.25,0)" xlink:href="#ba"/><use transform="matrix(0.05,0,0,0.05,153.2,0)" xlink:href="#bb"/></g><g id="s"><use transform="matrix(0.05,0,0,0.05,0,0)" xlink:href="#aZ"/><use transform="matrix(0.05,0,0,0.05,10.5,0)" xlink:href="#aS"/><use transform="matrix(0.05,0,0,0.05,14.449999999999998,0)" xlink:href="#aI"/><use transform="matrix(0.05,0,0,0.05,24.45,0)" xlink:href="#aP"/><use transform="matrix(0.05,0,0,0.05,34.45,0)" xlink:href="#aH"/><use transform="matrix(0.05,0,0,0.05,38.400000000000006,0)" xlink:href="#aM"/><use transform="matrix(0.05,0,0,0.05,48.400000000000006,0)" xlink:href="#ba"/><use transform="matrix(0.05,0,0,0.05,54.35,0)" xlink:href="#bb"/></g><g id="t"><use transform="matrix(0.05,0,0,0.05,0,0)" xlink:href="#aZ"/><use transform="matrix(0.05,0,0,0.05,10.5,0)" xlink:href="#aS"/><use transform="matrix(0.05,0,0,0.05,14.449999999999998,0)" xlink:href="#aI"/><use transform="matrix(0.05,0,0,0.05,24.45,0)" xlink:href="#aP"/><use transform="matrix(0.05,0,0,0.05,34.45,0)" xlink:href="#aI"/><use transform="matrix(0.05,0,0,0.05,44.45,0)" xlink:href="#aE"/><use transform="matrix(0.05,0,0,0.05,54.45,0)" xlink:href="#aN"/><use transform="matrix(0.05,0,0,0.05,59.45,0)" xlink:href="#ba"/><use transform="matrix(0.05,0,0,0.05,65.4,0)" xlink:href="#bb"/></g><path fill="#333" d="M30-248c87 1 191-15 191 75 0 78-77 80-158 76V0H30v-248zm33 125c57 0 124 11 124-50 0-59-68-47-124-48v98" id="bc"/><g id="u"><use transform="matrix(0.05,0,0,0.05,0,0)" xlink:href="#aZ"/><use transform="matrix(0.05,0,0,0.05,10.5,0)" xlink:href="#aV"/><use transform="matrix(0.05,0,0,0.05,15.5,0)" xlink:href="#aR"/><use transform="matrix(0.05,0,0,0.05,25.5,0)" xlink:href="#aX"/><use transform="matrix(0.05,0,0,0.05,34.5,0)" xlink:href="#aI"/><use transform="matrix(0.05,0,0,0.05,44.5,0)" xlink:href="#aG"/><use transform="matrix(0.05,0,0,0.05,50.45,0)" xlink:href="#aH"/><use transform="matrix(0.05,0,0,0.05,54.400000000000006,0)" xlink:href="#aN"/><use transform="matrix(0.05,0,0,0.05,59.400000000000006,0)" xlink:href="#aR"/><use transform="matrix(0.05,0,0,0.05,69.4,0)" xlink:href="#aG"/><use transform="matrix(0.05,0,0,0.05,75.35000000000001,0)" xlink:href="#bc"/><use transform="matrix(0.05,0,0,0.05,87.35000000000001,0)" xlink:href="#aI"/><use transform="matrix(0.05,0,0,0.05,97.35000000000001,0)" xlink:href="#aM"/><use transform="matrix(0.05,0,0,0.05,107.35000000000001,0)" xlink:href="#aN"/><use transform="matrix(0.05,0,0,0.05,112.35000000000001,0)" xlink:href="#aI"/><use transform="matrix(0.05,0,0,0.05,122.35000000000001,0)" xlink:href="#ba"/><use transform="matrix(0.05,0,0,0.05,128.3,0)" xlink:href="#bb"/></g><g id="v"><use transform="matrix(0.05,0,0,0.05,0,0)" xlink:href="#aZ"/><use transform="matrix(0.05,0,0,0.05,10.5,0)" xlink:href="#aG"/><use transform="matrix(0.05,0,0,0.05,16.45,0)" xlink:href="#aO"/><use transform="matrix(0.05,0,0,0.05,26.450000000000003,0)" xlink:href="#aQ"/><use transform="matrix(0.05,0,0,0.05,41.4,0)" xlink:href="#aI"/><use transform="matrix(0.05,0,0,0.05,51.400000000000006,0)" xlink:href="#aX"/><use transform="matrix(0.05,0,0,0.05,60.400000000000006,0)" xlink:href="#aO"/><use transform="matrix(0.05,0,0,0.05,70.4,0)" xlink:href="#aG"/><use transform="matrix(0.05,0,0,0.05,76.35000000000001,0)" xlink:href="#bc"/><use transform="matrix(0.05,0,0,0.05,88.35000000000001,0)" xlink:href="#aI"/><use transform="matrix(0.05,0,0,0.05,98.35000000000001,0)" xlink:href="#aM"/><use transform="matrix(0.05,0,0,0.05,108.35000000000001,0)" xlink:href="#aN"/><use transform="matrix(0.05,0,0,0.05,113.35000000000001,0)" xlink:href="#aI"/><use transform="matrix(0.05,0,0,0.05,123.35000000000001,0)" xlink:href="#aW"/><use transform="matrix(0.05,0,0,0.05,134.3,0)" xlink:href="#aR"/><use transform="matrix(0.05,0,0,0.05,144.3,0)" xlink:href="#aX"/><use transform="matrix(0.05,0,0,0.05,153.3,0)" xlink:href="#aI"/><use transform="matrix(0.05,0,0,0.05,163.3,0)" xlink:href="#aG"/><use transform="matrix(0.05,0,0,0.05,169.25,0)" xlink:href="#aH"/><use transform="matrix(0.05,0,0,0.05,173.2,0)" xlink:href="#aN"/><use transform="matrix(0.05,0,0,0.05,178.2,0)" xlink:href="#aI"/><use transform="matrix(0.05,0,0,0.05,188.2,0)" xlink:href="#ba"/><use transform="matrix(0.05,0,0,0.05,194.14999999999998,0)" xlink:href="#bb"/></g><g id="w"><use transform="matrix(0.05,0,0,0.05,0,0)" xlink:href="#aZ"/><use transform="matrix(0.05,0,0,0.05,10.5,0)" xlink:href="#aS"/><use transform="matrix(0.05,0,0,0.05,14.449999999999998,0)" xlink:href="#aH"/><use transform="matrix(0.05,0,0,0.05,18.4,0)" xlink:href="#aD"/><use transform="matrix(0.05,0,0,0.05,27.399999999999995,0)" xlink:href="#aN"/><use transform="matrix(0.05,0,0,0.05,32.4,0)" xlink:href="#aR"/><use transform="matrix(0.05,0,0,0.05,42.4,0)" xlink:href="#aG"/><use transform="matrix(0.05,0,0,0.05,48.35,0)" xlink:href="#bc"/><use transform="matrix(0.05,0,0,0.05,60.35,0)" xlink:href="#aI"/><use transform="matrix(0.05,0,0,0.05,70.35,0)" xlink:href="#aM"/><use transform="matrix(0.05,0,0,0.05,80.35,0)" xlink:href="#aN"/><use transform="matrix(0.05,0,0,0.05,85.35,0)" xlink:href="#aI"/><use transform="matrix(0.05,0,0,0.05,95.35,0)" xlink:href="#aD"/><use transform="matrix(0.05,0,0,0.05,104.34999999999998,0)" xlink:href="#aW"/><use transform="matrix(0.05,0,0,0.05,115.30000000000001,0)" xlink:href="#aR"/><use transform="matrix(0.05,0,0,0.05,125.30000000000001,0)" xlink:href="#aX"/><use transform="matrix(0.05,0,0,0.05,134.3,0)" xlink:href="#aI"/><use transform="matrix(0.05,0,0,0.05,144.3,0)" xlink:href="#aG"/><use transform="matrix(0.05,0,0,0.05,150.25,0)" xlink:href="#aH"/><use transform="matrix(0.05,0,0,0.05,154.2,0)" xlink:href="#aN"/><use transform="matrix(0.05,0,0,0.05,159.2,0)" xlink:href="#aI"/><use transform="matrix(0.05,0,0,0.05,169.2,0)" xlink:href="#aD"/><use transform="matrix(0.05,0,0,0.05,178.2,0)" xlink:href="#ba"/><use transform="matrix(0.05,0,0,0.05,184.14999999999998,0)" xlink:href="#bb"/></g><g id="x"><use transform="matrix(0.05,0,0,0.05,0,0)" xlink:href="#bc"/><use transform="matrix(0.05,0,0,0.05,12,0)" xlink:href="#aI"/><use transform="matrix(0.05,0,0,0.05,22,0)" xlink:href="#aM"/><use transform="matrix(0.05,0,0,0.05,32,0)" xlink:href="#aN"/><use transform="matrix(0.05,0,0,0.05,37,0)" xlink:href="#aI"/><use transform="matrix(0.05,0,0,0.05,47,0)" xlink:href="#aD"/></g><g id="y"><use transform="matrix(0.05,0,0,0.05,0,0)" xlink:href="#aW"/><use transform="matrix(0.05,0,0,0.05,10.950000000000001,0)" xlink:href="#aR"/><use transform="matrix(0.05,0,0,0.05,20.950000000000003,0)" xlink:href="#aX"/><use transform="matrix(0.05,0,0,0.05,29.950000000000003,0)" xlink:href="#aI"/><use transform="matrix(0.05,0,0,0.05,39.95,0)" xlink:href="#aG"/><use transform="matrix(0.05,0,0,0.05,45.900000000000006,0)" xlink:href="#aH"/><use transform="matrix(0.05,0,0,0.05,49.85000000000001,0)" xlink:href="#aN"/><use transform="matrix(0.05,0,0,0.05,54.85,0)" xlink:href="#aI"/><use transform="matrix(0.05,0,0,0.05,64.85000000000001,0)" xlink:href="#aD"/></g><g id="z"><use transform="matrix(0.05,0,0,0.05,0,0)" xlink:href="#aJ"/><use transform="matrix(0.05,0,0,0.05,5.95,0)" xlink:href="#aH"/><use transform="matrix(0.05,0,0,0.05,9.9,0)" xlink:href="#aK"/><use transform="matrix(0.05,0,0,0.05,19.9,0)" xlink:href="#aC"/><use transform="matrix(0.05,0,0,0.05,32.85,0)" xlink:href="#aD"/><use transform="matrix(0.05,0,0,0.05,41.85,0)" xlink:href="#aE"/><use transform="matrix(0.05,0,0,0.05,51.85,0)" xlink:href="#aR"/><use transform="matrix(0.05,0,0,0.05,61.85,0)" xlink:href="#aG"/><use transform="matrix(0.05,0,0,0.05,67.8,0)" xlink:href="#aH"/><use transform="matrix(0.05,0,0,0.05,71.75,0)" xlink:href="#aI"/><use transform="matrix(0.05,0,0,0.05,81.75,0)" xlink:href="#aL"/></g><path fill="#333" d="M30-248c118-7 216 8 213 122C240-48 200 0 122 0H30v-248zM63-27c89 8 146-16 146-99s-60-101-146-95v194" id="bd"/><path fill="#333" d="M212-179c-10-28-35-45-73-45-59 0-87 40-87 99 0 60 29 101 89 101 43 0 62-24 78-52l27 14C228-24 195 4 139 4 59 4 22-46 18-125c-6-104 99-153 187-111 19 9 31 26 39 46" id="be"/><g id="A"><use transform="matrix(0.05,0,0,0.05,0,0)" xlink:href="#aJ"/><use transform="matrix(0.05,0,0,0.05,5.95,0)" xlink:href="#aH"/><use transform="matrix(0.05,0,0,0.05,9.9,0)" xlink:href="#aK"/><use transform="matrix(0.05,0,0,0.05,19.9,0)" xlink:href="#bc"/><use transform="matrix(0.05,0,0,0.05,31.899999999999995,0)" xlink:href="#aI"/><use transform="matrix(0.05,0,0,0.05,41.9,0)" xlink:href="#aM"/><use transform="matrix(0.05,0,0,0.05,51.900000000000006,0)" xlink:href="#aN"/><use transform="matrix(0.05,0,0,0.05,56.900000000000006,0)" xlink:href="#aI"/><use transform="matrix(0.05,0,0,0.05,66.9,0)" xlink:href="#bd"/><use transform="matrix(0.05,0,0,0.05,79.85000000000001,0)" xlink:href="#aO"/><use transform="matrix(0.05,0,0,0.05,89.85000000000001,0)" xlink:href="#be"/><use transform="matrix(0.05,0,0,0.05,102.80000000000001,0)" xlink:href="#aI"/><use transform="matrix(0.05,0,0,0.05,112.80000000000001,0)" xlink:href="#aS"/><use transform="matrix(0.05,0,0,0.05,116.75,0)" xlink:href="#aO"/><use transform="matrix(0.05,0,0,0.05,126.75,0)" xlink:href="#aN"/><use transform="matrix(0.05,0,0,0.05,131.75,0)" xlink:href="#aR"/><use transform="matrix(0.05,0,0,0.05,141.75,0)" xlink:href="#aL"/></g><g id="B"><use transform="matrix(0.05,0,0,0.05,0,0)" xlink:href="#aH"/><use transform="matrix(0.05,0,0,0.05,3.95,0)" xlink:href="#aM"/><use transform="matrix(0.05,0,0,0.05,13.949999999999998,0)" xlink:href="#aN"/><use transform="matrix(0.05,0,0,0.05,18.95,0)" xlink:href="#aO"/><use transform="matrix(0.05,0,0,0.05,28.950000000000003,0)" xlink:href="#aP"/><use transform="matrix(0.05,0,0,0.05,38.95,0)" xlink:href="#aO"/><use transform="matrix(0.05,0,0,0.05,48.95,0)" xlink:href="#aG"/></g><g id="C"><use transform="matrix(0.05,0,0,0.05,0,0)" xlink:href="#aZ"/><use transform="matrix(0.05,0,0,0.05,10.5,0)" xlink:href="#aD"/><use transform="matrix(0.05,0,0,0.05,19.5,0)" xlink:href="#aO"/><use transform="matrix(0.05,0,0,0.05,29.5,0)" xlink:href="#aN"/><use transform="matrix(0.05,0,0,0.05,34.5,0)" xlink:href="#aN"/><use transform="matrix(0.05,0,0,0.05,39.5,0)" xlink:href="#aO"/><use transform="matrix(0.05,0,0,0.05,49.5,0)" xlink:href="#aG"/><use transform="matrix(0.05,0,0,0.05,55.45,0)" xlink:href="#aD"/><use transform="matrix(0.05,0,0,0.05,64.45,0)" xlink:href="#ba"/><use transform="matrix(0.05,0,0,0.05,70.4,0)" xlink:href="#bb"/></g><g id="D"><use transform="matrix(0.05,0,0,0.05,0,0)" xlink:href="#bc"/><use transform="matrix(0.05,0,0,0.05,12,0)" xlink:href="#aI"/><use transform="matrix(0.05,0,0,0.05,22,0)" xlink:href="#aM"/><use transform="matrix(0.05,0,0,0.05,32,0)" xlink:href="#aN"/><use transform="matrix(0.05,0,0,0.05,37,0)" xlink:href="#aI"/></g><g id="E"><use transform="matrix(0.05,0,0,0.05,0,0)" xlink:href="#aK"/><use transform="matrix(0.05,0,0,0.05,10,0)" xlink:href="#aO"/></g><g id="F"><use transform="matrix(0.05,0,0,0.05,0,0)" xlink:href="#aY"/><use transform="matrix(0.05,0,0,0.05,9,0)" xlink:href="#aI"/><use transform="matrix(0.05,0,0,0.05,19,0)" xlink:href="#aS"/><use transform="matrix(0.05,0,0,0.05,22.95,0)" xlink:href="#aO"/><use transform="matrix(0.05,0,0,0.05,32.95,0)" xlink:href="#aN"/><use transform="matrix(0.05,0,0,0.05,37.95,0)" xlink:href="#aR"/></g><g id="G"><use transform="matrix(0.05,0,0,0.05,0,0)" xlink:href="#aJ"/><use transform="matrix(0.05,0,0,0.05,5.95,0)" xlink:href="#aM"/><use transform="matrix(0.05,0,0,0.05,15.949999999999998,0)" xlink:href="#aI"/><use transform="matrix(0.05,0,0,0.05,25.950000000000003,0)" xlink:href="#aQ"/><use transform="matrix(0.05,0,0,0.05,40.9,0)" xlink:href="#aO"/><use transform="matrix(0.05,0,0,0.05,50.9,0)" xlink:href="#aL"/></g><g id="H"><use transform="matrix(0.05,0,0,0.05,0,0)" xlink:href="#aY"/><use transform="matrix(0.05,0,0,0.05,9,0)" xlink:href="#aO"/><use transform="matrix(0.05,0,0,0.05,19,0)" xlink:href="#aU"/><use transform="matrix(0.05,0,0,0.05,29,0)" xlink:href="#aL"/></g><g id="I"><use transform="matrix(0.05,0,0,0.05,0,0)" xlink:href="#aM"/><use transform="matrix(0.05,0,0,0.05,10,0)" xlink:href="#aE"/><use transform="matrix(0.05,0,0,0.05,20,0)" xlink:href="#aQ"/><use transform="matrix(0.05,0,0,0.05,34.95,0)" xlink:href="#aO"/><use transform="matrix(0.05,0,0,0.05,44.95,0)" xlink:href="#aG"/><use transform="matrix(0.05,0,0,0.05,50.900000000000006,0)" xlink:href="#aI"/><use transform="matrix(0.05,0,0,0.05,60.900000000000006,0)" xlink:href="#aL"/></g><g id="J"><use transform="matrix(0.05,0,0,0.05,0,0)" xlink:href="#aN"/><use transform="matrix(0.05,0,0,0.05,5,0)" xlink:href="#aO"/><use transform="matrix(0.05,0,0,0.05,15,0)" xlink:href="#aS"/><use transform="matrix(0.05,0,0,0.05,18.95,0)" xlink:href="#aO"/><use transform="matrix(0.05,0,0,0.05,28.950000000000003,0)" xlink:href="#aV"/><use transform="matrix(0.05,0,0,0.05,33.95,0)" xlink:href="#aI"/><use transform="matrix(0.05,0,0,0.05,43.95,0)" xlink:href="#aM"/><use transform="matrix(0.05,0,0,0.05,53.95,0)" xlink:href="#aO"/><use transform="matrix(0.05,0,0,0.05,63.95,0)" xlink:href="#aL"/></g><g id="K"><use transform="matrix(0.05,0,0,0.05,0,0)" xlink:href="#aK"/><use transform="matrix(0.05,0,0,0.05,10,0)" xlink:href="#aO"/><use transform="matrix(0.05,0,0,0.05,20,0)" xlink:href="#aD"/><use transform="matrix(0.05,0,0,0.05,29,0)" xlink:href="#aY"/><use transform="matrix(0.05,0,0,0.05,38,0)" xlink:href="#aG"/><use transform="matrix(0.05,0,0,0.05,43.95,0)" xlink:href="#aH"/><use transform="matrix(0.05,0,0,0.05,47.900000000000006,0)" xlink:href="#aY"/><use transform="matrix(0.05,0,0,0.05,56.900000000000006,0)" xlink:href="#aR"/><use transform="matrix(0.05,0,0,0.05,66.9,0)" xlink:href="#aI"/><use transform="matrix(0.05,0,0,0.05,76.9,0)" xlink:href="#aL"/></g><g id="L"><use transform="matrix(0.05,0,0,0.05,0,0)" xlink:href="#aJ"/><use transform="matrix(0.05,0,0,0.05,5.95,0)" xlink:href="#aH"/><use transform="matrix(0.05,0,0,0.05,9.9,0)" xlink:href="#aN"/><use transform="matrix(0.05,0,0,0.05,14.9,0)" xlink:href="#aO"/><use transform="matrix(0.05,0,0,0.05,24.9,0)" xlink:href="#aM"/><use transform="matrix(0.05,0,0,0.05,34.9,0)" xlink:href="#aD"/><use transform="matrix(0.05,0,0,0.05,43.9,0)" xlink:href="#bd"/><use transform="matrix(0.05,0,0,0.05,56.85,0)" xlink:href="#aI"/><use transform="matrix(0.05,0,0,0.05,66.85,0)" xlink:href="#aR"/><use transform="matrix(0.05,0,0,0.05,76.85,0)" xlink:href="#aY"/><use transform="matrix(0.05,0,0,0.05,85.85,0)" xlink:href="#aR"/><use transform="matrix(0.05,0,0,0.05,95.85,0)" xlink:href="#aI"/><use transform="matrix(0.05,0,0,0.05,105.84999999999998,0)" xlink:href="#aL"/></g><g id="M"><use transform="matrix(0.05,0,0,0.05,0,0)" xlink:href="#aY"/><use transform="matrix(0.05,0,0,0.05,9,0)" xlink:href="#aI"/><use transform="matrix(0.05,0,0,0.05,19,0)" xlink:href="#aS"/><use transform="matrix(0.05,0,0,0.05,22.95,0)" xlink:href="#aS"/><use transform="matrix(0.05,0,0,0.05,26.899999999999995,0)" xlink:href="#aO"/><use transform="matrix(0.05,0,0,0.05,36.9,0)" xlink:href="#aY"/><use transform="matrix(0.05,0,0,0.05,45.9,0)" xlink:href="#aN"/><use transform="matrix(0.05,0,0,0.05,50.9,0)" xlink:href="#aH"/><use transform="matrix(0.05,0,0,0.05,54.85,0)" xlink:href="#aI"/><use transform="matrix(0.05,0,0,0.05,64.85,0)" xlink:href="#aM"/><use transform="matrix(0.05,0,0,0.05,74.85,0)" xlink:href="#aJ"/></g><g id="N"><use transform="matrix(0.05,0,0,0.05,0,0)" xlink:href="#aT"/><use transform="matrix(0.05,0,0,0.05,10,0)" xlink:href="#aI"/><use transform="matrix(0.05,0,0,0.05,20,0)" xlink:href="#aG"/><use transform="matrix(0.05,0,0,0.05,25.950000000000003,0)" xlink:href="#aR"/><use transform="matrix(0.05,0,0,0.05,35.95,0)" xlink:href="#aG"/><use transform="matrix(0.05,0,0,0.05,41.900000000000006,0)" xlink:href="#aH"/><use transform="matrix(0.05,0,0,0.05,45.85000000000001,0)" xlink:href="#aI"/><use transform="matrix(0.05,0,0,0.05,55.85,0)" xlink:href="#aW"/><use transform="matrix(0.05,0,0,0.05,66.80000000000001,0)" xlink:href="#aE"/><use transform="matrix(0.05,0,0,0.05,76.80000000000001,0)" xlink:href="#aM"/><use transform="matrix(0.05,0,0,0.05,86.80000000000001,0)" xlink:href="#aY"/><use transform="matrix(0.05,0,0,0.05,95.80000000000001,0)" xlink:href="#aH"/><use transform="matrix(0.05,0,0,0.05,99.75000000000001,0)" xlink:href="#aI"/><use transform="matrix(0.05,0,0,0.05,109.75,0)" xlink:href="#aM"/><use transform="matrix(0.05,0,0,0.05,119.75,0)" xlink:href="#aR"/><use transform="matrix(0.05,0,0,0.05,129.75,0)" xlink:href="#aQ"/><use transform="matrix(0.05,0,0,0.05,144.7,0)" xlink:href="#aO"/><use transform="matrix(0.05,0,0,0.05,154.7,0)" xlink:href="#aM"/><use transform="matrix(0.05,0,0,0.05,164.7,0)" xlink:href="#aN"/><use transform="matrix(0.05,0,0,0.05,169.7,0)" xlink:href="#aI"/><use transform="matrix(0.05,0,0,0.05,179.7,0)" xlink:href="#aL"/></g><g id="O"><use transform="matrix(0.05,0,0,0.05,0,0)" xlink:href="#aK"/><use transform="matrix(0.05,0,0,0.05,10,0)" xlink:href="#aR"/><use transform="matrix(0.05,0,0,0.05,20,0)" xlink:href="#aN"/><use transform="matrix(0.05,0,0,0.05,25,0)" xlink:href="#aO"/><use transform="matrix(0.05,0,0,0.05,35,0)" xlink:href="#aN"/><use transform="matrix(0.05,0,0,0.05,40,0)" xlink:href="#aH"/><use transform="matrix(0.05,0,0,0.05,43.95,0)" xlink:href="#aQ"/><use transform="matrix(0.05,0,0,0.05,58.900000000000006,0)" xlink:href="#aO"/></g><use transform="matrix(0.05,0,0,0.05,0,0)" xlink:href="#aJ" id="P"/><g id="Q"><use transform="matrix(0.05,0,0,0.05,0,0)" xlink:href="#aK"/><use transform="matrix(0.05,0,0,0.05,10,0)" xlink:href="#aH"/><use transform="matrix(0.05,0,0,0.05,13.949999999999998,0)" xlink:href="#aR"/><use transform="matrix(0.05,0,0,0.05,23.95,0)" xlink:href="#aD"/><use transform="matrix(0.05,0,0,0.05,32.95,0)" xlink:href="#aW"/><use transform="matrix(0.05,0,0,0.05,43.900000000000006,0)" xlink:href="#aE"/><use transform="matrix(0.05,0,0,0.05,53.900000000000006,0)" xlink:href="#aM"/><use transform="matrix(0.05,0,0,0.05,63.900000000000006,0)" xlink:href="#aY"/><use transform="matrix(0.05,0,0,0.05,72.9,0)" xlink:href="#aH"/><use transform="matrix(0.05,0,0,0.05,76.85000000000001,0)" xlink:href="#aI"/><use transform="matrix(0.05,0,0,0.05,86.85000000000001,0)" xlink:href="#aM"/><use transform="matrix(0.05,0,0,0.05,96.85000000000001,0)" xlink:href="#aR"/><use transform="matrix(0.05,0,0,0.05,106.85000000000001,0)" xlink:href="#aQ"/><use transform="matrix(0.05,0,0,0.05,121.80000000000001,0)" xlink:href="#aO"/><use transform="matrix(0.05,0,0,0.05,131.8,0)" xlink:href="#aM"/><use transform="matrix(0.05,0,0,0.05,141.8,0)" xlink:href="#aN"/><use transform="matrix(0.05,0,0,0.05,146.8,0)" xlink:href="#aI"/><use transform="matrix(0.05,0,0,0.05,156.8,0)" xlink:href="#aL"/></g><g id="R"><use transform="matrix(0.05,0,0,0.05,0,0)" xlink:href="#aK"/><use transform="matrix(0.05,0,0,0.05,10,0)" xlink:href="#aR"/><use transform="matrix(0.05,0,0,0.05,20,0)" xlink:href="#aN"/><use transform="matrix(0.05,0,0,0.05,25,0)" xlink:href="#aO"/><use transform="matrix(0.05,0,0,0.05,35,0)" xlink:href="#aN"/><use transform="matrix(0.05,0,0,0.05,40,0)" xlink:href="#aH"/><use transform="matrix(0.05,0,0,0.05,43.95,0)" xlink:href="#aQ"/><use transform="matrix(0.05,0,0,0.05,58.900000000000006,0)" xlink:href="#aO"/></g><g id="S"><use transform="matrix(0.05,0,0,0.05,0,0)" xlink:href="#aJ"/><use transform="matrix(0.05,0,0,0.05,5.95,0)" xlink:href="#aO"/><use transform="matrix(0.05,0,0,0.05,15.949999999999998,0)" xlink:href="#aX"/><use transform="matrix(0.05,0,0,0.05,24.95,0)" xlink:href="#aO"/><use transform="matrix(0.05,0,0,0.05,34.95,0)" xlink:href="#aM"/><use transform="matrix(0.05,0,0,0.05,44.95,0)" xlink:href="#aN"/><use transform="matrix(0.05,0,0,0.05,49.95,0)" xlink:href="#aI"/><use transform="matrix(0.05,0,0,0.05,59.95,0)" xlink:href="#aD"/><use transform="matrix(0.05,0,0,0.05,68.95,0)" xlink:href="#aL"/></g><g id="T"><use transform="matrix(0.05,0,0,0.05,0,0)" xlink:href="#aZ"/><use transform="matrix(0.05,0,0,0.05,10.5,0)" xlink:href="#aY"/><use transform="matrix(0.05,0,0,0.05,19.5,0)" xlink:href="#aR"/><use transform="matrix(0.05,0,0,0.05,29.5,0)" xlink:href="#aK"/><use transform="matrix(0.05,0,0,0.05,39.5,0)" xlink:href="#aR"/><use transform="matrix(0.05,0,0,0.05,49.5,0)" xlink:href="#aD"/><use transform="matrix(0.05,0,0,0.05,58.5,0)" xlink:href="#aN"/><use transform="matrix(0.05,0,0,0.05,63.5,0)" xlink:href="#aG"/><use transform="matrix(0.05,0,0,0.05,69.45,0)" xlink:href="#aR"/><use transform="matrix(0.05,0,0,0.05,79.45,0)" xlink:href="#aG"/><use transform="matrix(0.05,0,0,0.05,85.4,0)" xlink:href="#bc"/><use transform="matrix(0.05,0,0,0.05,97.4,0)" xlink:href="#aI"/><use transform="matrix(0.05,0,0,0.05,107.4,0)" xlink:href="#aM"/><use transform="matrix(0.05,0,0,0.05,117.4,0)" xlink:href="#aN"/><use transform="matrix(0.05,0,0,0.05,122.4,0)" xlink:href="#aI"/><use transform="matrix(0.05,0,0,0.05,132.4,0)" xlink:href="#ba"/><use transform="matrix(0.05,0,0,0.05,138.35,0)" xlink:href="#bb"/></g><g id="U"><use transform="matrix(0.05,0,0,0.05,0,0)" xlink:href="#aZ"/><use transform="matrix(0.05,0,0,0.05,10.5,0)" xlink:href="#aO"/><use transform="matrix(0.05,0,0,0.05,20.5,0)" xlink:href="#aK"/><use transform="matrix(0.05,0,0,0.05,30.5,0)" xlink:href="#aH"/><use transform="matrix(0.05,0,0,0.05,34.45,0)" xlink:href="#aN"/><use transform="matrix(0.05,0,0,0.05,39.45,0)" xlink:href="#aR"/><use transform="matrix(0.05,0,0,0.05,49.45,0)" xlink:href="#aG"/><use transform="matrix(0.05,0,0,0.05,55.400000000000006,0)" xlink:href="#bc"/><use transform="matrix(0.05,0,0,0.05,67.4,0)" xlink:href="#aI"/><use transform="matrix(0.05,0,0,0.05,77.4,0)" xlink:href="#aM"/><use transform="matrix(0.05,0,0,0.05,87.4,0)" xlink:href="#aN"/><use transform="matrix(0.05,0,0,0.05,92.4,0)" xlink:href="#aI"/><use transform="matrix(0.05,0,0,0.05,102.4,0)" xlink:href="#ba"/><use transform="matrix(0.05,0,0,0.05,108.35000000000001,0)" xlink:href="#bb"/></g><g id="V"><use transform="matrix(0.05,0,0,0.05,0,0)" xlink:href="#aZ"/><use transform="matrix(0.05,0,0,0.05,10.5,0)" xlink:href="#aK"/><use transform="matrix(0.05,0,0,0.05,20.5,0)" xlink:href="#aO"/><use transform="matrix(0.05,0,0,0.05,30.5,0)" xlink:href="#aS"/><use transform="matrix(0.05,0,0,0.05,34.45,0)" xlink:href="#aO"/><use transform="matrix(0.05,0,0,0.05,44.45,0)" xlink:href="#aN"/><use transform="matrix(0.05,0,0,0.05,49.45,0)" xlink:href="#aR"/><use transform="matrix(0.05,0,0,0.05,59.45,0)" xlink:href="#aG"/><use transform="matrix(0.05,0,0,0.05,65.4,0)" xlink:href="#bc"/><use transform="matrix(0.05,0,0,0.05,77.4,0)" xlink:href="#aI"/><use transform="matrix(0.05,0,0,0.05,87.4,0)" xlink:href="#aM"/><use transform="matrix(0.05,0,0,0.05,97.4,0)" xlink:href="#aN"/><use transform="matrix(0.05,0,0,0.05,102.4,0)" xlink:href="#aI"/><use transform="matrix(0.05,0,0,0.05,112.4,0)" xlink:href="#ba"/><use transform="matrix(0.05,0,0,0.05,118.35000000000001,0)" xlink:href="#bb"/></g><path fill="#333" d="M115-194c53 0 69 39 70 98 0 66-23 100-70 100C84 3 66-7 56-30L54 0H23l1-261h32v101c10-23 28-34 59-34zm-8 174c40 0 45-34 45-75 0-40-5-75-45-74-42 0-51 32-51 76 0 43 10 73 51 73" id="bf"/><g id="W"><use transform="matrix(0.05,0,0,0.05,0,0)" xlink:href="#aZ"/><use transform="matrix(0.05,0,0,0.05,10.5,0)" xlink:href="#aI"/><use transform="matrix(0.05,0,0,0.05,20.5,0)" xlink:href="#bf"/><use transform="matrix(0.05,0,0,0.05,30.5,0)" xlink:href="#aN"/><use transform="matrix(0.05,0,0,0.05,35.5,0)" xlink:href="#aO"/><use transform="matrix(0.05,0,0,0.05,45.5,0)" xlink:href="#aG"/><use transform="matrix(0.05,0,0,0.05,51.45,0)" xlink:href="#bc"/><use transform="matrix(0.05,0,0,0.05,63.45,0)" xlink:href="#aI"/><use transform="matrix(0.05,0,0,0.05,73.45,0)" xlink:href="#aM"/><use transform="matrix(0.05,0,0,0.05,83.45,0)" xlink:href="#aN"/><use transform="matrix(0.05,0,0,0.05,88.45,0)" xlink:href="#aI"/><use transform="matrix(0.05,0,0,0.05,98.45,0)" xlink:href="#ba"/><use transform="matrix(0.05,0,0,0.05,104.4,0)" xlink:href="#bb"/></g><path fill="#333" d="M30 0v-248h33v221h125V0H30" id="bg"/><g id="X"><use transform="matrix(0.05,0,0,0.05,0,0)" xlink:href="#aZ"/><use transform="matrix(0.05,0,0,0.05,10.5,0)" xlink:href="#aI"/><use transform="matrix(0.05,0,0,0.05,20.5,0)" xlink:href="#bf"/><use transform="matrix(0.05,0,0,0.05,30.5,0)" xlink:href="#aN"/><use transform="matrix(0.05,0,0,0.05,35.5,0)" xlink:href="#aO"/><use transform="matrix(0.05,0,0,0.05,45.5,0)" xlink:href="#aG"/><use transform="matrix(0.05,0,0,0.05,51.45,0)" xlink:href="#bg"/><use transform="matrix(0.05,0,0,0.05,61.45,0)" xlink:href="#aH"/><use transform="matrix(0.05,0,0,0.05,65.4,0)" xlink:href="#aD"/><use transform="matrix(0.05,0,0,0.05,74.4,0)" xlink:href="#aN"/><use transform="matrix(0.05,0,0,0.05,79.4,0)" xlink:href="#aR"/><use transform="matrix(0.05,0,0,0.05,89.4,0)" xlink:href="#bd"/><use transform="matrix(0.05,0,0,0.05,102.35000000000001,0)" xlink:href="#aO"/><use transform="matrix(0.05,0,0,0.05,112.35000000000001,0)" xlink:href="#bc"/><use transform="matrix(0.05,0,0,0.05,124.35000000000001,0)" xlink:href="#aI"/><use transform="matrix(0.05,0,0,0.05,134.35000000000002,0)" xlink:href="#aM"/><use transform="matrix(0.05,0,0,0.05,144.35000000000002,0)" xlink:href="#aN"/><use transform="matrix(0.05,0,0,0.05,149.35000000000002,0)" xlink:href="#aI"/><use transform="matrix(0.05,0,0,0.05,159.35000000000002,0)" xlink:href="#aD"/><use transform="matrix(0.05,0,0,0.05,168.35000000000002,0)" xlink:href="#bd"/><use transform="matrix(0.05,0,0,0.05,181.3,0)" xlink:href="#aO"/><use transform="matrix(0.05,0,0,0.05,191.3,0)" xlink:href="#aC"/><use transform="matrix(0.05,0,0,0.05,204.25,0)" xlink:href="#aQ"/><use transform="matrix(0.05,0,0,0.05,219.19999999999996,0)" xlink:href="#aC"/><use transform="matrix(0.05,0,0,0.05,232.14999999999998,0)" xlink:href="#aD"/><use transform="matrix(0.05,0,0,0.05,241.14999999999998,0)" xlink:href="#aO"/><use transform="matrix(0.05,0,0,0.05,251.14999999999998,0)" xlink:href="#aG"/><use transform="matrix(0.05,0,0,0.05,257.09999999999997,0)" xlink:href="#ba"/><use transform="matrix(0.05,0,0,0.05,263.04999999999995,0)" xlink:href="#bb"/></g><path fill="#333" d="M33 0v-248h34V0H33" id="bh"/><g id="Y"><use transform="matrix(0.05,0,0,0.05,0,0)" xlink:href="#bh"/><use transform="matrix(0.05,0,0,0.05,5,0)" xlink:href="#aN"/><use transform="matrix(0.05,0,0,0.05,10,0)" xlink:href="#aO"/><use transform="matrix(0.05,0,0,0.05,20,0)" xlink:href="#aM"/><use transform="matrix(0.05,0,0,0.05,30,0)" xlink:href="#aD"/></g><path fill="#333" d="M96-169c-40 0-48 33-48 73s9 75 48 75c24 0 41-14 43-38l32 2c-6 37-31 61-74 61-59 0-76-41-82-99-10-93 101-131 147-64 4 7 5 14 7 22l-32 3c-4-21-16-35-41-35zm3 187c19-1 33 8 33 26 0 31-30 33-64 32V58c18 2 39 4 41-13 1-15-18-13-34-13L87 0h19" id="bi"/><path fill="#333" d="M141-36C126-15 110 5 73 4 37 3 15-17 15-53c-1-64 63-63 125-63 3-35-9-54-41-54-24 1-41 7-42 31l-33-3c5-37 33-52 76-52 45 0 72 20 72 64v82c-1 20 7 32 28 27v20c-31 9-61-2-59-35zM48-53c0 20 12 33 32 33 41-3 63-29 60-74-43 2-92-5-92 41zm117-205c-3 23-9 48-36 47-26-1-65-44-74 0H39c4-23 8-48 36-47s64 44 74 0h16" id="bj"/><g id="Z"><use transform="matrix(0.05,0,0,0.05,0,0)" xlink:href="#bd"/><use transform="matrix(0.05,0,0,0.05,12.950000000000001,0)" xlink:href="#aI"/><use transform="matrix(0.05,0,0,0.05,22.950000000000003,0)" xlink:href="#aR"/><use transform="matrix(0.05,0,0,0.05,32.95,0)" xlink:href="#bi"/><use transform="matrix(0.05,0,0,0.05,41.95,0)" xlink:href="#bj"/><use transform="matrix(0.05,0,0,0.05,51.95,0)" xlink:href="#aI"/></g><g id="ab"><use transform="matrix(0.05,0,0,0.05,0,0)" xlink:href="#aJ"/><use transform="matrix(0.05,0,0,0.05,5.95,0)" xlink:href="#aU"/><use transform="matrix(0.05,0,0,0.05,15.949999999999998,0)" xlink:href="#aG"/><use transform="matrix(0.05,0,0,0.05,21.9,0)" xlink:href="#aI"/><use transform="matrix(0.05,0,0,0.05,31.899999999999995,0)" xlink:href="#aK"/><use transform="matrix(0.05,0,0,0.05,41.9,0)" xlink:href="#aE"/><use transform="matrix(0.05,0,0,0.05,51.900000000000006,0)" xlink:href="#aN"/><use transform="matrix(0.05,0,0,0.05,56.900000000000006,0)" xlink:href="#aI"/><use transform="matrix(0.05,0,0,0.05,66.9,0)" xlink:href="#aL"/></g><g id="ac"><use transform="matrix(0.05,0,0,0.05,0,0)" xlink:href="#aD"/><use transform="matrix(0.05,0,0,0.05,9,0)" xlink:href="#aN"/><use transform="matrix(0.05,0,0,0.05,14,0)" xlink:href="#aG"/><use transform="matrix(0.05,0,0,0.05,19.95,0)" xlink:href="#aH"/><use transform="matrix(0.05,0,0,0.05,23.9,0)" xlink:href="#aM"/><use transform="matrix(0.05,0,0,0.05,33.9,0)" xlink:href="#aP"/></g><path fill="#333" d="M30 0v-248h187v28H63v79h144v27H63v87h162V0H30" id="bk"/><g id="ad"><use transform="matrix(0.05,0,0,0.05,0,0)" xlink:href="#bk"/><use transform="matrix(0.05,0,0,0.05,12,0)" xlink:href="#aX"/><use transform="matrix(0.05,0,0,0.05,21,0)" xlink:href="#aO"/><use transform="matrix(0.05,0,0,0.05,31,0)" xlink:href="#aM"/><use transform="matrix(0.05,0,0,0.05,41,0)" xlink:href="#aN"/><use transform="matrix(0.05,0,0,0.05,46,0)" xlink:href="#aI"/></g><g id="ae"><use transform="matrix(0.05,0,0,0.05,0,0)" xlink:href="#aK"/><use transform="matrix(0.05,0,0,0.05,10,0)" xlink:href="#aR"/><use transform="matrix(0.05,0,0,0.05,20,0)" xlink:href="#aN"/><use transform="matrix(0.05,0,0,0.05,25,0)" xlink:href="#aR"/><use transform="matrix(0.05,0,0,0.05,35,0)" xlink:href="#bh"/><use transform="matrix(0.05,0,0,0.05,40,0)" xlink:href="#aM"/><use transform="matrix(0.05,0,0,0.05,50,0)" xlink:href="#aH"/><use transform="matrix(0.05,0,0,0.05,53.95,0)" xlink:href="#aY"/><use transform="matrix(0.05,0,0,0.05,62.95,0)" xlink:href="#aH"/><use transform="matrix(0.05,0,0,0.05,66.9,0)" xlink:href="#aI"/><use transform="matrix(0.05,0,0,0.05,76.9,0)" xlink:href="#aL"/></g><path fill="#333" d="M127-220V0H93v-220H8v-28h204v28h-85" id="bl"/><g id="af"><use transform="matrix(0.05,0,0,0.05,0,0)" xlink:href="#aJ"/><use transform="matrix(0.05,0,0,0.05,5.95,0)" xlink:href="#aK"/><use transform="matrix(0.05,0,0,0.05,15.949999999999998,0)" xlink:href="#aR"/><use transform="matrix(0.05,0,0,0.05,25.950000000000003,0)" xlink:href="#aN"/><use transform="matrix(0.05,0,0,0.05,30.950000000000003,0)" xlink:href="#aR"/><use transform="matrix(0.05,0,0,0.05,40.95,0)" xlink:href="#bl"/><use transform="matrix(0.05,0,0,0.05,49.900000000000006,0)" xlink:href="#aO"/><use transform="matrix(0.05,0,0,0.05,59.900000000000006,0)" xlink:href="#aG"/><use transform="matrix(0.05,0,0,0.05,65.85000000000001,0)" xlink:href="#aQ"/><use transform="matrix(0.05,0,0,0.05,80.80000000000001,0)" xlink:href="#aH"/><use transform="matrix(0.05,0,0,0.05,84.75000000000001,0)" xlink:href="#aM"/><use transform="matrix(0.05,0,0,0.05,94.75000000000001,0)" xlink:href="#aI"/><use transform="matrix(0.05,0,0,0.05,104.75,0)" xlink:href="#aL"/></g><g id="ag"><use transform="matrix(0.05,0,0,0.05,0,0)" xlink:href="#aJ"/><use transform="matrix(0.05,0,0,0.05,5.95,0)" xlink:href="#aK"/><use transform="matrix(0.05,0,0,0.05,15.949999999999998,0)" xlink:href="#aO"/><use transform="matrix(0.05,0,0,0.05,25.950000000000003,0)" xlink:href="#aD"/><use transform="matrix(0.05,0,0,0.05,34.95,0)" xlink:href="#aY"/><use transform="matrix(0.05,0,0,0.05,43.95,0)" xlink:href="#aG"/><use transform="matrix(0.05,0,0,0.05,49.900000000000006,0)" xlink:href="#aH"/><use transform="matrix(0.05,0,0,0.05,53.85,0)" xlink:href="#aY"/><use transform="matrix(0.05,0,0,0.05,62.85,0)" xlink:href="#aR"/><use transform="matrix(0.05,0,0,0.05,72.85000000000001,0)" xlink:href="#aI"/><use transform="matrix(0.05,0,0,0.05,82.85000000000001,0)" xlink:href="#aL"/></g><g id="ah"><use transform="matrix(0.05,0,0,0.05,0,0)" xlink:href="#aJ"/><use transform="matrix(0.05,0,0,0.05,5.95,0)" xlink:href="#aU"/><use transform="matrix(0.05,0,0,0.05,15.949999999999998,0)" xlink:href="#aI"/><use transform="matrix(0.05,0,0,0.05,25.950000000000003,0)" xlink:href="#aM"/><use transform="matrix(0.05,0,0,0.05,35.95,0)" xlink:href="#aN"/><use transform="matrix(0.05,0,0,0.05,40.95,0)" xlink:href="#aI"/><use transform="matrix(0.05,0,0,0.05,50.95,0)" xlink:href="#bd"/><use transform="matrix(0.05,0,0,0.05,63.900000000000006,0)" xlink:href="#aO"/><use transform="matrix(0.05,0,0,0.05,73.9,0)" xlink:href="#be"/><use transform="matrix(0.05,0,0,0.05,86.85000000000001,0)" xlink:href="#aI"/><use transform="matrix(0.05,0,0,0.05,96.85000000000001,0)" xlink:href="#aS"/><use transform="matrix(0.05,0,0,0.05,100.80000000000001,0)" xlink:href="#aO"/><use transform="matrix(0.05,0,0,0.05,110.80000000000001,0)" xlink:href="#aN"/><use transform="matrix(0.05,0,0,0.05,115.80000000000001,0)" xlink:href="#aR"/><use transform="matrix(0.05,0,0,0.05,125.80000000000001,0)" xlink:href="#aL"/></g><path fill="#333" d="M24-231v-30h32v30H24zM-9 49c24 4 33-6 33-30v-209h32V24c2 40-23 58-65 49V49" id="bm"/><g id="ai"><use transform="matrix(0.05,0,0,0.05,0,0)" xlink:href="#aI"/><use transform="matrix(0.05,0,0,0.05,10,0)" xlink:href="#bf"/><use transform="matrix(0.05,0,0,0.05,20,0)" xlink:href="#bm"/><use transform="matrix(0.05,0,0,0.05,23.95,0)" xlink:href="#aO"/><use transform="matrix(0.05,0,0,0.05,33.95,0)" xlink:href="#aY"/><use transform="matrix(0.05,0,0,0.05,42.95,0)" xlink:href="#aN"/></g><g id="aj"><use transform="matrix(0.05,0,0,0.05,0,0)" xlink:href="#aZ"/><use transform="matrix(0.05,0,0,0.05,10.5,0)" xlink:href="#aY"/><use transform="matrix(0.05,0,0,0.05,19.5,0)" xlink:href="#aR"/><use transform="matrix(0.05,0,0,0.05,29.5,0)" xlink:href="#aK"/><use transform="matrix(0.05,0,0,0.05,39.5,0)" xlink:href="#aR"/><use transform="matrix(0.05,0,0,0.05,49.5,0)" xlink:href="#aD"/><use transform="matrix(0.05,0,0,0.05,58.5,0)" xlink:href="#aN"/><use transform="matrix(0.05,0,0,0.05,63.5,0)" xlink:href="#aG"/><use transform="matrix(0.05,0,0,0.05,69.45,0)" xlink:href="#aR"/><use transform="matrix(0.05,0,0,0.05,79.45,0)" xlink:href="#aG"/><use transform="matrix(0.05,0,0,0.05,85.4,0)" xlink:href="#bk"/><use transform="matrix(0.05,0,0,0.05,97.4,0)" xlink:href="#aX"/><use transform="matrix(0.05,0,0,0.05,106.4,0)" xlink:href="#aO"/><use transform="matrix(0.05,0,0,0.05,116.4,0)" xlink:href="#aM"/><use transform="matrix(0.05,0,0,0.05,126.4,0)" xlink:href="#aN"/><use transform="matrix(0.05,0,0,0.05,131.4,0)" xlink:href="#aI"/><use transform="matrix(0.05,0,0,0.05,141.4,0)" xlink:href="#ba"/><use transform="matrix(0.05,0,0,0.05,147.35,0)" xlink:href="#bb"/></g><g id="ak"><use transform="matrix(0.05,0,0,0.05,0,0)" xlink:href="#aZ"/><use transform="matrix(0.05,0,0,0.05,10.5,0)" xlink:href="#aO"/><use transform="matrix(0.05,0,0,0.05,20.5,0)" xlink:href="#aK"/><use transform="matrix(0.05,0,0,0.05,30.5,0)" xlink:href="#aH"/><use transform="matrix(0.05,0,0,0.05,34.45,0)" xlink:href="#aN"/><use transform="matrix(0.05,0,0,0.05,39.45,0)" xlink:href="#aR"/><use transform="matrix(0.05,0,0,0.05,49.45,0)" xlink:href="#aG"/><use transform="matrix(0.05,0,0,0.05,55.400000000000006,0)" xlink:href="#bk"/><use transform="matrix(0.05,0,0,0.05,67.4,0)" xlink:href="#aX"/><use transform="matrix(0.05,0,0,0.05,76.4,0)" xlink:href="#aO"/><use transform="matrix(0.05,0,0,0.05,86.4,0)" xlink:href="#aM"/><use transform="matrix(0.05,0,0,0.05,96.4,0)" xlink:href="#aN"/><use transform="matrix(0.05,0,0,0.05,101.4,0)" xlink:href="#aI"/><use transform="matrix(0.05,0,0,0.05,111.4,0)" xlink:href="#ba"/><use transform="matrix(0.05,0,0,0.05,117.35000000000001,0)" xlink:href="#bb"/></g><g id="al"><use transform="matrix(0.05,0,0,0.05,0,0)" xlink:href="#aZ"/><use transform="matrix(0.05,0,0,0.05,10.5,0)" xlink:href="#aK"/><use transform="matrix(0.05,0,0,0.05,20.5,0)" xlink:href="#aO"/><use transform="matrix(0.05,0,0,0.05,30.5,0)" xlink:href="#aS"/><use transform="matrix(0.05,0,0,0.05,34.45,0)" xlink:href="#aO"/><use transform="matrix(0.05,0,0,0.05,44.45,0)" xlink:href="#aN"/><use transform="matrix(0.05,0,0,0.05,49.45,0)" xlink:href="#aR"/><use transform="matrix(0.05,0,0,0.05,59.45,0)" xlink:href="#aG"/><use transform="matrix(0.05,0,0,0.05,65.4,0)" xlink:href="#bk"/><use transform="matrix(0.05,0,0,0.05,77.4,0)" xlink:href="#aX"/><use transform="matrix(0.05,0,0,0.05,86.4,0)" xlink:href="#aO"/><use transform="matrix(0.05,0,0,0.05,96.4,0)" xlink:href="#aM"/><use transform="matrix(0.05,0,0,0.05,106.4,0)" xlink:href="#aN"/><use transform="matrix(0.05,0,0,0.05,111.4,0)" xlink:href="#aI"/><use transform="matrix(0.05,0,0,0.05,121.4,0)" xlink:href="#ba"/><use transform="matrix(0.05,0,0,0.05,127.35000000000001,0)" xlink:href="#bb"/></g><g id="am"><use transform="matrix(0.05,0,0,0.05,0,0)" xlink:href="#aZ"/><use transform="matrix(0.05,0,0,0.05,10.5,0)" xlink:href="#aI"/><use transform="matrix(0.05,0,0,0.05,20.5,0)" xlink:href="#bf"/><use transform="matrix(0.05,0,0,0.05,30.5,0)" xlink:href="#aN"/><use transform="matrix(0.05,0,0,0.05,35.5,0)" xlink:href="#aO"/><use transform="matrix(0.05,0,0,0.05,45.5,0)" xlink:href="#aG"/><use transform="matrix(0.05,0,0,0.05,51.45,0)" xlink:href="#bk"/><use transform="matrix(0.05,0,0,0.05,63.45,0)" xlink:href="#aX"/><use transform="matrix(0.05,0,0,0.05,72.45,0)" xlink:href="#aO"/><use transform="matrix(0.05,0,0,0.05,82.45,0)" xlink:href="#aM"/><use transform="matrix(0.05,0,0,0.05,92.45,0)" xlink:href="#aN"/><use transform="matrix(0.05,0,0,0.05,97.45,0)" xlink:href="#aI"/><use transform="matrix(0.05,0,0,0.05,107.45,0)" xlink:href="#ba"/><use transform="matrix(0.05,0,0,0.05,113.4,0)" xlink:href="#bb"/></g><g id="an"><use transform="matrix(0.05,0,0,0.05,0,0)" xlink:href="#aZ"/><use transform="matrix(0.05,0,0,0.05,10.5,0)" xlink:href="#aI"/><use transform="matrix(0.05,0,0,0.05,20.5,0)" xlink:href="#bf"/><use transform="matrix(0.05,0,0,0.05,30.5,0)" xlink:href="#aN"/><use transform="matrix(0.05,0,0,0.05,35.5,0)" xlink:href="#aO"/><use transform="matrix(0.05,0,0,0.05,45.5,0)" xlink:href="#aG"/><use transform="matrix(0.05,0,0,0.05,51.45,0)" xlink:href="#bg"/><use transform="matrix(0.05,0,0,0.05,61.45,0)" xlink:href="#aH"/><use transform="matrix(0.05,0,0,0.05,65.4,0)" xlink:href="#aD"/><use transform="matrix(0.05,0,0,0.05,74.4,0)" xlink:href="#aN"/><use transform="matrix(0.05,0,0,0.05,79.4,0)" xlink:href="#aR"/><use transform="matrix(0.05,0,0,0.05,89.4,0)" xlink:href="#bd"/><use transform="matrix(0.05,0,0,0.05,102.35000000000001,0)" xlink:href="#aO"/><use transform="matrix(0.05,0,0,0.05,112.35000000000001,0)" xlink:href="#bk"/><use transform="matrix(0.05,0,0,0.05,124.35000000000001,0)" xlink:href="#aX"/><use transform="matrix(0.05,0,0,0.05,133.35000000000002,0)" xlink:href="#aO"/><use transform="matrix(0.05,0,0,0.05,143.35000000000002,0)" xlink:href="#aM"/><use transform="matrix(0.05,0,0,0.05,153.35000000000002,0)" xlink:href="#aN"/><use transform="matrix(0.05,0,0,0.05,158.35000000000002,0)" xlink:href="#aI"/><use transform="matrix(0.05,0,0,0.05,168.35000000000002,0)" xlink:href="#aD"/><use transform="matrix(0.05,0,0,0.05,177.35000000000002,0)" xlink:href="#bd"/><use transform="matrix(0.05,0,0,0.05,190.3,0)" xlink:href="#aO"/><use transform="matrix(0.05,0,0,0.05,200.3,0)" xlink:href="#aC"/><use transform="matrix(0.05,0,0,0.05,213.25,0)" xlink:href="#aQ"/><use transform="matrix(0.05,0,0,0.05,228.19999999999996,0)" xlink:href="#bc"/><use transform="matrix(0.05,0,0,0.05,240.19999999999996,0)" xlink:href="#aI"/><use transform="matrix(0.05,0,0,0.05,250.19999999999996,0)" xlink:href="#aM"/><use transform="matrix(0.05,0,0,0.05,260.2,0)" xlink:href="#aN"/><use transform="matrix(0.05,0,0,0.05,265.2,0)" xlink:href="#aI"/><use transform="matrix(0.05,0,0,0.05,275.2,0)" xlink:href="#ba"/><use transform="matrix(0.05,0,0,0.05,281.15,0)" xlink:href="#bb"/></g><path d="M27 0v-27h64v-190l-56 39v-29l58-41h29v221h61V0H27" id="bn"/><use transform="matrix(0.05,0,0,0.05,0,0)" xlink:href="#bn" id="ao"/><path d="M101-251c68 0 85 55 85 127S166 4 100 4C33 4 14-52 14-124c0-73 17-127 87-127zm-1 229c47 0 54-49 54-102s-4-102-53-102c-51 0-55 48-55 102 0 53 5 102 54 102" id="bo"/><path d="M33 0v-38h34V0H33" id="bp"/><path d="M80-196l47-18 7 23-49 13 32 44-20 13-27-46-27 45-21-12 33-44-49-13 8-23 47 19-2-53h23" id="bq"/><g id="ap"><use transform="matrix(0.05,0,0,0.05,0,0)" xlink:href="#bo"/><use transform="matrix(0.05,0,0,0.05,10,0)" xlink:href="#bp"/><use transform="matrix(0.05,0,0,0.05,15,0)" xlink:href="#bp"/><use transform="matrix(0.05,0,0,0.05,20,0)" xlink:href="#bq"/></g><g id="aq"><use transform="matrix(0.05,0,0,0.05,0,0)" xlink:href="#bn"/><use transform="matrix(0.05,0,0,0.05,10,0)" xlink:href="#bp"/><use transform="matrix(0.05,0,0,0.05,15,0)" xlink:href="#bp"/><use transform="matrix(0.05,0,0,0.05,20,0)" xlink:href="#bq"/></g></defs></g></svg>