<svg xmlns="http://www.w3.org/2000/svg" xmlns:xlink="http://www.w3.org/1999/xlink" xmlns:lucid="lucid" width="1306.85" height="1384.26"><g transform="translate(0 0)" lucid:page-tab-id="0_0"><path d="M0 0h1306.85v1384.26H0z" fill="#fff"/><path d="M200 76c0-4.42 3.58-8 8-8h836.75c4.42 0 8 3.58 8 8v25.16c0 4.4-3.58 8-8 8H208c-4.42 0-8-3.6-8-8z" stroke="#000" stroke-opacity="0" stroke-width="2" fill="#fff" fill-opacity="0"/><use xlink:href="#a" transform="matrix(1,0,0,1,204,71.99999999994924) translate(87.7982716049383 25.782777777777778)"/><use xlink:href="#b" transform="matrix(1,0,0,1,204,71.99999999994924) translate(214.39333333333335 25.782777777777778)"/><use xlink:href="#c" transform="matrix(1,0,0,1,204,71.99999999994924) translate(332.101975308642 25.782777777777778)"/><use xlink:href="#d" transform="matrix(1,0,0,1,204,71.99999999994924) translate(541.4427160493826 25.782777777777778)"/><use xlink:href="#e" transform="matrix(1,0,0,1,204,71.99999999994924) translate(557.3945679012345 25.782777777777778)"/><use xlink:href="#f" transform="matrix(1,0,0,1,204,71.99999999994924) translate(654.780987654321 25.782777777777778)"/><path d="M375.5 107.8h505.85M375.5 107.8h-1M881.32 107.8h1.03" stroke="#a9afb8" stroke-width="2" fill="none"/><path d="M200 117.16c0-4.42 3.58-8 8-8h837.7c4.43 0 8 3.58 8 8V120c0 4.42-3.57 8-8 8H208c-4.42 0-8-3.58-8-8z" stroke="#000" stroke-opacity="0" stroke-width="2" fill="#fff" fill-opacity="0"/><use xlink:href="#g" transform="matrix(1,0,0,1,204.00000000000045,113.15522395684805) translate(273.17707818930046 14.917037037037037)"/><use xlink:href="#h" transform="matrix(1,0,0,1,204.00000000000045,113.15522395684805) translate(313.92471193415645 14.917037037037037)"/><use xlink:href="#i" transform="matrix(1,0,0,1,204.00000000000045,113.15522395684805) translate(396.3122633744856 14.917037037037037)"/><use xlink:href="#j" transform="matrix(1,0,0,1,204.00000000000045,113.15522395684805) translate(437.0598971193416 14.917037037037037)"/><use xlink:href="#k" transform="matrix(1,0,0,1,204.00000000000045,113.15522395684805) translate(449.5093827160494 14.917037037037037)"/><use xlink:href="#l" transform="matrix(1,0,0,1,204.00000000000045,113.15522395684805) translate(528.455267489712 14.917037037037037)"/><use xlink:href="#m" transform="matrix(1,0,0,1,204.00000000000045,113.15522395684805) translate(545.4511522633745 14.917037037037037)"/><path d="M313.43 248c0-4.42 3.58-8 8-8h264c4.42 0 8 3.58 8 8v120c0 4.42-3.58 8-8 8h-264c-4.42 0-8-3.58-8-8z" fill="#fff"/><path d="M313.43 248c0-4.42 3.58-8 8-8h264c4.42 0 8 3.58 8 8v120c0 4.42-3.58 8-8 8h-264c-4.42 0-8-3.58-8-8zM313.43 280h280M373.43 280v96M445.12 280v96" stroke="#333" fill="none"/><use xlink:href="#n" transform="matrix(1,0,0,1,323.4267236073283,240) translate(99.07499999999999 23.6)"/><use xlink:href="#o" transform="matrix(1,0,0,1,318.4267236073283,282.5) translate(13 17.1)"/><use xlink:href="#p" transform="matrix(1,0,0,1,378.4267236073283,282.5) translate(9.574999999999996 17.1)"/><use xlink:href="#q" transform="matrix(1,0,0,1,450.1206396670189,282.5) translate(47.55 17.1)"/><use xlink:href="#r" transform="matrix(1,0,0,1,378.4267236073283,314.5) translate(8.524999999999999 17.1)"/><use xlink:href="#q" transform="matrix(1,0,0,1,450.1206396670189,314.5) translate(47.55 17.1)"/><use xlink:href="#s" transform="matrix(1,0,0,1,378.4267236073283,346.5) translate(16.525 17.1)"/><use xlink:href="#t" transform="matrix(1,0,0,1,450.1206396670189,346.5) translate(7.249999999999993 17.1)"/><use xlink:href="#u" transform="matrix(1,0,0,1,450.1206396670189,346.5) translate(66.15 17.1)"/><use xlink:href="#v" transform="matrix(1,0,0,1,450.1206396670189,346.5) translate(75.80000000000001 17.1)"/><path d="M513.43 488c0-4.42 3.58-8 8-8h344c4.42 0 8 3.58 8 8v120c0 4.42-3.58 8-8 8h-344c-4.42 0-8-3.58-8-8z" fill="#fff"/><path d="M513.43 488c0-4.42 3.58-8 8-8h344c4.42 0 8 3.58 8 8v120c0 4.42-3.58 8-8 8h-344c-4.42 0-8-3.58-8-8zM513.43 520h360M593.7 520v96M723.43 520v96" stroke="#333" fill="none"/><use xlink:href="#w" transform="matrix(1,0,0,1,523.4267236073283,480) translate(141.075 23.6)"/><use xlink:href="#x" transform="matrix(1,0,0,1,518.4267236073283,522.5) translate(9.524999999999999 17.1)"/><use xlink:href="#y" transform="matrix(1,0,0,1,518.4267236073283,522.5) translate(38.525 17.1)"/><use xlink:href="#p" transform="matrix(1,0,0,1,598.6928157745501,522.5) translate(38.574999999999996 17.1)"/><use xlink:href="#q" transform="matrix(1,0,0,1,728.4267236073283,522.5) translate(48.05 17.1)"/><use xlink:href="#z" transform="matrix(1,0,0,1,598.6928157745501,554.5) translate(16.574999999999996 17.1)"/><use xlink:href="#q" transform="matrix(1,0,0,1,728.4267236073283,554.5) translate(48.05 17.1)"/><use xlink:href="#A" transform="matrix(1,0,0,1,518.4267236073283,586.5) translate(24.025 17.1)"/><use xlink:href="#B" transform="matrix(1,0,0,1,598.6928157745501,586.5) translate(28.025 17.1)"/><use xlink:href="#q" transform="matrix(1,0,0,1,728.4267236073283,586.5) translate(48.05 17.1)"/><path d="M93.43 668c0-4.42 3.58-8 8-8h184c4.42 0 8 3.58 8 8v56c0 4.42-3.58 8-8 8h-184c-4.42 0-8-3.58-8-8z" fill="#fff"/><path d="M93.43 668c0-4.42 3.58-8 8-8h184c4.42 0 8 3.58 8 8v56c0 4.42-3.58 8-8 8h-184c-4.42 0-8-3.58-8-8zM93.43 700h200M153.43 700v32M223.43 700v32" stroke="#333" fill="none"/><use xlink:href="#C" transform="matrix(1,0,0,1,103.42672360732831,660) translate(51.55 23.6)"/><use xlink:href="#o" transform="matrix(1,0,0,1,98.42672360732831,702.5) translate(13 17.1)"/><use xlink:href="#B" transform="matrix(1,0,0,1,158.4267236073283,702.5) translate(-1.9750000000000014 17.1)"/><use xlink:href="#q" transform="matrix(1,0,0,1,228.4267236073283,702.5) translate(8.05 17.1)"/><path d="M853.43 828c0-4.42 3.58-8 8-8h304c4.42 0 8 3.58 8 8v301c0 4.42-3.58 8-8 8h-304c-4.42 0-8-3.58-8-8z" fill="#fff"/><path d="M853.43 828c0-4.42 3.58-8 8-8h304c4.42 0 8 3.58 8 8v301c0 4.42-3.58 8-8 8h-304c-4.42 0-8-3.58-8-8zM853.43 860h320M913.43 860v277M1066.17 860v277" stroke="#333" fill="none"/><use xlink:href="#D" transform="matrix(1,0,0,1,863.4267236073283,820) translate(81.05 23.6)"/><use xlink:href="#E" transform="matrix(1,0,0,1,863.4267236073283,820) translate(142.05 23.6)"/><use xlink:href="#F" transform="matrix(1,0,0,1,863.4267236073283,820) translate(167.05 23.6)"/><use xlink:href="#o" transform="matrix(1,0,0,1,858.4267236073283,862.5) translate(13 17.1)"/><use xlink:href="#G" transform="matrix(1,0,0,1,918.4267236073283,862.5) translate(64.525 17.1)"/><use xlink:href="#q" transform="matrix(1,0,0,1,1071.1710913868199,862.5) translate(27.05 17.1)"/><use xlink:href="#A" transform="matrix(1,0,0,1,858.4267236073283,894.5) translate(13.524999999999999 17.1)"/><use xlink:href="#B" transform="matrix(1,0,0,1,918.4267236073283,894.5) translate(39.525 17.1)"/><use xlink:href="#q" transform="matrix(1,0,0,1,1071.1710913868199,894.5) translate(27.05 17.1)"/><use xlink:href="#H" transform="matrix(1,0,0,1,918.4267236073283,926.5) translate(57 17.1)"/><use xlink:href="#I" transform="matrix(1,0,0,1,1071.1710913868199,926.5) translate(18.549999999999997 17.1)"/><use xlink:href="#J" transform="matrix(1,0,0,1,918.4267236073283,958.5) translate(0 16.799999999999997)"/><use xlink:href="#K" transform="matrix(1,0,0,1,918.4267236073283,958.5) translate(65.9 16.799999999999997)"/><use xlink:href="#L" transform="matrix(1,0,0,1,918.4267236073283,958.5) translate(0 38.4)"/><use xlink:href="#M" transform="matrix(1,0,0,1,1071.1710913868199,958.5) translate(0 27.6)"/><use xlink:href="#N" transform="matrix(1,0,0,1,918.4267236073283,1011.5) translate(0 17.1)"/><use xlink:href="#M" transform="matrix(1,0,0,1,1071.1710913868199,1011.5) translate(0 17.1)"/><use xlink:href="#O" transform="matrix(1,0,0,1,918.4267236073283,1043.5) translate(0 17.1)"/><use xlink:href="#P" transform="matrix(1,0,0,1,1071.1710913868199,1043.5) translate(0 17.1)"/><use xlink:href="#Q" transform="matrix(1,0,0,1,918.4267236073283,1075.5) translate(0 17.1)"/><use xlink:href="#P" transform="matrix(1,0,0,1,1071.1710913868199,1075.5) translate(0 17.1)"/><use xlink:href="#R" transform="matrix(1,0,0,1,918.4267236073283,1107.5) translate(0 17.1)"/><use xlink:href="#P" transform="matrix(1,0,0,1,1071.1710913868199,1107.5) translate(0 17.1)"/><path d="M373.43 808c0-4.42 3.58-8 8-8h344c4.42 0 8 3.58 8 8v88c0 4.42-3.58 8-8 8h-344c-4.42 0-8-3.58-8-8z" fill="#fff"/><path d="M373.43 808c0-4.42 3.58-8 8-8h344c4.42 0 8 3.58 8 8v88c0 4.42-3.58 8-8 8h-344c-4.42 0-8-3.58-8-8zM373.43 840h360M453.82 840v64M630.4 840v64" stroke="#333" fill="none"/><use xlink:href="#S" transform="matrix(1,0,0,1,383.4267236073283,800) translate(71.65 23.6)"/><use xlink:href="#x" transform="matrix(1,0,0,1,378.4267236073283,842.5) translate(9.524999999999999 17.1)"/><use xlink:href="#y" transform="matrix(1,0,0,1,378.4267236073283,842.5) translate(38.525 17.1)"/><use xlink:href="#T" transform="matrix(1,0,0,1,458.8215197599775,842.5) translate(30.124999999999993 17.1)"/><use xlink:href="#q" transform="matrix(1,0,0,1,635.4110864951422,842.5) translate(25.05 17.1)"/><use xlink:href="#x" transform="matrix(1,0,0,1,378.4267236073283,874.5) translate(9.524999999999999 17.1)"/><use xlink:href="#y" transform="matrix(1,0,0,1,378.4267236073283,874.5) translate(38.525 17.1)"/><use xlink:href="#U" transform="matrix(1,0,0,1,458.8215197599775,874.5) translate(11.599999999999994 17.1)"/><use xlink:href="#q" transform="matrix(1,0,0,1,635.4110864951422,874.5) translate(25.05 17.1)"/><path d="M913.43 668c0-4.42 3.58-8 8-8h324c4.42 0 8 3.58 8 8v88c0 4.42-3.58 8-8 8h-324c-4.42 0-8-3.58-8-8z" fill="#fff"/><path d="M913.43 668c0-4.42 3.58-8 8-8h324c4.42 0 8 3.58 8 8v88c0 4.42-3.58 8-8 8h-324c-4.42 0-8-3.58-8-8zM913.43 700h340M988.9 700v64M1166.37 700v64" stroke="#333" fill="none"/><use xlink:href="#V" transform="matrix(1,0,0,1,923.4267236073283,660) translate(87.5 23.6)"/><use xlink:href="#E" transform="matrix(1,0,0,1,923.4267236073283,660) translate(148.5 23.6)"/><use xlink:href="#W" transform="matrix(1,0,0,1,923.4267236073283,660) translate(173.5 23.6)"/><use xlink:href="#x" transform="matrix(1,0,0,1,918.4267236073283,702.5) translate(7.024999999999999 17.1)"/><use xlink:href="#y" transform="matrix(1,0,0,1,918.4267236073283,702.5) translate(36.025 17.1)"/><use xlink:href="#U" transform="matrix(1,0,0,1,993.8893509899626,702.5) translate(12.099999999999994 17.1)"/><use xlink:href="#q" transform="matrix(1,0,0,1,1171.3728315613282,702.5) translate(17.05 17.1)"/><use xlink:href="#X" transform="matrix(1,0,0,1,993.8893509899626,734.5) translate(66.5 17.1)"/><use xlink:href="#I" transform="matrix(1,0,0,1,1171.3728315613282,734.5) translate(8.549999999999997 17.1)"/><path d="M113.43 1208c0-4.42 3.58-8 8-8h184c4.42 0 8 3.58 8 8v88c0 4.42-3.58 8-8 8h-184c-4.42 0-8-3.58-8-8z" fill="#fff"/><path d="M113.43 1208c0-4.42 3.58-8 8-8h184c4.42 0 8 3.58 8 8v88c0 4.42-3.58 8-8 8h-184c-4.42 0-8-3.58-8-8zM113.43 1240h200M173.43 1240v64M243.43 1240v64" stroke="#333" fill="none"/><use xlink:href="#Y" transform="matrix(1,0,0,1,123.42672360732831,1200) translate(37.05 23.6)"/><use xlink:href="#E" transform="matrix(1,0,0,1,123.42672360732831,1200) translate(80 23.6)"/><use xlink:href="#Z" transform="matrix(1,0,0,1,123.42672360732831,1200) translate(105 23.6)"/><use xlink:href="#o" transform="matrix(1,0,0,1,118.42672360732831,1242.5) translate(13 17.1)"/><use xlink:href="#G" transform="matrix(1,0,0,1,178.4267236073283,1242.5) translate(23.025 17.1)"/><use xlink:href="#aa" transform="matrix(1,0,0,1,248.4267236073283,1242.5) translate(-0.45000000000000284 17.1)"/><use xlink:href="#s" transform="matrix(1,0,0,1,178.4267236073283,1274.5) translate(15.525 17.1)"/><use xlink:href="#q" transform="matrix(1,0,0,1,248.4267236073283,1274.5) translate(8.05 17.1)"/><path d="M486.57 1208c0-4.42 3.58-8 8-8h344c4.42 0 8 3.58 8 8v88c0 4.42-3.58 8-8 8h-344c-4.42 0-8-3.58-8-8z" fill="#fff"/><path d="M486.57 1208c0-4.42 3.58-8 8-8h344c4.42 0 8 3.58 8 8v88c0 4.42-3.58 8-8 8h-344c-4.42 0-8-3.58-8-8zM486.57 1240h360M566.97 1240v64M743.56 1240v64" stroke="#333" fill="none"/><use xlink:href="#ab" transform="matrix(1,0,0,1,496.57327639267123,1200) translate(81.075 23.6)"/><use xlink:href="#x" transform="matrix(1,0,0,1,491.57327639267123,1242.5) translate(9.524999999999999 17.1)"/><use xlink:href="#y" transform="matrix(1,0,0,1,491.57327639267123,1242.5) translate(38.525 17.1)"/><use xlink:href="#ac" transform="matrix(1,0,0,1,571.9680725453204,1242.5) translate(28.1 17.1)"/><use xlink:href="#q" transform="matrix(1,0,0,1,748.5576392804851,1242.5) translate(25.05 17.1)"/><use xlink:href="#x" transform="matrix(1,0,0,1,491.57327639267123,1274.5) translate(9.524999999999999 17.1)"/><use xlink:href="#y" transform="matrix(1,0,0,1,491.57327639267123,1274.5) translate(38.525 17.1)"/><use xlink:href="#U" transform="matrix(1,0,0,1,571.9680725453204,1274.5) translate(11.599999999999994 17.1)"/><use xlink:href="#q" transform="matrix(1,0,0,1,748.5576392804851,1274.5) translate(25.05 17.1)"/><path d="M53.43 488c0-4.42 3.58-8 8-8h344c4.42 0 8 3.58 8 8v88c0 4.42-3.58 8-8 8h-344c-4.42 0-8-3.58-8-8z" fill="#fff"/><path d="M53.43 488c0-4.42 3.58-8 8-8h344c4.42 0 8 3.58 8 8v88c0 4.42-3.58 8-8 8h-344c-4.42 0-8-3.58-8-8zM53.43 520h360M133.82 520v64M310.4 520v64" stroke="#333" fill="none"/><use xlink:href="#ad" transform="matrix(1,0,0,1,63.42672360732831,480) translate(133.075 23.6)"/><use xlink:href="#x" transform="matrix(1,0,0,1,58.42672360732831,522.5) translate(9.524999999999999 17.1)"/><use xlink:href="#y" transform="matrix(1,0,0,1,58.42672360732831,522.5) translate(38.525 17.1)"/><use xlink:href="#T" transform="matrix(1,0,0,1,138.8215197599775,522.5) translate(30.124999999999993 17.1)"/><use xlink:href="#q" transform="matrix(1,0,0,1,315.4110864951422,522.5) translate(25.05 17.1)"/><use xlink:href="#x" transform="matrix(1,0,0,1,58.42672360732831,554.5) translate(9.524999999999999 17.1)"/><use xlink:href="#y" transform="matrix(1,0,0,1,58.42672360732831,554.5) translate(38.525 17.1)"/><use xlink:href="#U" transform="matrix(1,0,0,1,138.8215197599775,554.5) translate(11.599999999999994 17.1)"/><use xlink:href="#q" transform="matrix(1,0,0,1,315.4110864951422,554.5) translate(25.05 17.1)"/><path d="M613.93 328.07h67.5c6.62 0 12 5.37 12 12V460.1" stroke="#333" fill="none"/><path d="M603.93 338.07v-20M593.93 328.07h20M613.93 338.07v-20" stroke="#333" fill="#fff"/><path d="M683.43 479.28l10-20 10 20" stroke="#333" fill="#fff" fill-opacity="0"/><path d="M693.43 479.28v-20" stroke="#333" fill="#fff"/><path d="M693.43 635.9V696c0 6.63-5.38 12-12 12h-116c-6.63 0-12 5.37-12 12v60.1" stroke="#333" fill="none"/><path d="M703.43 616.72l-10 20-10-20" stroke="#333" fill="#fff" fill-opacity="0"/><path d="M693.43 616.72v20" stroke="#333" fill="#fff"/><path d="M543.43 799.28l10-20 10 20" stroke="#333" fill="#fff" fill-opacity="0"/><path d="M553.43 799.28v-20" stroke="#333" fill="#fff"/><path d="M753.34 856h28.1c6.6 0 12 5.38 12 12v56c0 6.64 5.36 12 12 12h28.07" stroke="#333" fill="none"/><path d="M734.15 846l20 10-20 10" stroke="#333" fill="#fff" fill-opacity="0"/><path d="M734.15 856h20" stroke="#333" fill="#fff"/><path d="M852.7 946l-20-10 20-10" stroke="#333" fill="#fff" fill-opacity="0"/><path d="M852.7 936h-20" stroke="#333" fill="#fff"/><path d="M493.5 600.14h-78.07c-6.63 0-12 5.38-12 12v55.78c0 6.63-5.38 12-12 12h-78.1" stroke="#333" fill="none"/><path d="M512.7 610.14l-20-10 20-10" stroke="#333" fill="#fff" fill-opacity="0"/><path d="M512.7 600.14h-20" stroke="#333" fill="#fff"/><path d="M294.15 669.92l20 10-20 10" stroke="#333" fill="#fff" fill-opacity="0"/><path d="M294.15 679.92h20" stroke="#333" fill="#fff"/><path d="M1013.43 799.5c0-4.14 3.35-7.5 7.5-7.5h44.4c4.48 0 8.1-3.62 8.1-8.1" stroke="#333" fill="none"/><path d="M1023.43 809.5h-20M1013.43 819.5v-20M1023.43 799.5h-20" stroke="#333" fill="#fff"/><path d="M1083.43 764.72l-10 20-10-20" stroke="#333" fill="#fff" fill-opacity="0"/><path d="M1073.43 764.72v20" stroke="#333" fill="#fff"/><path d="M666.57 1180.1c0-6.4 5.2-11.6 11.6-11.6h320.8c6.4 0 11.58-5.2 11.58-11.6" stroke="#333" fill="none"/><path d="M656.57 1199.28l10-20 10 20" stroke="#333" fill="#fff" fill-opacity="0"/><path d="M666.57 1199.28v-20" stroke="#333" fill="#fff"/><path d="M1020.55 1137.72l-10 20-10-20" stroke="#333" fill="#fff" fill-opacity="0"/><path d="M1010.55 1137.72v20" stroke="#333" fill="#fff"/><path d="M333.34 1256.02h133.32" stroke="#333" fill="none"/><path d="M314.15 1246.02l20 10-20 10" stroke="#333" fill="#fff" fill-opacity="0"/><path d="M314.15 1256.02h20" stroke="#333" fill="#fff"/><path d="M485.85 1266.02l-20-10 20-10" stroke="#333" fill="#fff" fill-opacity="0"/><path d="M485.85 1256.02h-20" stroke="#333" fill="#fff"/><path d="M233.43 460.1V307.95c0-6.63 5.37-12 12-12h48.08" stroke="#333" fill="none"/><path d="M223.43 479.28l10-20 10 20" stroke="#333" fill="#fff" fill-opacity="0"/><path d="M233.43 479.28v-20" stroke="#333" fill="#fff"/><path d="M312.7 305.96l-20-10 20-10" stroke="#333" fill="#fff" fill-opacity="0"/><path d="M312.7 295.96h-20" stroke="#333" fill="#fff"/><defs><path fill="#a9afb8" d="M24-248c120-7 223 5 221 122C244-46 201 0 124 0H24v-248zM76-40c74 7 117-18 117-86 0-67-45-88-117-82v168" id="ae"/><path fill="#a9afb8" d="M25-224v-37h50v37H25zM25 0v-190h50V0H25" id="af"/><path fill="#a9afb8" d="M133-34C117-15 103 5 69 4 32 3 11-16 11-54c-1-60 55-63 116-61 1-26-3-47-28-47-18 1-26 9-28 27l-52-2c7-38 36-58 82-57s74 22 75 68l1 82c-1 14 12 18 25 15v27c-30 8-71 5-69-32zm-48 3c29 0 43-24 42-57-32 0-66-3-65 30 0 17 8 27 23 27" id="ag"/><path fill="#a9afb8" d="M195-6C206 82 75 100 31 46c-4-6-6-13-8-21l49-6c3 16 16 24 34 25 40 0 42-37 40-79-11 22-30 35-61 35-53 0-70-43-70-97 0-56 18-96 73-97 30 0 46 14 59 34l2-30h47zm-90-29c32 0 41-27 41-63 0-35-9-62-40-62-32 0-39 29-40 63 0 36 9 62 39 62" id="ah"/><path fill="#a9afb8" d="M135-150c-39-12-60 13-60 57V0H25l-1-190h47c2 13-1 29 3 40 6-28 27-53 61-41v41" id="ai"/><path fill="#a9afb8" d="M220-157c-53 9-28 100-34 157h-49v-107c1-27-5-49-29-50C55-147 81-57 75 0H25l-1-190h47c2 12-1 28 3 38 10-53 101-56 108 0 13-22 24-43 59-42 82 1 51 116 57 194h-49v-107c-1-25-5-48-29-50" id="aj"/><g id="a"><use transform="matrix(0.0728395061728395,0,0,0.0728395061728395,0,0)" xlink:href="#ae"/><use transform="matrix(0.0728395061728395,0,0,0.0728395061728395,18.86543209876543,0)" xlink:href="#af"/><use transform="matrix(0.0728395061728395,0,0,0.0728395061728395,26.14938271604938,0)" xlink:href="#ag"/><use transform="matrix(0.0728395061728395,0,0,0.0728395061728395,40.717283950617286,0)" xlink:href="#ah"/><use transform="matrix(0.0728395061728395,0,0,0.0728395061728395,56.66913580246913,0)" xlink:href="#ai"/><use transform="matrix(0.0728395061728395,0,0,0.0728395061728395,66.86666666666666,0)" xlink:href="#ag"/><use transform="matrix(0.0728395061728395,0,0,0.0728395061728395,81.43456790123457,0)" xlink:href="#aj"/><use transform="matrix(0.0728395061728395,0,0,0.0728395061728395,104.7432098765432,0)" xlink:href="#ag"/></g><path fill="#a9afb8" d="M24 0v-248h195v40H76v63h132v40H76v65h150V0H24" id="ak"/><path fill="#a9afb8" d="M135-194c87-1 58 113 63 194h-50c-7-57 23-157-34-157-59 0-34 97-39 157H25l-1-190h47c2 12-1 28 3 38 12-26 28-41 61-42" id="al"/><path fill="#a9afb8" d="M115-3C79 11 28 4 28-45v-112H4v-33h27l15-45h31v45h36v33H77v99c-1 23 16 31 38 25v30" id="am"/><path fill="#a9afb8" d="M88-194c31-1 46 15 58 34l-1-101h50l1 261h-48c-2-10 0-23-3-31C134-8 116 4 84 4 32 4 16-41 15-95c0-56 19-97 73-99zm17 164c33 0 40-30 41-66 1-37-9-64-41-64s-38 30-39 65c0 43 13 65 39 65" id="an"/><path fill="#a9afb8" d="M185-48c-13 30-37 53-82 52C43 2 14-33 14-96s30-98 90-98c62 0 83 45 84 108H66c0 31 8 55 39 56 18 0 30-7 34-22zm-45-69c5-46-57-63-70-21-2 6-4 13-4 21h74" id="ao"/><g id="b"><use transform="matrix(0.0728395061728395,0,0,0.0728395061728395,0,0)" xlink:href="#ak"/><use transform="matrix(0.0728395061728395,0,0,0.0728395061728395,17.48148148148148,0)" xlink:href="#al"/><use transform="matrix(0.0728395061728395,0,0,0.0728395061728395,33.43333333333333,0)" xlink:href="#am"/><use transform="matrix(0.0728395061728395,0,0,0.0728395061728395,42.10123456790124,0)" xlink:href="#af"/><use transform="matrix(0.0728395061728395,0,0,0.0728395061728395,49.38518518518518,0)" xlink:href="#an"/><use transform="matrix(0.0728395061728395,0,0,0.0728395061728395,65.33703703703704,0)" xlink:href="#ag"/><use transform="matrix(0.0728395061728395,0,0,0.0728395061728395,79.90493827160493,0)" xlink:href="#an"/><use transform="matrix(0.0728395061728395,0,0,0.0728395061728395,95.85679012345679,0)" xlink:href="#ao"/></g><path fill="#a9afb8" d="M240-174c0 40-23 61-54 70L253 0h-59l-57-94H76V0H24v-248c93 4 217-23 216 74zM76-134c48-2 112 12 112-38 0-48-66-32-112-35v73" id="ap"/><path fill="#a9afb8" d="M25 0v-261h50V0H25" id="aq"/><path fill="#a9afb8" d="M190-63c-7 42-38 67-86 67-59 0-84-38-90-98-12-110 154-137 174-36l-49 2c-2-19-15-32-35-32-30 0-35 28-38 64-6 74 65 87 74 30" id="ar"/><path fill="#a9afb8" d="M110-194c64 0 96 36 96 99 0 64-35 99-97 99-61 0-95-36-95-99 0-62 34-99 96-99zm-1 164c35 0 45-28 45-65 0-40-10-65-43-65-34 0-45 26-45 65 0 36 10 65 43 65" id="as"/><g id="c"><use transform="matrix(0.0728395061728395,0,0,0.0728395061728395,0,0)" xlink:href="#ap"/><use transform="matrix(0.0728395061728395,0,0,0.0728395061728395,18.86543209876543,0)" xlink:href="#ao"/><use transform="matrix(0.0728395061728395,0,0,0.0728395061728395,33.43333333333333,0)" xlink:href="#aq"/><use transform="matrix(0.0728395061728395,0,0,0.0728395061728395,40.717283950617286,0)" xlink:href="#ag"/><use transform="matrix(0.0728395061728395,0,0,0.0728395061728395,55.28518518518518,0)" xlink:href="#ar"/><use transform="matrix(0.0728395061728395,0,0,0.0728395061728395,69.85308641975308,0)" xlink:href="#af"/><use transform="matrix(0.0728395061728395,0,0,0.0728395061728395,77.13703703703703,0)" xlink:href="#as"/><use transform="matrix(0.0728395061728395,0,0,0.0728395061728395,93.08888888888889,0)" xlink:href="#al"/><use transform="matrix(0.0728395061728395,0,0,0.0728395061728395,109.04074074074074,0)" xlink:href="#ag"/><use transform="matrix(0.0728395061728395,0,0,0.0728395061728395,123.60864197530864,0)" xlink:href="#aj"/><use transform="matrix(0.0728395061728395,0,0,0.0728395061728395,146.91728395061727,0)" xlink:href="#ao"/><use transform="matrix(0.0728395061728395,0,0,0.0728395061728395,161.48518518518517,0)" xlink:href="#al"/><use transform="matrix(0.0728395061728395,0,0,0.0728395061728395,177.437037037037,0)" xlink:href="#am"/><use transform="matrix(0.0728395061728395,0,0,0.0728395061728395,186.1049382716049,0)" xlink:href="#as"/></g><path fill="#a9afb8" d="M14-72v-43h91v43H14" id="at"/><use transform="matrix(0.0728395061728395,0,0,0.0728395061728395,0,0)" xlink:href="#at" id="d"/><path fill="#a9afb8" d="M24-248c93 1 206-16 204 79-1 75-69 88-152 82V0H24v-248zm52 121c47 0 100 7 100-41 0-47-54-39-100-39v80" id="au"/><path fill="#a9afb8" d="M25-224v-37h50v37H25zM75 22c2 45-34 59-81 51V38c22 5 31-5 31-27v-201h50V22" id="av"/><g id="e"><use transform="matrix(0.0728395061728395,0,0,0.0728395061728395,0,0)" xlink:href="#au"/><use transform="matrix(0.0728395061728395,0,0,0.0728395061728395,17.48148148148148,0)" xlink:href="#ai"/><use transform="matrix(0.0728395061728395,0,0,0.0728395061728395,27.679012345679013,0)" xlink:href="#as"/><use transform="matrix(0.0728395061728395,0,0,0.0728395061728395,43.63086419753086,0)" xlink:href="#av"/><use transform="matrix(0.0728395061728395,0,0,0.0728395061728395,50.91481481481481,0)" xlink:href="#ao"/><use transform="matrix(0.0728395061728395,0,0,0.0728395061728395,65.48271604938272,0)" xlink:href="#am"/><use transform="matrix(0.0728395061728395,0,0,0.0728395061728395,74.15061728395062,0)" xlink:href="#as"/></g><path fill="#a9afb8" d="M190-63c-7 42-38 67-86 67-59 0-84-38-90-98-12-110 154-137 174-36l-49 2c-2-19-15-32-35-32-30 0-35 28-38 64-6 74 65 87 74 30zm-84 77c20 1 33 9 33 27 0 32-36 36-71 33V53c15 1 39 4 39-11 0-13-16-12-31-12L87 0h25" id="aw"/><path fill="#a9afb8" d="M110-194c64 0 96 36 96 99 0 64-35 99-97 99-61 0-95-36-95-99 0-62 34-99 96-99zm-1 164c35 0 45-28 45-65 0-40-10-65-43-65-34 0-45 26-45 65 0 36 10 65 43 65zm70-229c-2 27-9 52-40 51-27-1-66-46-73 0H42c0-29 9-51 39-51 28 0 66 44 74 0h24" id="ax"/><path fill="#a9afb8" d="M137-138c1-29-70-34-71-4 15 46 118 7 119 86 1 83-164 76-172 9l43-7c4 19 20 25 44 25 33 8 57-30 24-41C81-84 22-81 20-136c-2-80 154-74 161-7" id="ay"/><g id="f"><use transform="matrix(0.0728395061728395,0,0,0.0728395061728395,0,0)" xlink:href="#ae"/><use transform="matrix(0.0728395061728395,0,0,0.0728395061728395,18.86543209876543,0)" xlink:href="#as"/><use transform="matrix(0.0728395061728395,0,0,0.0728395061728395,34.81728395061728,0)" xlink:href="#ag"/><use transform="matrix(0.0728395061728395,0,0,0.0728395061728395,49.38518518518518,0)" xlink:href="#aw"/><use transform="matrix(0.0728395061728395,0,0,0.0728395061728395,63.95308641975308,0)" xlink:href="#ax"/><use transform="matrix(0.0728395061728395,0,0,0.0728395061728395,79.90493827160493,0)" xlink:href="#ao"/><use transform="matrix(0.0728395061728395,0,0,0.0728395061728395,94.47283950617283,0)" xlink:href="#ay"/></g><path fill="#a9afb8" d="M233-177c-1 41-23 64-60 70L243 0h-38l-65-103H63V0H30v-248c88 3 205-21 203 71zM63-129c60-2 137 13 137-47 0-61-80-42-137-45v92" id="az"/><path fill="#a9afb8" d="M100-194c63 0 86 42 84 106H49c0 40 14 67 53 68 26 1 43-12 49-29l28 8c-11 28-37 45-77 45C44 4 14-33 15-96c1-61 26-98 85-98zm52 81c6-60-76-77-97-28-3 7-6 17-6 28h103" id="aA"/><path fill="#a9afb8" d="M117-194c89-4 53 116 60 194h-32v-121c0-31-8-49-39-48C34-167 62-67 57 0H25l-1-190h30c1 10-1 24 2 32 11-22 29-35 61-36" id="aB"/><path fill="#a9afb8" d="M100-194c63 0 86 42 84 106H49c0 40 14 67 53 68 26 1 43-12 49-29l28 8c-11 28-37 45-77 45C44 4 14-33 15-96c1-61 26-98 85-98zm52 81c6-60-76-77-97-28-3 7-6 17-6 28h103zm-32-149c12 18 30 30 39 51-31 2-38-20-57-30-20 10-27 32-59 30 9-22 29-33 41-51h36" id="aC"/><g id="g"><use transform="matrix(0.04248971193415638,0,0,0.04248971193415638,0,0)" xlink:href="#az"/><use transform="matrix(0.04248971193415638,0,0,0.04248971193415638,11.004835390946502,0)" xlink:href="#aA"/><use transform="matrix(0.04248971193415638,0,0,0.04248971193415638,19.502777777777776,0)" xlink:href="#aB"/><use transform="matrix(0.04248971193415638,0,0,0.04248971193415638,28.000720164609046,0)" xlink:href="#aC"/></g><path fill="#a9afb8" d="M160-131c35 5 61 23 61 61C221 17 115-2 30 0v-248c76 3 177-17 177 60 0 33-19 50-47 57zm-97-11c50-1 110 9 110-42 0-47-63-36-110-37v79zm0 115c55-2 124 14 124-45 0-56-70-42-124-44v89" id="aD"/><path fill="#a9afb8" d="M100-194c62-1 85 37 85 99 1 63-27 99-86 99S16-35 15-95c0-66 28-99 85-99zM99-20c44 1 53-31 53-75 0-43-8-75-51-75s-53 32-53 75 10 74 51 75" id="aE"/><path fill="#a9afb8" d="M141-36C126-15 110 5 73 4 37 3 15-17 15-53c-1-64 63-63 125-63 3-35-9-54-41-54-24 1-41 7-42 31l-33-3c5-37 33-52 76-52 45 0 72 20 72 64v82c-1 20 7 32 28 27v20c-31 9-61-2-59-35zM48-53c0 20 12 33 32 33 41-3 63-29 60-74-43 2-92-5-92 41" id="aF"/><path fill="#a9afb8" d="M108 0H70L1-190h34L89-25l56-165h34" id="aG"/><path fill="#a9afb8" d="M59-47c-2 24 18 29 38 22v24C64 9 27 4 27-40v-127H5v-23h24l9-43h21v43h35v23H59v120" id="aH"/><path fill="#a9afb8" d="M84 4C-5 8 30-112 23-190h32v120c0 31 7 50 39 49 72-2 45-101 50-169h31l1 190h-30c-1-10 1-25-2-33-11 22-28 36-60 37" id="aI"/><path fill="#a9afb8" d="M114-163C36-179 61-72 57 0H25l-1-190h30c1 12-1 29 2 39 6-27 23-49 58-41v29" id="aJ"/><g id="h"><use transform="matrix(0.04248971193415638,0,0,0.04248971193415638,0,0)" xlink:href="#aD"/><use transform="matrix(0.04248971193415638,0,0,0.04248971193415638,10.19753086419753,0)" xlink:href="#aE"/><use transform="matrix(0.04248971193415638,0,0,0.04248971193415638,18.695473251028805,0)" xlink:href="#aF"/><use transform="matrix(0.04248971193415638,0,0,0.04248971193415638,27.193415637860078,0)" xlink:href="#aG"/><use transform="matrix(0.04248971193415638,0,0,0.04248971193415638,34.84156378600822,0)" xlink:href="#aA"/><use transform="matrix(0.04248971193415638,0,0,0.04248971193415638,43.3395061728395,0)" xlink:href="#aB"/><use transform="matrix(0.04248971193415638,0,0,0.04248971193415638,51.83744855967078,0)" xlink:href="#aH"/><use transform="matrix(0.04248971193415638,0,0,0.04248971193415638,56.08641975308641,0)" xlink:href="#aI"/><use transform="matrix(0.04248971193415638,0,0,0.04248971193415638,64.58436213991769,0)" xlink:href="#aJ"/><use transform="matrix(0.04248971193415638,0,0,0.04248971193415638,69.6406378600823,0)" xlink:href="#aF"/></g><path fill="#a9afb8" d="M190 0L58-211 59 0H30v-248h39L202-35l-2-213h31V0h-41" id="aK"/><g id="i"><use transform="matrix(0.04248971193415638,0,0,0.04248971193415638,0,0)" xlink:href="#aK"/><use transform="matrix(0.04248971193415638,0,0,0.04248971193415638,11.004835390946502,0)" xlink:href="#aA"/><use transform="matrix(0.04248971193415638,0,0,0.04248971193415638,19.502777777777776,0)" xlink:href="#aH"/><use transform="matrix(0.04248971193415638,0,0,0.04248971193415638,23.751748971193415,0)" xlink:href="#aE"/></g><path fill="#a9afb8" d="M32 76v-337h29V76H32" id="aL"/><use transform="matrix(0.04248971193415638,0,0,0.04248971193415638,0,0)" xlink:href="#aL" id="j"/><path fill="#a9afb8" d="M185-189c-5-48-123-54-124 2 14 75 158 14 163 119 3 78-121 87-175 55-17-10-28-26-33-46l33-7c5 56 141 63 141-1 0-78-155-14-162-118-5-82 145-84 179-34 5 7 8 16 11 25" id="aM"/><path fill="#a9afb8" d="M115-194c55 1 70 41 70 98S169 2 115 4C84 4 66-9 55-30l1 105H24l-1-265h31l2 30c10-21 28-34 59-34zm-8 174c40 0 45-34 45-75s-6-73-45-74c-42 0-51 32-51 76 0 43 10 73 51 73" id="aN"/><path fill="#a9afb8" d="M210-169c-67 3-38 105-44 169h-31v-121c0-29-5-50-35-48C34-165 62-65 56 0H25l-1-190h30c1 10-1 24 2 32 10-44 99-50 107 0 11-21 27-35 58-36 85-2 47 119 55 194h-31v-121c0-29-5-49-35-48" id="aO"/><path fill="#a9afb8" d="M115-194c53 0 69 39 70 98 0 66-23 100-70 100C84 3 66-7 56-30L54 0H23l1-261h32v101c10-23 28-34 59-34zm-8 174c40 0 45-34 45-75 0-40-5-75-45-74-42 0-51 32-51 76 0 43 10 73 51 73" id="aP"/><g id="k"><use transform="matrix(0.04248971193415638,0,0,0.04248971193415638,0,0)" xlink:href="#aM"/><use transform="matrix(0.04248971193415638,0,0,0.04248971193415638,10.19753086419753,0)" xlink:href="#aA"/><use transform="matrix(0.04248971193415638,0,0,0.04248971193415638,18.695473251028805,0)" xlink:href="#aN"/><use transform="matrix(0.04248971193415638,0,0,0.04248971193415638,27.193415637860078,0)" xlink:href="#aH"/><use transform="matrix(0.04248971193415638,0,0,0.04248971193415638,31.442386831275712,0)" xlink:href="#aA"/><use transform="matrix(0.04248971193415638,0,0,0.04248971193415638,39.94032921810699,0)" xlink:href="#aO"/><use transform="matrix(0.04248971193415638,0,0,0.04248971193415638,52.64475308641975,0)" xlink:href="#aP"/><use transform="matrix(0.04248971193415638,0,0,0.04248971193415638,61.142695473251024,0)" xlink:href="#aA"/><use transform="matrix(0.04248971193415638,0,0,0.04248971193415638,69.6406378600823,0)" xlink:href="#aJ"/></g><path fill="#a9afb8" d="M155-56V0h-30v-56H8v-25l114-167h33v167h35v25h-35zm-30-156c-27 46-58 90-88 131h88v-131" id="aQ"/><path fill="#a9afb8" d="M68-38c1 34 0 65-14 84H32c9-13 17-26 17-46H33v-38h35" id="aR"/><g id="l"><use transform="matrix(0.04248971193415638,0,0,0.04248971193415638,0,0)" xlink:href="#aQ"/><use transform="matrix(0.04248971193415638,0,0,0.04248971193415638,8.497942386831275,0)" xlink:href="#aR"/></g><path fill="#a9afb8" d="M101-251c82-7 93 87 43 132L82-64C71-53 59-42 53-27h129V0H18c2-99 128-94 128-182 0-28-16-43-45-43s-46 15-49 41l-32-3c6-41 34-60 81-64" id="aS"/><path fill="#a9afb8" d="M101-251c68 0 85 55 85 127S166 4 100 4C33 4 14-52 14-124c0-73 17-127 87-127zm-1 229c47 0 54-49 54-102s-4-102-53-102c-51 0-55 48-55 102 0 53 5 102 54 102" id="aT"/><path fill="#a9afb8" d="M27 0v-27h64v-190l-56 39v-29l58-41h29v221h61V0H27" id="aU"/><g id="m"><use transform="matrix(0.04248971193415638,0,0,0.04248971193415638,0,0)" xlink:href="#aS"/><use transform="matrix(0.04248971193415638,0,0,0.04248971193415638,8.497942386831275,0)" xlink:href="#aT"/><use transform="matrix(0.04248971193415638,0,0,0.04248971193415638,16.99588477366255,0)" xlink:href="#aS"/><use transform="matrix(0.04248971193415638,0,0,0.04248971193415638,25.493827160493822,0)" xlink:href="#aU"/></g><path fill="#333" d="M232-93c-1 65-40 97-104 97C67 4 28-28 28-90v-158h33c8 89-33 224 67 224 102 0 64-133 71-224h33v155" id="aV"/><path fill="#333" d="M135-143c-3-34-86-38-87 0 15 53 115 12 119 90S17 21 10-45l28-5c4 36 97 45 98 0-10-56-113-15-118-90-4-57 82-63 122-42 12 7 21 19 24 35" id="aW"/><path fill="#333" d="M84 4C-5 8 30-112 23-190h32v120c0 31 7 50 39 49 72-2 45-101 50-169h31l1 190h-30c-1-10 1-25-2-33-11 22-28 36-60 37" id="aX"/><path fill="#333" d="M141-36C126-15 110 5 73 4 37 3 15-17 15-53c-1-64 63-63 125-63 3-35-9-54-41-54-24 1-41 7-42 31l-33-3c5-37 33-52 76-52 45 0 72 20 72 64v82c-1 20 7 32 28 27v20c-31 9-61-2-59-35zM48-53c0 20 12 33 32 33 41-3 63-29 60-74-43 2-92-5-92 41zm25-158c8-23 27-35 38-54h36v5l-58 49H73" id="aY"/><path fill="#333" d="M114-163C36-179 61-72 57 0H25l-1-190h30c1 12-1 29 2 39 6-27 23-49 58-41v29" id="aZ"/><path fill="#333" d="M24-231v-30h32v30H24zM24 0v-190h32V0H24" id="ba"/><path fill="#333" d="M100-194c62-1 85 37 85 99 1 63-27 99-86 99S16-35 15-95c0-66 28-99 85-99zM99-20c44 1 53-31 53-75 0-43-8-75-51-75s-53 32-53 75 10 74 51 75" id="bb"/><g id="n"><use transform="matrix(0.05,0,0,0.05,0,0)" xlink:href="#aV"/><use transform="matrix(0.05,0,0,0.05,12.950000000000001,0)" xlink:href="#aW"/><use transform="matrix(0.05,0,0,0.05,21.950000000000003,0)" xlink:href="#aX"/><use transform="matrix(0.05,0,0,0.05,31.950000000000003,0)" xlink:href="#aY"/><use transform="matrix(0.05,0,0,0.05,41.95,0)" xlink:href="#aZ"/><use transform="matrix(0.05,0,0,0.05,47.900000000000006,0)" xlink:href="#ba"/><use transform="matrix(0.05,0,0,0.05,51.85,0)" xlink:href="#bb"/></g><path fill="#333" d="M30-248c87 1 191-15 191 75 0 78-77 80-158 76V0H30v-248zm33 125c57 0 124 11 124-50 0-59-68-47-124-48v98" id="bc"/><path fill="#333" d="M194 0L95-120 63-95V0H30v-248h33v124l119-124h40L117-140 236 0h-42" id="bd"/><g id="o"><use transform="matrix(0.05,0,0,0.05,0,0)" xlink:href="#bc"/><use transform="matrix(0.05,0,0,0.05,12,0)" xlink:href="#bd"/></g><path fill="#333" d="M100-194c63 0 86 42 84 106H49c0 40 14 67 53 68 26 1 43-12 49-29l28 8c-11 28-37 45-77 45C44 4 14-33 15-96c1-61 26-98 85-98zm52 81c6-60-76-77-97-28-3 7-6 17-6 28h103" id="be"/><path fill="#333" d="M210-169c-67 3-38 105-44 169h-31v-121c0-29-5-50-35-48C34-165 62-65 56 0H25l-1-190h30c1 10-1 24 2 32 10-44 99-50 107 0 11-21 27-35 58-36 85-2 47 119 55 194h-31v-121c0-29-5-49-35-48" id="bf"/><path fill="#333" d="M141-36C126-15 110 5 73 4 37 3 15-17 15-53c-1-64 63-63 125-63 3-35-9-54-41-54-24 1-41 7-42 31l-33-3c5-37 33-52 76-52 45 0 72 20 72 64v82c-1 20 7 32 28 27v20c-31 9-61-2-59-35zM48-53c0 20 12 33 32 33 41-3 63-29 60-74-43 2-92-5-92 41" id="bg"/><path fill="#333" d="M24 0v-261h32V0H24" id="bh"/><g id="p"><use transform="matrix(0.05,0,0,0.05,0,0)" xlink:href="#be"/><use transform="matrix(0.05,0,0,0.05,10,0)" xlink:href="#bf"/><use transform="matrix(0.05,0,0,0.05,24.950000000000003,0)" xlink:href="#bg"/><use transform="matrix(0.05,0,0,0.05,34.95,0)" xlink:href="#ba"/><use transform="matrix(0.05,0,0,0.05,38.900000000000006,0)" xlink:href="#bh"/></g><path fill="#333" d="M59-47c-2 24 18 29 38 22v24C64 9 27 4 27-40v-127H5v-23h24l9-43h21v43h35v23H59v120" id="bi"/><path fill="#333" d="M117-194c89-4 53 116 60 194h-32v-121c0-31-8-49-39-48C34-167 62-67 57 0H25l-1-190h30c1 10-1 24 2 32 11-22 29-35 61-36" id="bj"/><path fill="#333" d="M177-190C167-65 218 103 67 71c-23-6-38-20-44-43l32-5c15 47 100 32 89-28v-30C133-14 115 1 83 1 29 1 15-40 15-95c0-56 16-97 71-98 29-1 48 16 59 35 1-10 0-23 2-32h30zM94-22c36 0 50-32 50-73 0-42-14-75-50-75-39 0-46 34-46 75s6 73 46 73" id="bk"/><g id="q"><use transform="matrix(0.05,0,0,0.05,0,0)" xlink:href="#aW"/><use transform="matrix(0.05,0,0,0.05,9,0)" xlink:href="#bi"/><use transform="matrix(0.05,0,0,0.05,14,0)" xlink:href="#aZ"/><use transform="matrix(0.05,0,0,0.05,19.95,0)" xlink:href="#ba"/><use transform="matrix(0.05,0,0,0.05,23.9,0)" xlink:href="#bj"/><use transform="matrix(0.05,0,0,0.05,33.9,0)" xlink:href="#bk"/></g><g id="r"><use transform="matrix(0.05,0,0,0.05,0,0)" xlink:href="#bj"/><use transform="matrix(0.05,0,0,0.05,10,0)" xlink:href="#bb"/><use transform="matrix(0.05,0,0,0.05,20,0)" xlink:href="#bf"/><use transform="matrix(0.05,0,0,0.05,34.95,0)" xlink:href="#be"/></g><path fill="#333" d="M115-194c55 1 70 41 70 98S169 2 115 4C84 4 66-9 55-30l1 105H24l-1-265h31l2 30c10-21 28-34 59-34zm-8 174c40 0 45-34 45-75s-6-73-45-74c-42 0-51 32-51 76 0 43 10 73 51 73" id="bl"/><g id="s"><use transform="matrix(0.05,0,0,0.05,0,0)" xlink:href="#bi"/><use transform="matrix(0.05,0,0,0.05,5,0)" xlink:href="#ba"/><use transform="matrix(0.05,0,0,0.05,8.95,0)" xlink:href="#bl"/><use transform="matrix(0.05,0,0,0.05,18.95,0)" xlink:href="#bb"/></g><path fill="#333" d="M96-169c-40 0-48 33-48 73s9 75 48 75c24 0 41-14 43-38l32 2c-6 37-31 61-74 61-59 0-76-41-82-99-10-93 101-131 147-64 4 7 5 14 7 22l-32 3c-4-21-16-35-41-35" id="bm"/><g id="t"><use transform="matrix(0.05,0,0,0.05,0,0)" xlink:href="#bm"/><use transform="matrix(0.05,0,0,0.05,9,0)" xlink:href="#bb"/><use transform="matrix(0.05,0,0,0.05,19,0)" xlink:href="#bh"/><use transform="matrix(0.05,0,0,0.05,22.95,0)" xlink:href="#be"/><use transform="matrix(0.05,0,0,0.05,32.95,0)" xlink:href="#bi"/><use transform="matrix(0.05,0,0,0.05,37.95,0)" xlink:href="#bb"/><use transform="matrix(0.05,0,0,0.05,47.95,0)" xlink:href="#aZ"/></g><path fill="#333" d="M32 76v-337h29V76H32" id="bn"/><use transform="matrix(0.05,0,0,0.05,0,0)" xlink:href="#bn" id="u"/><path fill="#333" d="M85-194c31 0 48 13 60 33l-1-100h32l1 261h-30c-2-10 0-23-3-31C134-8 116 4 85 4 32 4 16-35 15-94c0-66 23-100 70-100zm9 24c-40 0-46 34-46 75 0 40 6 74 45 74 42 0 51-32 51-76 0-42-9-74-50-73" id="bo"/><g id="v"><use transform="matrix(0.05,0,0,0.05,0,0)" xlink:href="#bo"/><use transform="matrix(0.05,0,0,0.05,10,0)" xlink:href="#bb"/><use transform="matrix(0.05,0,0,0.05,20,0)" xlink:href="#bg"/><use transform="matrix(0.05,0,0,0.05,30,0)" xlink:href="#bo"/><use transform="matrix(0.05,0,0,0.05,40,0)" xlink:href="#bb"/><use transform="matrix(0.05,0,0,0.05,50,0)" xlink:href="#aZ"/></g><path fill="#333" d="M212-179c-10-28-35-45-73-45-59 0-87 40-87 99 0 60 29 101 89 101 43 0 62-24 78-52l27 14C228-24 195 4 139 4 59 4 22-46 18-125c-6-104 99-153 187-111 19 9 31 26 39 46" id="bp"/><g id="w"><use transform="matrix(0.05,0,0,0.05,0,0)" xlink:href="#bp"/><use transform="matrix(0.05,0,0,0.05,12.950000000000001,0)" xlink:href="#bb"/><use transform="matrix(0.05,0,0,0.05,22.950000000000003,0)" xlink:href="#bh"/><use transform="matrix(0.05,0,0,0.05,26.900000000000002,0)" xlink:href="#be"/><use transform="matrix(0.05,0,0,0.05,36.900000000000006,0)" xlink:href="#bi"/><use transform="matrix(0.05,0,0,0.05,41.900000000000006,0)" xlink:href="#bb"/><use transform="matrix(0.05,0,0,0.05,51.900000000000006,0)" xlink:href="#aZ"/></g><g id="x"><use transform="matrix(0.05,0,0,0.05,0,0)" xlink:href="#bc"/><use transform="matrix(0.05,0,0,0.05,12,0)" xlink:href="#bd"/></g><path fill="#333" d="M63-220v92h138v28H63V0H30v-248h175v28H63" id="bq"/><g id="y"><use transform="matrix(0.05,0,0,0.05,0,0)" xlink:href="#bq"/><use transform="matrix(0.05,0,0,0.05,10.950000000000001,0)" xlink:href="#bd"/></g><g id="z"><use transform="matrix(0.05,0,0,0.05,0,0)" xlink:href="#bo"/><use transform="matrix(0.05,0,0,0.05,10,0)" xlink:href="#be"/><use transform="matrix(0.05,0,0,0.05,20,0)" xlink:href="#aW"/><use transform="matrix(0.05,0,0,0.05,29,0)" xlink:href="#bm"/><use transform="matrix(0.05,0,0,0.05,38,0)" xlink:href="#aZ"/><use transform="matrix(0.05,0,0,0.05,43.95,0)" xlink:href="#ba"/><use transform="matrix(0.05,0,0,0.05,47.900000000000006,0)" xlink:href="#bl"/><use transform="matrix(0.05,0,0,0.05,57.900000000000006,0)" xlink:href="#bi"/><use transform="matrix(0.05,0,0,0.05,62.900000000000006,0)" xlink:href="#ba"/><use transform="matrix(0.05,0,0,0.05,66.85000000000001,0)" xlink:href="#bb"/><use transform="matrix(0.05,0,0,0.05,76.85000000000001,0)" xlink:href="#bj"/></g><g id="A"><use transform="matrix(0.05,0,0,0.05,0,0)" xlink:href="#bq"/><use transform="matrix(0.05,0,0,0.05,10.950000000000001,0)" xlink:href="#bd"/></g><path fill="#333" d="M101-234c-31-9-42 10-38 44h38v23H63V0H32v-167H5v-23h27c-7-52 17-82 69-68v24" id="br"/><g id="B"><use transform="matrix(0.05,0,0,0.05,0,0)" xlink:href="#bi"/><use transform="matrix(0.05,0,0,0.05,5,0)" xlink:href="#be"/><use transform="matrix(0.05,0,0,0.05,15,0)" xlink:href="#bh"/><use transform="matrix(0.05,0,0,0.05,18.95,0)" xlink:href="#be"/><use transform="matrix(0.05,0,0,0.05,28.950000000000003,0)" xlink:href="#br"/><use transform="matrix(0.05,0,0,0.05,33.95,0)" xlink:href="#bb"/><use transform="matrix(0.05,0,0,0.05,43.95,0)" xlink:href="#bj"/><use transform="matrix(0.05,0,0,0.05,53.95,0)" xlink:href="#be"/></g><path fill="#333" d="M127-220V0H93v-220H8v-28h204v28h-85" id="bs"/><g id="C"><use transform="matrix(0.05,0,0,0.05,0,0)" xlink:href="#bs"/><use transform="matrix(0.05,0,0,0.05,8.950000000000001,0)" xlink:href="#be"/><use transform="matrix(0.05,0,0,0.05,18.950000000000003,0)" xlink:href="#bh"/><use transform="matrix(0.05,0,0,0.05,22.900000000000002,0)" xlink:href="#be"/><use transform="matrix(0.05,0,0,0.05,32.900000000000006,0)" xlink:href="#br"/><use transform="matrix(0.05,0,0,0.05,37.900000000000006,0)" xlink:href="#bb"/><use transform="matrix(0.05,0,0,0.05,47.900000000000006,0)" xlink:href="#bj"/><use transform="matrix(0.05,0,0,0.05,57.900000000000006,0)" xlink:href="#be"/><use transform="matrix(0.05,0,0,0.05,67.9,0)" xlink:href="#aW"/></g><g id="D"><use transform="matrix(0.05,0,0,0.05,0,0)" xlink:href="#bc"/><use transform="matrix(0.05,0,0,0.05,12,0)" xlink:href="#bb"/><use transform="matrix(0.05,0,0,0.05,22,0)" xlink:href="#bj"/><use transform="matrix(0.05,0,0,0.05,32,0)" xlink:href="#bi"/><use transform="matrix(0.05,0,0,0.05,37,0)" xlink:href="#bb"/><use transform="matrix(0.05,0,0,0.05,47,0)" xlink:href="#aW"/></g><g id="E"><use transform="matrix(0.05,0,0,0.05,0,0)" xlink:href="#bo"/><use transform="matrix(0.05,0,0,0.05,10,0)" xlink:href="#be"/></g><g id="F"><use transform="matrix(0.05,0,0,0.05,0,0)" xlink:href="#bp"/><use transform="matrix(0.05,0,0,0.05,12.950000000000001,0)" xlink:href="#bb"/><use transform="matrix(0.05,0,0,0.05,22.950000000000003,0)" xlink:href="#bh"/><use transform="matrix(0.05,0,0,0.05,26.900000000000002,0)" xlink:href="#be"/><use transform="matrix(0.05,0,0,0.05,36.900000000000006,0)" xlink:href="#bi"/><use transform="matrix(0.05,0,0,0.05,41.900000000000006,0)" xlink:href="#bg"/></g><g id="G"><use transform="matrix(0.05,0,0,0.05,0,0)" xlink:href="#ba"/><use transform="matrix(0.05,0,0,0.05,3.95,0)" xlink:href="#bo"/></g><g id="H"><use transform="matrix(0.05,0,0,0.05,0,0)" xlink:href="#bm"/><use transform="matrix(0.05,0,0,0.05,9,0)" xlink:href="#be"/><use transform="matrix(0.05,0,0,0.05,19,0)" xlink:href="#bl"/></g><path fill="#333" d="M115-194c53 0 69 39 70 98 0 66-23 100-70 100C84 3 66-7 56-30L54 0H23l1-261h32v101c10-23 28-34 59-34zm-8 174c40 0 45-34 45-75 0-40-5-75-45-74-42 0-51 32-51 76 0 43 10 73 51 73" id="bt"/><g id="I"><use transform="matrix(0.05,0,0,0.05,0,0)" xlink:href="#bj"/><use transform="matrix(0.05,0,0,0.05,10,0)" xlink:href="#aX"/><use transform="matrix(0.05,0,0,0.05,20,0)" xlink:href="#bf"/><use transform="matrix(0.05,0,0,0.05,34.95,0)" xlink:href="#bt"/><use transform="matrix(0.05,0,0,0.05,44.95,0)" xlink:href="#be"/><use transform="matrix(0.05,0,0,0.05,54.95,0)" xlink:href="#aZ"/></g><path d="M117-194c89-4 53 116 60 194h-32v-121c0-31-8-49-39-48C34-167 62-67 57 0H25l-1-190h30c1 10-1 24 2 32 11-22 29-35 61-36" id="bu"/><path d="M85 4C-4 8 31-112 24-190h32v120c0 31 7 50 39 49 72-2 45-101 50-169h31l1 190h-30c-1-10 1-25-2-33-11 22-28 36-60 37zM73-211c8-23 27-35 38-54h36v5l-58 49H73" id="bv"/><path d="M210-169c-67 3-38 105-44 169h-31v-121c0-29-5-50-35-48C34-165 62-65 56 0H25l-1-190h30c1 10-1 24 2 32 10-44 99-50 107 0 11-21 27-35 58-36 85-2 47 119 55 194h-31v-121c0-29-5-49-35-48" id="bw"/><path d="M100-194c63 0 86 42 84 106H49c0 40 14 67 53 68 26 1 43-12 49-29l28 8c-11 28-37 45-77 45C44 4 14-33 15-96c1-61 26-98 85-98zm52 81c6-60-76-77-97-28-3 7-6 17-6 28h103" id="bx"/><path d="M114-163C36-179 61-72 57 0H25l-1-190h30c1 12-1 29 2 39 6-27 23-49 58-41v29" id="by"/><path d="M100-194c62-1 85 37 85 99 1 63-27 99-86 99S16-35 15-95c0-66 28-99 85-99zM99-20c44 1 53-31 53-75 0-43-8-75-51-75s-53 32-53 75 10 74 51 75" id="bz"/><g id="J"><use transform="matrix(0.05,0,0,0.05,0,0)" xlink:href="#bu"/><use transform="matrix(0.05,0,0,0.05,10,0)" xlink:href="#bv"/><use transform="matrix(0.05,0,0,0.05,20,0)" xlink:href="#bw"/><use transform="matrix(0.05,0,0,0.05,34.95,0)" xlink:href="#bx"/><use transform="matrix(0.05,0,0,0.05,44.95,0)" xlink:href="#by"/><use transform="matrix(0.05,0,0,0.05,50.900000000000006,0)" xlink:href="#bz"/></g><path d="M85-194c31 0 48 13 60 33l-1-100h32l1 261h-30c-2-10 0-23-3-31C134-8 116 4 85 4 32 4 16-35 15-94c0-66 23-100 70-100zm9 24c-40 0-46 34-46 75 0 40 6 74 45 74 42 0 51-32 51-76 0-42-9-74-50-73" id="bA"/><g id="K"><use transform="matrix(0.05,0,0,0.05,0,0)" xlink:href="#bA"/><use transform="matrix(0.05,0,0,0.05,10,0)" xlink:href="#bz"/></g><path d="M96-169c-40 0-48 33-48 73s9 75 48 75c24 0 41-14 43-38l32 2c-6 37-31 61-74 61-59 0-76-41-82-99-10-93 101-131 147-64 4 7 5 14 7 22l-32 3c-4-21-16-35-41-35zm3 187c19-1 33 8 33 26 0 31-30 33-64 32V58c18 2 39 4 41-13 1-15-18-13-34-13L87 0h19" id="bB"/><g id="L"><use transform="matrix(0.05,0,0,0.05,0,0)" xlink:href="#bx"/><use transform="matrix(0.05,0,0,0.05,10,0)" xlink:href="#bu"/><use transform="matrix(0.05,0,0,0.05,20,0)" xlink:href="#bA"/><use transform="matrix(0.05,0,0,0.05,30,0)" xlink:href="#bx"/><use transform="matrix(0.05,0,0,0.05,40,0)" xlink:href="#by"/><use transform="matrix(0.05,0,0,0.05,45.95,0)" xlink:href="#bx"/><use transform="matrix(0.05,0,0,0.05,55.95,0)" xlink:href="#bB"/><use transform="matrix(0.05,0,0,0.05,64.95,0)" xlink:href="#bz"/></g><path d="M84 4C-5 8 30-112 23-190h32v120c0 31 7 50 39 49 72-2 45-101 50-169h31l1 190h-30c-1-10 1-25-2-33-11 22-28 36-60 37" id="bC"/><path d="M115-194c53 0 69 39 70 98 0 66-23 100-70 100C84 3 66-7 56-30L54 0H23l1-261h32v101c10-23 28-34 59-34zm-8 174c40 0 45-34 45-75 0-40-5-75-45-74-42 0-51 32-51 76 0 43 10 73 51 73" id="bD"/><g id="M"><use transform="matrix(0.05,0,0,0.05,0,0)" xlink:href="#bu"/><use transform="matrix(0.05,0,0,0.05,10,0)" xlink:href="#bC"/><use transform="matrix(0.05,0,0,0.05,20,0)" xlink:href="#bw"/><use transform="matrix(0.05,0,0,0.05,34.95,0)" xlink:href="#bD"/><use transform="matrix(0.05,0,0,0.05,44.95,0)" xlink:href="#bx"/><use transform="matrix(0.05,0,0,0.05,54.95,0)" xlink:href="#by"/></g><path d="M141-36C126-15 110 5 73 4 37 3 15-17 15-53c-1-64 63-63 125-63 3-35-9-54-41-54-24 1-41 7-42 31l-33-3c5-37 33-52 76-52 45 0 72 20 72 64v82c-1 20 7 32 28 27v20c-31 9-61-2-59-35zM48-53c0 20 12 33 32 33 41-3 63-29 60-74-43 2-92-5-92 41" id="bE"/><path d="M115-194c55 1 70 41 70 98S169 2 115 4C84 4 66-9 55-30l1 105H24l-1-265h31l2 30c10-21 28-34 59-34zm-8 174c40 0 45-34 45-75s-6-73-45-74c-42 0-51 32-51 76 0 43 10 73 51 73" id="bF"/><path d="M59-47c-2 24 18 29 38 22v24C64 9 27 4 27-40v-127H5v-23h24l9-43h21v43h35v23H59v120" id="bG"/><g id="N"><use transform="matrix(0.05,0,0,0.05,0,0)" xlink:href="#bE"/><use transform="matrix(0.05,0,0,0.05,10,0)" xlink:href="#bF"/><use transform="matrix(0.05,0,0,0.05,20,0)" xlink:href="#bE"/><use transform="matrix(0.05,0,0,0.05,30,0)" xlink:href="#by"/><use transform="matrix(0.05,0,0,0.05,35.95,0)" xlink:href="#bG"/><use transform="matrix(0.05,0,0,0.05,40.95,0)" xlink:href="#bE"/><use transform="matrix(0.05,0,0,0.05,50.95,0)" xlink:href="#bw"/><use transform="matrix(0.05,0,0,0.05,65.9,0)" xlink:href="#bx"/><use transform="matrix(0.05,0,0,0.05,75.9,0)" xlink:href="#bu"/><use transform="matrix(0.05,0,0,0.05,85.9,0)" xlink:href="#bG"/><use transform="matrix(0.05,0,0,0.05,90.9,0)" xlink:href="#bz"/></g><path d="M135-143c-3-34-86-38-87 0 15 53 115 12 119 90S17 21 10-45l28-5c4 36 97 45 98 0-10-56-113-15-118-90-4-57 82-63 122-42 12 7 21 19 24 35" id="bH"/><path d="M96-169c-40 0-48 33-48 73s9 75 48 75c24 0 41-14 43-38l32 2c-6 37-31 61-74 61-59 0-76-41-82-99-10-93 101-131 147-64 4 7 5 14 7 22l-32 3c-4-21-16-35-41-35" id="bI"/><path d="M24-231v-30h32v30H24zM24 0v-190h32V0H24" id="bJ"/><path d="M141-36C126-15 110 5 73 4 37 3 15-17 15-53c-1-64 63-63 125-63 3-35-9-54-41-54-24 1-41 7-42 31l-33-3c5-37 33-52 76-52 45 0 72 20 72 64v82c-1 20 7 32 28 27v20c-31 9-61-2-59-35zM48-53c0 20 12 33 32 33 41-3 63-29 60-74-43 2-92-5-92 41zm117-205c-3 23-9 48-36 47-26-1-65-44-74 0H39c4-23 8-48 36-47s64 44 74 0h16" id="bK"/><g id="O"><use transform="matrix(0.05,0,0,0.05,0,0)" xlink:href="#bA"/><use transform="matrix(0.05,0,0,0.05,10,0)" xlink:href="#bx"/><use transform="matrix(0.05,0,0,0.05,20,0)" xlink:href="#bH"/><use transform="matrix(0.05,0,0,0.05,29,0)" xlink:href="#bI"/><use transform="matrix(0.05,0,0,0.05,38,0)" xlink:href="#by"/><use transform="matrix(0.05,0,0,0.05,43.95,0)" xlink:href="#bJ"/><use transform="matrix(0.05,0,0,0.05,47.900000000000006,0)" xlink:href="#bB"/><use transform="matrix(0.05,0,0,0.05,56.900000000000006,0)" xlink:href="#bK"/><use transform="matrix(0.05,0,0,0.05,66.9,0)" xlink:href="#bz"/></g><path d="M177-190C167-65 218 103 67 71c-23-6-38-20-44-43l32-5c15 47 100 32 89-28v-30C133-14 115 1 83 1 29 1 15-40 15-95c0-56 16-97 71-98 29-1 48 16 59 35 1-10 0-23 2-32h30zM94-22c36 0 50-32 50-73 0-42-14-75-50-75-39 0-46 34-46 75s6 73 46 73" id="bL"/><g id="P"><use transform="matrix(0.05,0,0,0.05,0,0)" xlink:href="#bH"/><use transform="matrix(0.05,0,0,0.05,9,0)" xlink:href="#bG"/><use transform="matrix(0.05,0,0,0.05,14,0)" xlink:href="#by"/><use transform="matrix(0.05,0,0,0.05,19.95,0)" xlink:href="#bJ"/><use transform="matrix(0.05,0,0,0.05,23.9,0)" xlink:href="#bu"/><use transform="matrix(0.05,0,0,0.05,33.9,0)" xlink:href="#bL"/></g><path d="M106-169C34-169 62-67 57 0H25v-261h32l-1 103c12-21 28-36 61-36 89 0 53 116 60 194h-32v-121c2-32-8-49-39-48" id="bM"/><path d="M141-36C126-15 110 5 73 4 37 3 15-17 15-53c-1-64 63-63 125-63 3-35-9-54-41-54-24 1-41 7-42 31l-33-3c5-37 33-52 76-52 45 0 72 20 72 64v82c-1 20 7 32 28 27v20c-31 9-61-2-59-35zM48-53c0 20 12 33 32 33 41-3 63-29 60-74-43 2-92-5-92 41zm25-158c8-23 27-35 38-54h36v5l-58 49H73" id="bN"/><g id="Q"><use transform="matrix(0.05,0,0,0.05,0,0)" xlink:href="#bM"/><use transform="matrix(0.05,0,0,0.05,10,0)" xlink:href="#bz"/><use transform="matrix(0.05,0,0,0.05,20,0)" xlink:href="#by"/><use transform="matrix(0.05,0,0,0.05,25.950000000000003,0)" xlink:href="#bN"/><use transform="matrix(0.05,0,0,0.05,35.95,0)" xlink:href="#by"/><use transform="matrix(0.05,0,0,0.05,41.900000000000006,0)" xlink:href="#bJ"/><use transform="matrix(0.05,0,0,0.05,45.85000000000001,0)" xlink:href="#bz"/><use transform="matrix(0.05,0,0,0.05,55.85,0)" xlink:href="#bH"/></g><g id="R"><use transform="matrix(0.05,0,0,0.05,0,0)" xlink:href="#bA"/><use transform="matrix(0.05,0,0,0.05,10,0)" xlink:href="#bJ"/><use transform="matrix(0.05,0,0,0.05,13.949999999999998,0)" xlink:href="#bE"/><use transform="matrix(0.05,0,0,0.05,23.95,0)" xlink:href="#bH"/></g><path fill="#333" d="M-5 72V49h209v23H-5" id="bO"/><path fill="#333" d="M30-248c118-7 216 8 213 122C240-48 200 0 122 0H30v-248zM63-27c89 8 146-16 146-99s-60-101-146-95v194" id="bP"/><g id="S"><use transform="matrix(0.05,0,0,0.05,0,0)" xlink:href="#bp"/><use transform="matrix(0.05,0,0,0.05,12.950000000000001,0)" xlink:href="#bb"/><use transform="matrix(0.05,0,0,0.05,22.950000000000003,0)" xlink:href="#bh"/><use transform="matrix(0.05,0,0,0.05,26.900000000000002,0)" xlink:href="#be"/><use transform="matrix(0.05,0,0,0.05,36.900000000000006,0)" xlink:href="#bi"/><use transform="matrix(0.05,0,0,0.05,41.900000000000006,0)" xlink:href="#bb"/><use transform="matrix(0.05,0,0,0.05,51.900000000000006,0)" xlink:href="#aZ"/><use transform="matrix(0.05,0,0,0.05,57.85,0)" xlink:href="#bO"/><use transform="matrix(0.05,0,0,0.05,67.85000000000001,0)" xlink:href="#bl"/><use transform="matrix(0.05,0,0,0.05,77.85000000000001,0)" xlink:href="#bb"/><use transform="matrix(0.05,0,0,0.05,87.85000000000001,0)" xlink:href="#bj"/><use transform="matrix(0.05,0,0,0.05,97.85000000000001,0)" xlink:href="#bi"/><use transform="matrix(0.05,0,0,0.05,102.85000000000001,0)" xlink:href="#bb"/><use transform="matrix(0.05,0,0,0.05,112.85000000000001,0)" xlink:href="#aW"/><use transform="matrix(0.05,0,0,0.05,121.85000000000001,0)" xlink:href="#bP"/><use transform="matrix(0.05,0,0,0.05,134.8,0)" xlink:href="#be"/><use transform="matrix(0.05,0,0,0.05,144.8,0)" xlink:href="#bp"/><use transform="matrix(0.05,0,0,0.05,157.75,0)" xlink:href="#bb"/><use transform="matrix(0.05,0,0,0.05,167.75,0)" xlink:href="#bh"/><use transform="matrix(0.05,0,0,0.05,171.7,0)" xlink:href="#be"/><use transform="matrix(0.05,0,0,0.05,181.7,0)" xlink:href="#bi"/><use transform="matrix(0.05,0,0,0.05,186.7,0)" xlink:href="#bg"/></g><g id="T"><use transform="matrix(0.05,0,0,0.05,0,0)" xlink:href="#be"/><use transform="matrix(0.05,0,0,0.05,10,0)" xlink:href="#bf"/><use transform="matrix(0.05,0,0,0.05,24.950000000000003,0)" xlink:href="#bg"/><use transform="matrix(0.05,0,0,0.05,34.95,0)" xlink:href="#ba"/><use transform="matrix(0.05,0,0,0.05,38.900000000000006,0)" xlink:href="#bh"/><use transform="matrix(0.05,0,0,0.05,42.85000000000001,0)" xlink:href="#bO"/><use transform="matrix(0.05,0,0,0.05,52.85,0)" xlink:href="#bm"/><use transform="matrix(0.05,0,0,0.05,61.85,0)" xlink:href="#bb"/><use transform="matrix(0.05,0,0,0.05,71.85000000000001,0)" xlink:href="#bh"/><use transform="matrix(0.05,0,0,0.05,75.80000000000001,0)" xlink:href="#be"/><use transform="matrix(0.05,0,0,0.05,85.80000000000001,0)" xlink:href="#bi"/><use transform="matrix(0.05,0,0,0.05,90.80000000000001,0)" xlink:href="#bb"/><use transform="matrix(0.05,0,0,0.05,100.80000000000001,0)" xlink:href="#aZ"/></g><g id="U"><use transform="matrix(0.05,0,0,0.05,0,0)" xlink:href="#ba"/><use transform="matrix(0.05,0,0,0.05,3.95,0)" xlink:href="#bo"/><use transform="matrix(0.05,0,0,0.05,13.949999999999998,0)" xlink:href="#bO"/><use transform="matrix(0.05,0,0,0.05,23.95,0)" xlink:href="#bl"/><use transform="matrix(0.05,0,0,0.05,33.95,0)" xlink:href="#bb"/><use transform="matrix(0.05,0,0,0.05,43.95,0)" xlink:href="#bj"/><use transform="matrix(0.05,0,0,0.05,53.95,0)" xlink:href="#bi"/><use transform="matrix(0.05,0,0,0.05,58.95,0)" xlink:href="#bb"/><use transform="matrix(0.05,0,0,0.05,68.95,0)" xlink:href="#bP"/><use transform="matrix(0.05,0,0,0.05,81.9,0)" xlink:href="#be"/><use transform="matrix(0.05,0,0,0.05,91.9,0)" xlink:href="#bp"/><use transform="matrix(0.05,0,0,0.05,104.85000000000001,0)" xlink:href="#bb"/><use transform="matrix(0.05,0,0,0.05,114.85000000000001,0)" xlink:href="#bh"/><use transform="matrix(0.05,0,0,0.05,118.80000000000001,0)" xlink:href="#be"/><use transform="matrix(0.05,0,0,0.05,128.8,0)" xlink:href="#bi"/><use transform="matrix(0.05,0,0,0.05,133.8,0)" xlink:href="#bg"/></g><path fill="#333" d="M30 0v-248h187v28H63v79h144v27H63v87h162V0H30" id="bQ"/><path fill="#333" d="M108 0H70L1-190h34L89-25l56-165h34" id="bR"/><g id="V"><use transform="matrix(0.05,0,0,0.05,0,0)" xlink:href="#bQ"/><use transform="matrix(0.05,0,0,0.05,12,0)" xlink:href="#bR"/><use transform="matrix(0.05,0,0,0.05,21,0)" xlink:href="#be"/><use transform="matrix(0.05,0,0,0.05,31,0)" xlink:href="#bj"/><use transform="matrix(0.05,0,0,0.05,41,0)" xlink:href="#bi"/><use transform="matrix(0.05,0,0,0.05,46,0)" xlink:href="#bb"/></g><path fill="#333" d="M96-169c-40 0-48 33-48 73s9 75 48 75c24 0 41-14 43-38l32 2c-6 37-31 61-74 61-59 0-76-41-82-99-10-93 101-131 147-64 4 7 5 14 7 22l-32 3c-4-21-16-35-41-35zm3 187c19-1 33 8 33 26 0 31-30 33-64 32V58c18 2 39 4 41-13 1-15-18-13-34-13L87 0h19" id="bS"/><path fill="#333" d="M141-36C126-15 110 5 73 4 37 3 15-17 15-53c-1-64 63-63 125-63 3-35-9-54-41-54-24 1-41 7-42 31l-33-3c5-37 33-52 76-52 45 0 72 20 72 64v82c-1 20 7 32 28 27v20c-31 9-61-2-59-35zM48-53c0 20 12 33 32 33 41-3 63-29 60-74-43 2-92-5-92 41zm117-205c-3 23-9 48-36 47-26-1-65-44-74 0H39c4-23 8-48 36-47s64 44 74 0h16" id="bT"/><g id="W"><use transform="matrix(0.05,0,0,0.05,0,0)" xlink:href="#bo"/><use transform="matrix(0.05,0,0,0.05,10,0)" xlink:href="#bb"/><use transform="matrix(0.05,0,0,0.05,20,0)" xlink:href="#bg"/><use transform="matrix(0.05,0,0,0.05,30,0)" xlink:href="#bS"/><use transform="matrix(0.05,0,0,0.05,39,0)" xlink:href="#bT"/><use transform="matrix(0.05,0,0,0.05,49,0)" xlink:href="#bb"/></g><g id="X"><use transform="matrix(0.05,0,0,0.05,0,0)" xlink:href="#bo"/><use transform="matrix(0.05,0,0,0.05,10,0)" xlink:href="#bg"/><use transform="matrix(0.05,0,0,0.05,20,0)" xlink:href="#bi"/><use transform="matrix(0.05,0,0,0.05,25,0)" xlink:href="#bg"/></g><g id="Y"><use transform="matrix(0.05,0,0,0.05,0,0)" xlink:href="#bi"/><use transform="matrix(0.05,0,0,0.05,5,0)" xlink:href="#ba"/><use transform="matrix(0.05,0,0,0.05,8.95,0)" xlink:href="#bl"/><use transform="matrix(0.05,0,0,0.05,18.95,0)" xlink:href="#bb"/><use transform="matrix(0.05,0,0,0.05,28.950000000000003,0)" xlink:href="#aW"/></g><g id="Z"><use transform="matrix(0.05,0,0,0.05,0,0)" xlink:href="#ba"/><use transform="matrix(0.05,0,0,0.05,3.95,0)" xlink:href="#bi"/><use transform="matrix(0.05,0,0,0.05,8.95,0)" xlink:href="#be"/><use transform="matrix(0.05,0,0,0.05,18.95,0)" xlink:href="#bj"/><use transform="matrix(0.05,0,0,0.05,28.950000000000003,0)" xlink:href="#aW"/></g><g id="aa"><use transform="matrix(0.05,0,0,0.05,0,0)" xlink:href="#bj"/><use transform="matrix(0.05,0,0,0.05,10,0)" xlink:href="#aX"/><use transform="matrix(0.05,0,0,0.05,20,0)" xlink:href="#bf"/><use transform="matrix(0.05,0,0,0.05,34.95,0)" xlink:href="#be"/><use transform="matrix(0.05,0,0,0.05,44.95,0)" xlink:href="#aZ"/><use transform="matrix(0.05,0,0,0.05,50.900000000000006,0)" xlink:href="#bb"/></g><path fill="#333" d="M33 0v-248h34V0H33" id="bU"/><g id="ab"><use transform="matrix(0.05,0,0,0.05,0,0)" xlink:href="#bU"/><use transform="matrix(0.05,0,0,0.05,5,0)" xlink:href="#bi"/><use transform="matrix(0.05,0,0,0.05,10,0)" xlink:href="#be"/><use transform="matrix(0.05,0,0,0.05,20,0)" xlink:href="#bj"/><use transform="matrix(0.05,0,0,0.05,30,0)" xlink:href="#aW"/><use transform="matrix(0.05,0,0,0.05,39,0)" xlink:href="#bO"/><use transform="matrix(0.05,0,0,0.05,49,0)" xlink:href="#bl"/><use transform="matrix(0.05,0,0,0.05,59,0)" xlink:href="#bb"/><use transform="matrix(0.05,0,0,0.05,69,0)" xlink:href="#bj"/><use transform="matrix(0.05,0,0,0.05,79,0)" xlink:href="#bi"/><use transform="matrix(0.05,0,0,0.05,84,0)" xlink:href="#bb"/><use transform="matrix(0.05,0,0,0.05,94,0)" xlink:href="#aW"/><use transform="matrix(0.05,0,0,0.05,103,0)" xlink:href="#bP"/><use transform="matrix(0.05,0,0,0.05,115.95,0)" xlink:href="#be"/><use transform="matrix(0.05,0,0,0.05,125.95,0)" xlink:href="#bp"/><use transform="matrix(0.05,0,0,0.05,138.9,0)" xlink:href="#bb"/><use transform="matrix(0.05,0,0,0.05,148.9,0)" xlink:href="#bh"/><use transform="matrix(0.05,0,0,0.05,152.85,0)" xlink:href="#be"/><use transform="matrix(0.05,0,0,0.05,162.85,0)" xlink:href="#bi"/><use transform="matrix(0.05,0,0,0.05,167.85,0)" xlink:href="#bg"/></g><g id="ac"><use transform="matrix(0.05,0,0,0.05,0,0)" xlink:href="#ba"/><use transform="matrix(0.05,0,0,0.05,3.95,0)" xlink:href="#bo"/><use transform="matrix(0.05,0,0,0.05,13.949999999999998,0)" xlink:href="#bO"/><use transform="matrix(0.05,0,0,0.05,23.95,0)" xlink:href="#bi"/><use transform="matrix(0.05,0,0,0.05,28.950000000000003,0)" xlink:href="#ba"/><use transform="matrix(0.05,0,0,0.05,32.9,0)" xlink:href="#bl"/><use transform="matrix(0.05,0,0,0.05,42.9,0)" xlink:href="#bb"/><use transform="matrix(0.05,0,0,0.05,52.900000000000006,0)" xlink:href="#bP"/><use transform="matrix(0.05,0,0,0.05,65.85,0)" xlink:href="#be"/><use transform="matrix(0.05,0,0,0.05,75.85,0)" xlink:href="#bU"/><use transform="matrix(0.05,0,0,0.05,80.85,0)" xlink:href="#bi"/><use transform="matrix(0.05,0,0,0.05,85.85,0)" xlink:href="#be"/><use transform="matrix(0.05,0,0,0.05,95.85,0)" xlink:href="#bf"/></g><g id="ad"><use transform="matrix(0.05,0,0,0.05,0,0)" xlink:href="#bq"/><use transform="matrix(0.05,0,0,0.05,10.950000000000001,0)" xlink:href="#bg"/><use transform="matrix(0.05,0,0,0.05,20.950000000000003,0)" xlink:href="#bR"/><use transform="matrix(0.05,0,0,0.05,29.950000000000003,0)" xlink:href="#bb"/><use transform="matrix(0.05,0,0,0.05,39.95,0)" xlink:href="#aZ"/><use transform="matrix(0.05,0,0,0.05,45.900000000000006,0)" xlink:href="#ba"/><use transform="matrix(0.05,0,0,0.05,49.85000000000001,0)" xlink:href="#bi"/><use transform="matrix(0.05,0,0,0.05,54.85,0)" xlink:href="#bb"/><use transform="matrix(0.05,0,0,0.05,64.85000000000001,0)" xlink:href="#aW"/></g></defs></g></svg>