<svg xmlns="http://www.w3.org/2000/svg" xmlns:xlink="http://www.w3.org/1999/xlink" xmlns:lucid="lucid" width="2216.5" height="969.42"><g transform="translate(-300 -38.5776119781658)" lucid:page-tab-id="0_0"><path d="M0 0h2641.2v1410.4H0z" fill="#fff"/><path d="M860 66.58c0-4.42 3.58-8 8-8h836.75c4.42 0 8 3.58 8 8v25.15c0 4.42-3.58 8-8 8H868c-4.42 0-8-3.58-8-8z" stroke="#000" stroke-opacity="0" stroke-width="2" fill="#fff" fill-opacity="0"/><use xlink:href="#a" transform="matrix(1,0,0,1,864,62.5776119781658) translate(346.5606172839506 25.782777777777778)"/><use xlink:href="#b" transform="matrix(1,0,0,1,864,62.5776119781658) translate(468.71246913580245 25.782777777777778)"/><path d="M1035.5 98.4h505.85M1035.5 98.4h-1M1541.32 98.4h1.03" stroke="#a9afb8" stroke-width="2" fill="none"/><path d="M360 380.17c0-4.42 3.58-8 8-8h244c4.42 0 8 3.58 8 8v152c0 4.42-3.58 8-8 8H368c-4.42 0-8-3.58-8-8z" fill="#fff"/><path d="M360 380.17c0-4.42 3.58-8 8-8h244c4.42 0 8 3.58 8 8v152c0 4.42-3.58 8-8 8H368c-4.42 0-8-3.58-8-8zM360 412.17h260M420 412.17v128M497.2 412.17v128" stroke="#333" fill="none"/><use xlink:href="#c" transform="matrix(1,0,0,1,370,372.1703125) translate(89.07499999999999 23.6)"/><use xlink:href="#d" transform="matrix(1,0,0,1,365,414.6703125) translate(13 17.1)"/><use xlink:href="#e" transform="matrix(1,0,0,1,425,414.6703125) translate(27.025 17.1)"/><use xlink:href="#f" transform="matrix(1,0,0,1,502.1985255539066,414.6703125) translate(29.049999999999997 17.1)"/><use xlink:href="#g" transform="matrix(1,0,0,1,425,446.6703125) translate(12.574999999999996 17.1)"/><use xlink:href="#h" transform="matrix(1,0,0,1,502.1985255539066,446.6703125) translate(34.55 17.1)"/><use xlink:href="#i" transform="matrix(1,0,0,1,425,478.6703125) translate(0 17.1)"/><use xlink:href="#j" transform="matrix(1,0,0,1,425,478.6703125) translate(10 17.1)"/><use xlink:href="#k" transform="matrix(1,0,0,1,502.1985255539066,478.6703125) translate(34.55 17.1)"/><use xlink:href="#l" transform="matrix(1,0,0,1,425,510.6703125) translate(14.575 17.1)"/><use xlink:href="#m" transform="matrix(1,0,0,1,502.1985255539066,510.6703125) translate(34.025 17.1)"/><path d="M1086.37 348c0-4.42 3.6-8 8-8H1412c4.42 0 8 3.58 8 8v289c0 4.42-3.58 8-8 8h-317.63c-4.4 0-8-3.58-8-8z" fill="#fff"/><path d="M1086.37 348c0-4.42 3.6-8 8-8H1412c4.42 0 8 3.58 8 8v289c0 4.42-3.58 8-8 8h-317.63c-4.4 0-8-3.58-8-8zM1086.37 380H1420M1146.37 380v265M1312.74 380v265" stroke="#333" fill="none"/><use xlink:href="#n" transform="matrix(1,0,0,1,1096.3747542340575,340) translate(88.05 23.6)"/><use xlink:href="#o" transform="matrix(1,0,0,1,1096.3747542340575,340) translate(149.05 23.6)"/><use xlink:href="#p" transform="matrix(1,0,0,1,1096.3747542340575,340) translate(174.05 23.6)"/><use xlink:href="#d" transform="matrix(1,0,0,1,1091.3747542340575,382.5) translate(13 17.1)"/><use xlink:href="#e" transform="matrix(1,0,0,1,1151.3747542340575,382.5) translate(71.525 17.1)"/><use xlink:href="#h" transform="matrix(1,0,0,1,1317.7443677794915,382.5) translate(27.05 17.1)"/><use xlink:href="#q" transform="matrix(1,0,0,1,1091.3747542340575,414.5) translate(13.524999999999999 17.1)"/><use xlink:href="#r" transform="matrix(1,0,0,1,1151.3747542340575,414.5) translate(37.074999999999996 17.1)"/><use xlink:href="#s" transform="matrix(1,0,0,1,1317.7443677794915,414.5) translate(21.549999999999997 17.1)"/><use xlink:href="#t" transform="matrix(1,0,0,1,1151.3747542340575,446.5) translate(46.525 17.1)"/><use xlink:href="#h" transform="matrix(1,0,0,1,1317.7443677794915,446.5) translate(27.05 17.1)"/><use xlink:href="#u" transform="matrix(1,0,0,1,1151.3747542340575,478.5) translate(64 17.1)"/><use xlink:href="#v" transform="matrix(1,0,0,1,1317.7443677794915,478.5) translate(18.549999999999997 17.1)"/><use xlink:href="#w" transform="matrix(1,0,0,1,1151.3747542340575,510.5) translate(35.55 16.799999999999997)"/><use xlink:href="#x" transform="matrix(1,0,0,1,1151.3747542340575,510.5) translate(101.45 16.799999999999997)"/><use xlink:href="#y" transform="matrix(1,0,0,1,1151.3747542340575,510.5) translate(41.025 38.4)"/><use xlink:href="#z" transform="matrix(1,0,0,1,1317.7443677794915,510.5) translate(18.549999999999997 27.6)"/><use xlink:href="#A" transform="matrix(1,0,0,1,1151.3747542340575,563.5) translate(40.05 17.1)"/><use xlink:href="#k" transform="matrix(1,0,0,1,1317.7443677794915,563.5) translate(27.05 17.1)"/><use xlink:href="#B" transform="matrix(1,0,0,1,1151.3747542340575,595.5) translate(46.074999999999996 17.1)"/><use xlink:href="#C" transform="matrix(1,0,0,1,1317.7443677794915,595.5) translate(14.549999999999997 17.1)"/><use xlink:href="#D" transform="matrix(1,0,0,1,1151.3747542340575,627.5) translate(62.025 14.4)"/><use xlink:href="#k" transform="matrix(1,0,0,1,1317.7443677794915,627.5) translate(27.05 14.4)"/><path d="M2156.5 388c0-4.42 3.58-8 8-8h324c4.42 0 8 3.58 8 8v152c0 4.42-3.58 8-8 8h-324c-4.42 0-8-3.58-8-8z" fill="#fff"/><path d="M2156.5 388c0-4.42 3.58-8 8-8h324c4.42 0 8 3.58 8 8v152c0 4.42-3.58 8-8 8h-324c-4.42 0-8-3.58-8-8zM2156.5 420h340M2231.96 420v128M2409.45 420v128" stroke="#333" fill="none"/><use xlink:href="#E" transform="matrix(1,0,0,1,2166.5012518409603,380) translate(87.5 23.6)"/><use xlink:href="#o" transform="matrix(1,0,0,1,2166.5012518409603,380) translate(148.5 23.6)"/><use xlink:href="#F" transform="matrix(1,0,0,1,2166.5012518409603,380) translate(173.5 23.6)"/><use xlink:href="#G" transform="matrix(1,0,0,1,2161.5012518409603,422.5) translate(21 17.1)"/><use xlink:href="#H" transform="matrix(1,0,0,1,2236.9638792235946,422.5) translate(77.025 17.1)"/><use xlink:href="#s" transform="matrix(1,0,0,1,2414.44735979496,422.5) translate(11.549999999999997 17.1)"/><use xlink:href="#I" transform="matrix(1,0,0,1,2236.9638792235946,454.5) translate(43.05 17.1)"/><use xlink:href="#J" transform="matrix(1,0,0,1,2414.44735979496,454.5) translate(4.549999999999997 17.1)"/><use xlink:href="#K" transform="matrix(1,0,0,1,2236.9638792235946,486.5) translate(31.574999999999996 17.1)"/><use xlink:href="#C" transform="matrix(1,0,0,1,2414.44735979496,486.5) translate(4.549999999999997 17.1)"/><use xlink:href="#L" transform="matrix(1,0,0,1,2236.9638792235946,518.5) translate(45.55 17.1)"/><use xlink:href="#k" transform="matrix(1,0,0,1,2414.44735979496,518.5) translate(17.05 17.1)"/><path d="M1860 892c0-4.42 3.58-8 8-8h324c4.42 0 8 3.58 8 8v88c0 4.42-3.58 8-8 8h-324c-4.42 0-8-3.58-8-8z" fill="#fff"/><path d="M1860 892c0-4.42 3.58-8 8-8h324c4.42 0 8 3.58 8 8v88c0 4.42-3.58 8-8 8h-324c-4.42 0-8-3.58-8-8zM1860 924h340M1920 924v64M2060 924v64" stroke="#333" fill="none"/><use xlink:href="#M" transform="matrix(1,0,0,1,1870,884) translate(140.5 23.6)"/><use xlink:href="#d" transform="matrix(1,0,0,1,1865,926.5) translate(13 17.1)"/><use xlink:href="#e" transform="matrix(1,0,0,1,1925,926.5) translate(58.025 17.1)"/><use xlink:href="#f" transform="matrix(1,0,0,1,2065,926.5) translate(37.55 17.1)"/><use xlink:href="#N" transform="matrix(1,0,0,1,1925,958.5) translate(26.549999999999997 17.1)"/><use xlink:href="#h" transform="matrix(1,0,0,1,2065,958.5) translate(43.05 17.1)"/><path d="M1081.75 892c0-4.42 3.58-8 8-8h360.5c4.42 0 8 3.58 8 8v88c0 4.42-3.58 8-8 8h-360.5c-4.42 0-8-3.58-8-8z" fill="#fff"/><path d="M1081.75 892c0-4.42 3.58-8 8-8h360.5c4.42 0 8 3.58 8 8v88c0 4.42-3.58 8-8 8h-360.5c-4.42 0-8-3.58-8-8zM1081.75 924h376.5M1162.14 924v64M1355.23 924v64" stroke="#333" fill="none"/><use xlink:href="#O" transform="matrix(1,0,0,1,1091.7493740795198,884) translate(91.60000000000001 23.6)"/><use xlink:href="#P" transform="matrix(1,0,0,1,1086.7493740795198,926.5) translate(9.524999999999999 17.1)"/><use xlink:href="#Q" transform="matrix(1,0,0,1,1086.7493740795198,926.5) translate(38.525 17.1)"/><use xlink:href="#R" transform="matrix(1,0,0,1,1167.144170232169,926.5) translate(63.075 17.1)"/><use xlink:href="#f" transform="matrix(1,0,0,1,1360.234988808294,926.5) translate(19.549999999999997 17.1)"/><use xlink:href="#P" transform="matrix(1,0,0,1,1086.7493740795198,958.5) translate(9.524999999999999 17.1)"/><use xlink:href="#Q" transform="matrix(1,0,0,1,1086.7493740795198,958.5) translate(38.525 17.1)"/><use xlink:href="#S" transform="matrix(1,0,0,1,1167.144170232169,958.5) translate(20.099999999999994 17.1)"/><use xlink:href="#f" transform="matrix(1,0,0,1,1360.234988808294,958.5) translate(19.549999999999997 17.1)"/><path d="M320 788c0-4.42 3.58-8 8-8h344c4.42 0 8 3.58 8 8v108c0 4.42-3.58 8-8 8H328c-4.42 0-8-3.58-8-8z" fill="#fff"/><path d="M320 788c0-4.42 3.58-8 8-8h344c4.42 0 8 3.58 8 8v108c0 4.42-3.58 8-8 8H328c-4.42 0-8-3.58-8-8zM320 820h360M400.4 820v84M576.98 820v84" stroke="#333" fill="none"/><use xlink:href="#n" transform="matrix(1,0,0,1,330,780) translate(102.57499999999999 23.6)"/><use xlink:href="#T" transform="matrix(1,0,0,1,330,780) translate(163.575 23.6)"/><use xlink:href="#G" transform="matrix(1,0,0,1,325,822.5) translate(23.5 17.1)"/><use xlink:href="#H" transform="matrix(1,0,0,1,405.3947961526492,822.5) translate(76.525 17.1)"/><use xlink:href="#U" transform="matrix(1,0,0,1,581.9843628878139,822.5) translate(14.549999999999997 17.1)"/><use xlink:href="#V" transform="matrix(1,0,0,1,325,854.5) translate(24.025 17.1)"/><use xlink:href="#W" transform="matrix(1,0,0,1,405.3947961526492,854.5) translate(42.074999999999996 17.1)"/><use xlink:href="#f" transform="matrix(1,0,0,1,581.9843628878139,854.5) translate(19.549999999999997 17.1)"/><use xlink:href="#X" transform="matrix(1,0,0,1,325,886.5) translate(21.525 14.4)"/><use xlink:href="#Q" transform="matrix(1,0,0,1,325,886.5) translate(26.525 14.4)"/><use xlink:href="#S" transform="matrix(1,0,0,1,405.3947961526492,886.5) translate(11.599999999999994 14.4)"/><use xlink:href="#f" transform="matrix(1,0,0,1,581.9843628878139,886.5) translate(19.549999999999997 14.4)"/><path d="M1660 508c0-4.42 3.58-8 8-8h360.5c4.42 0 8 3.58 8 8v88c0 4.42-3.58 8-8 8H1668c-4.42 0-8-3.58-8-8z" fill="#fff"/><path d="M1660 508c0-4.42 3.58-8 8-8h360.5c4.42 0 8 3.58 8 8v88c0 4.42-3.58 8-8 8H1668c-4.42 0-8-3.58-8-8zM1660 540h376.5M1740.4 540v64M1933.5 540v64" stroke="#333" fill="none"/><use xlink:href="#Y" transform="matrix(1,0,0,1,1670,500) translate(86.57500000000002 23.6)"/><use xlink:href="#P" transform="matrix(1,0,0,1,1665,542.5) translate(9.524999999999999 17.1)"/><use xlink:href="#Q" transform="matrix(1,0,0,1,1665,542.5) translate(38.525 17.1)"/><use xlink:href="#Z" transform="matrix(1,0,0,1,1745.3947961526492,542.5) translate(53.025 17.1)"/><use xlink:href="#f" transform="matrix(1,0,0,1,1938.4856147287742,542.5) translate(19.549999999999997 17.1)"/><use xlink:href="#P" transform="matrix(1,0,0,1,1665,574.5) translate(9.524999999999999 17.1)"/><use xlink:href="#Q" transform="matrix(1,0,0,1,1665,574.5) translate(38.525 17.1)"/><use xlink:href="#S" transform="matrix(1,0,0,1,1745.3947961526492,574.5) translate(20.099999999999994 17.1)"/><use xlink:href="#f" transform="matrix(1,0,0,1,1938.4856147287742,574.5) translate(19.549999999999997 17.1)"/><path d="M640.5 460.2h425.96" stroke="#333" fill="none"/><path d="M630.5 470.2v-20M620.5 460.2h20M640.5 470.2v-20" stroke="#333" fill="#fff"/><path d="M1085.65 470.2l-20-10 20-10" stroke="#333" fill="#fff" fill-opacity="0"/><path d="M1085.65 460.2h-20" stroke="#333" fill="#fff"/><path d="M490 560.67V740" stroke="#333" fill="none"/><path d="M500 540.9l-10 20-10-20" stroke="#333" fill="#fff" fill-opacity="0"/><path d="M490 540.9v20M480 560.9h20" stroke="#333" fill="#fff"/><path d="M480 779.28l10-20 10 20" stroke="#333" fill="#fff" fill-opacity="0"/><path d="M490 779.28v-20M500 749.28c0 5.52-4.48 10-10 10s-10-4.48-10-10c0-5.53 4.48-10 10-10s10 4.47 10 10" stroke="#333" fill="#fff"/><path d="M720 799.88h158c6.63 0 12-5.37 12-12V589.25c0-6.62 5.37-12 12-12h163.87" stroke="#333" fill="none"/><path d="M680.72 789.88l20 10-20 10" stroke="#333" fill="#fff" fill-opacity="0"/><path d="M680.72 799.88h20M720.72 799.88c0 5.53-4.47 10-10 10-5.52 0-10-4.47-10-10 0-5.52 4.48-10 10-10 5.53 0 10 4.48 10 10" stroke="#333" fill="#fff"/><path d="M1085.65 587.25l-20-10 20-10" stroke="#333" fill="#fff" fill-opacity="0"/><path d="M1085.65 577.25h-20M1065.65 567.25v20" stroke="#333" fill="#fff"/><path d="M1440.5 534.63H1620" stroke="#333" fill="none"/><path d="M1420.72 524.63l20 10-20 10" stroke="#333" fill="#fff" fill-opacity="0"/><path d="M1420.72 534.63h20M1440.72 544.63v-20" stroke="#333" fill="#fff"/><path d="M1659.28 544.63l-20-10 20-10" stroke="#333" fill="#fff" fill-opacity="0"/><path d="M1659.28 534.63h-20M1639.28 534.63c0 5.52-4.48 10-10 10-5.53 0-10-4.48-10-10 0-5.53 4.47-10 10-10 5.52 0 10 4.47 10 10" stroke="#333" fill="#fff"/><path d="M1848.25 624.5V688c0 6.63 5.37 12 12 12h454.25c6.63 0 12-5.37 12-12V568.5" stroke="#333" fill="none"/><path d="M1858.25 604.72l-10 20-10-20" stroke="#333" fill="#fff" fill-opacity="0"/><path d="M1848.25 604.72v20M1838.25 624.72h20" stroke="#333" fill="#fff"/><path d="M2336.5 548.72l-10 20-10-20" stroke="#333" fill="#fff" fill-opacity="0"/><path d="M2326.5 548.72v20M2316.5 568.72h20" stroke="#333" fill="#fff"/><path d="M1253.2 665.5v198" stroke="#333" fill="none"/><path d="M1263.2 645.72l-10 20-10-20" stroke="#333" fill="#fff" fill-opacity="0"/><path d="M1253.2 645.72v20M1243.2 665.72h20" stroke="#333" fill="#fff"/><path d="M1243.2 883.28l10-20 10 20" stroke="#333" fill="#fff" fill-opacity="0"/><path d="M1253.2 883.28v-20M1263.2 863.28h-20" stroke="#333" fill="#fff"/><path d="M1498.25 940h341.25" stroke="#333" fill="none"/><path d="M1458.97 930l20 10-20 10" stroke="#333" fill="#fff" fill-opacity="0"/><path d="M1458.97 940h20M1498.97 940c0 5.53-4.47 10-10 10-5.52 0-10-4.47-10-10 0-5.5 4.48-10 10-10 5.53 0 10 4.5 10 10" stroke="#333" fill="#fff"/><path d="M1859.28 950l-20-10 20-10" stroke="#333" fill="#fff" fill-opacity="0"/><path d="M1859.28 940h-20M1839.28 930v20" stroke="#333" fill="#fff"/><defs><path fill="#a9afb8" d="M230 0l2-204L168 0h-37L68-204 70 0H24v-248h70l56 185 57-185h69V0h-46" id="aa"/><path fill="#a9afb8" d="M140-251c80 0 125 45 125 126S219 4 139 4C58 4 15-44 15-125s44-126 125-126zm-1 214c52 0 73-35 73-88 0-50-21-86-72-86-52 0-73 35-73 86s22 88 72 88" id="ab"/><path fill="#a9afb8" d="M24-248c120-7 223 5 221 122C244-46 201 0 124 0H24v-248zM76-40c74 7 117-18 117-86 0-67-45-88-117-82v168" id="ac"/><path fill="#a9afb8" d="M24 0v-248h195v40H76v63h132v40H76v65h150V0H24" id="ad"/><path fill="#a9afb8" d="M24 0v-248h52v208h133V0H24" id="ae"/><g id="a"><use transform="matrix(0.0728395061728395,0,0,0.0728395061728395,0,0)" xlink:href="#aa"/><use transform="matrix(0.0728395061728395,0,0,0.0728395061728395,21.77901234567901,0)" xlink:href="#ab"/><use transform="matrix(0.0728395061728395,0,0,0.0728395061728395,42.17407407407407,0)" xlink:href="#ac"/><use transform="matrix(0.0728395061728395,0,0,0.0728395061728395,61.0395061728395,0)" xlink:href="#ad"/><use transform="matrix(0.0728395061728395,0,0,0.0728395061728395,78.52098765432098,0)" xlink:href="#ae"/><use transform="matrix(0.0728395061728395,0,0,0.0728395061728395,94.47283950617283,0)" xlink:href="#ab"/></g><path fill="#a9afb8" d="M240-174c0 40-23 61-54 70L253 0h-59l-57-94H76V0H24v-248c93 4 217-23 216 74zM76-134c48-2 112 12 112-38 0-48-66-32-112-35v73" id="af"/><g id="b"><use transform="matrix(0.0728395061728395,0,0,0.0728395061728395,0,0)" xlink:href="#ad"/><use transform="matrix(0.0728395061728395,0,0,0.0728395061728395,17.48148148148148,0)" xlink:href="#af"/></g><path fill="#333" d="M232-93c-1 65-40 97-104 97C67 4 28-28 28-90v-158h33c8 89-33 224 67 224 102 0 64-133 71-224h33v155" id="ag"/><path fill="#333" d="M135-143c-3-34-86-38-87 0 15 53 115 12 119 90S17 21 10-45l28-5c4 36 97 45 98 0-10-56-113-15-118-90-4-57 82-63 122-42 12 7 21 19 24 35" id="ah"/><path fill="#333" d="M84 4C-5 8 30-112 23-190h32v120c0 31 7 50 39 49 72-2 45-101 50-169h31l1 190h-30c-1-10 1-25-2-33-11 22-28 36-60 37" id="ai"/><path fill="#333" d="M141-36C126-15 110 5 73 4 37 3 15-17 15-53c-1-64 63-63 125-63 3-35-9-54-41-54-24 1-41 7-42 31l-33-3c5-37 33-52 76-52 45 0 72 20 72 64v82c-1 20 7 32 28 27v20c-31 9-61-2-59-35zM48-53c0 20 12 33 32 33 41-3 63-29 60-74-43 2-92-5-92 41zm25-158c8-23 27-35 38-54h36v5l-58 49H73" id="aj"/><path fill="#333" d="M114-163C36-179 61-72 57 0H25l-1-190h30c1 12-1 29 2 39 6-27 23-49 58-41v29" id="ak"/><path fill="#333" d="M24-231v-30h32v30H24zM24 0v-190h32V0H24" id="al"/><path fill="#333" d="M100-194c62-1 85 37 85 99 1 63-27 99-86 99S16-35 15-95c0-66 28-99 85-99zM99-20c44 1 53-31 53-75 0-43-8-75-51-75s-53 32-53 75 10 74 51 75" id="am"/><g id="c"><use transform="matrix(0.05,0,0,0.05,0,0)" xlink:href="#ag"/><use transform="matrix(0.05,0,0,0.05,12.950000000000001,0)" xlink:href="#ah"/><use transform="matrix(0.05,0,0,0.05,21.950000000000003,0)" xlink:href="#ai"/><use transform="matrix(0.05,0,0,0.05,31.950000000000003,0)" xlink:href="#aj"/><use transform="matrix(0.05,0,0,0.05,41.95,0)" xlink:href="#ak"/><use transform="matrix(0.05,0,0,0.05,47.900000000000006,0)" xlink:href="#al"/><use transform="matrix(0.05,0,0,0.05,51.85,0)" xlink:href="#am"/></g><path fill="#333" d="M30-248c87 1 191-15 191 75 0 78-77 80-158 76V0H30v-248zm33 125c57 0 124 11 124-50 0-59-68-47-124-48v98" id="an"/><path fill="#333" d="M194 0L95-120 63-95V0H30v-248h33v124l119-124h40L117-140 236 0h-42" id="ao"/><g id="d"><use transform="matrix(0.05,0,0,0.05,0,0)" xlink:href="#an"/><use transform="matrix(0.05,0,0,0.05,12,0)" xlink:href="#ao"/></g><path fill="#333" d="M85-194c31 0 48 13 60 33l-1-100h32l1 261h-30c-2-10 0-23-3-31C134-8 116 4 85 4 32 4 16-35 15-94c0-66 23-100 70-100zm9 24c-40 0-46 34-46 75 0 40 6 74 45 74 42 0 51-32 51-76 0-42-9-74-50-73" id="ap"/><g id="e"><use transform="matrix(0.05,0,0,0.05,0,0)" xlink:href="#al"/><use transform="matrix(0.05,0,0,0.05,3.95,0)" xlink:href="#ap"/></g><path fill="#333" d="M117-194c89-4 53 116 60 194h-32v-121c0-31-8-49-39-48C34-167 62-67 57 0H25l-1-190h30c1 10-1 24 2 32 11-22 29-35 61-36" id="aq"/><path fill="#333" d="M59-47c-2 24 18 29 38 22v24C64 9 27 4 27-40v-127H5v-23h24l9-43h21v43h35v23H59v120" id="ar"/><path fill="#333" d="M100-194c63 0 86 42 84 106H49c0 40 14 67 53 68 26 1 43-12 49-29l28 8c-11 28-37 45-77 45C44 4 14-33 15-96c1-61 26-98 85-98zm52 81c6-60-76-77-97-28-3 7-6 17-6 28h103" id="as"/><path fill="#333" d="M177-190C167-65 218 103 67 71c-23-6-38-20-44-43l32-5c15 47 100 32 89-28v-30C133-14 115 1 83 1 29 1 15-40 15-95c0-56 16-97 71-98 29-1 48 16 59 35 1-10 0-23 2-32h30zM94-22c36 0 50-32 50-73 0-42-14-75-50-75-39 0-46 34-46 75s6 73 46 73" id="at"/><g id="f"><use transform="matrix(0.05,0,0,0.05,0,0)" xlink:href="#al"/><use transform="matrix(0.05,0,0,0.05,3.95,0)" xlink:href="#aq"/><use transform="matrix(0.05,0,0,0.05,13.949999999999998,0)" xlink:href="#ar"/><use transform="matrix(0.05,0,0,0.05,18.95,0)" xlink:href="#as"/><use transform="matrix(0.05,0,0,0.05,28.950000000000003,0)" xlink:href="#at"/><use transform="matrix(0.05,0,0,0.05,38.95,0)" xlink:href="#as"/><use transform="matrix(0.05,0,0,0.05,48.95,0)" xlink:href="#ak"/></g><path fill="#333" d="M210-169c-67 3-38 105-44 169h-31v-121c0-29-5-50-35-48C34-165 62-65 56 0H25l-1-190h30c1 10-1 24 2 32 10-44 99-50 107 0 11-21 27-35 58-36 85-2 47 119 55 194h-31v-121c0-29-5-49-35-48" id="au"/><path fill="#333" d="M141-36C126-15 110 5 73 4 37 3 15-17 15-53c-1-64 63-63 125-63 3-35-9-54-41-54-24 1-41 7-42 31l-33-3c5-37 33-52 76-52 45 0 72 20 72 64v82c-1 20 7 32 28 27v20c-31 9-61-2-59-35zM48-53c0 20 12 33 32 33 41-3 63-29 60-74-43 2-92-5-92 41" id="av"/><path fill="#333" d="M24 0v-261h32V0H24" id="aw"/><g id="g"><use transform="matrix(0.05,0,0,0.05,0,0)" xlink:href="#as"/><use transform="matrix(0.05,0,0,0.05,10,0)" xlink:href="#au"/><use transform="matrix(0.05,0,0,0.05,24.950000000000003,0)" xlink:href="#av"/><use transform="matrix(0.05,0,0,0.05,34.95,0)" xlink:href="#al"/><use transform="matrix(0.05,0,0,0.05,38.900000000000006,0)" xlink:href="#aw"/></g><g id="h"><use transform="matrix(0.05,0,0,0.05,0,0)" xlink:href="#ah"/><use transform="matrix(0.05,0,0,0.05,9,0)" xlink:href="#ar"/><use transform="matrix(0.05,0,0,0.05,14,0)" xlink:href="#ak"/><use transform="matrix(0.05,0,0,0.05,19.95,0)" xlink:href="#al"/><use transform="matrix(0.05,0,0,0.05,23.9,0)" xlink:href="#aq"/><use transform="matrix(0.05,0,0,0.05,33.9,0)" xlink:href="#at"/></g><path d="M135-143c-3-34-86-38-87 0 15 53 115 12 119 90S17 21 10-45l28-5c4 36 97 45 98 0-10-56-113-15-118-90-4-57 82-63 122-42 12 7 21 19 24 35" id="ax"/><path d="M100-194c63 0 86 42 84 106H49c0 40 14 67 53 68 26 1 43-12 49-29l28 8c-11 28-37 45-77 45C44 4 14-33 15-96c1-61 26-98 85-98zm52 81c6-60-76-77-97-28-3 7-6 17-6 28h103" id="ay"/><path d="M117-194c89-4 53 116 60 194h-32v-121c0-31-8-49-39-48C34-167 62-67 57 0H25l-1-190h30c1 10-1 24 2 32 11-22 29-35 61-36" id="az"/><path d="M106-169C34-169 62-67 57 0H25v-261h32l-1 103c12-21 28-36 61-36 89 0 53 116 60 194h-32v-121c2-32-8-49-39-48" id="aA"/><path d="M141-36C126-15 110 5 73 4 37 3 15-17 15-53c-1-64 63-63 125-63 3-35-9-54-41-54-24 1-41 7-42 31l-33-3c5-37 33-52 76-52 45 0 72 20 72 64v82c-1 20 7 32 28 27v20c-31 9-61-2-59-35zM48-53c0 20 12 33 32 33 41-3 63-29 60-74-43 2-92-5-92 41" id="aB"/><g id="j"><use transform="matrix(0.05,0,0,0.05,0,0)" xlink:href="#ax"/><use transform="matrix(0.05,0,0,0.05,9,0)" xlink:href="#ay"/><use transform="matrix(0.05,0,0,0.05,19,0)" xlink:href="#az"/><use transform="matrix(0.05,0,0,0.05,29,0)" xlink:href="#aA"/><use transform="matrix(0.05,0,0,0.05,39,0)" xlink:href="#aB"/></g><path d="M59-47c-2 24 18 29 38 22v24C64 9 27 4 27-40v-127H5v-23h24l9-43h21v43h35v23H59v120" id="aC"/><path d="M114-163C36-179 61-72 57 0H25l-1-190h30c1 12-1 29 2 39 6-27 23-49 58-41v29" id="aD"/><path d="M24-231v-30h32v30H24zM24 0v-190h32V0H24" id="aE"/><path d="M177-190C167-65 218 103 67 71c-23-6-38-20-44-43l32-5c15 47 100 32 89-28v-30C133-14 115 1 83 1 29 1 15-40 15-95c0-56 16-97 71-98 29-1 48 16 59 35 1-10 0-23 2-32h30zM94-22c36 0 50-32 50-73 0-42-14-75-50-75-39 0-46 34-46 75s6 73 46 73" id="aF"/><g id="k"><use transform="matrix(0.05,0,0,0.05,0,0)" xlink:href="#ax"/><use transform="matrix(0.05,0,0,0.05,9,0)" xlink:href="#aC"/><use transform="matrix(0.05,0,0,0.05,14,0)" xlink:href="#aD"/><use transform="matrix(0.05,0,0,0.05,19.95,0)" xlink:href="#aE"/><use transform="matrix(0.05,0,0,0.05,23.9,0)" xlink:href="#az"/><use transform="matrix(0.05,0,0,0.05,33.9,0)" xlink:href="#aF"/></g><path fill="#333" d="M115-194c55 1 70 41 70 98S169 2 115 4C84 4 66-9 55-30l1 105H24l-1-265h31l2 30c10-21 28-34 59-34zm-8 174c40 0 45-34 45-75s-6-73-45-74c-42 0-51 32-51 76 0 43 10 73 51 73" id="aG"/><path fill="#333" d="M101-234c-31-9-42 10-38 44h38v23H63V0H32v-167H5v-23h27c-7-52 17-82 69-68v24" id="aH"/><g id="l"><use transform="matrix(0.05,0,0,0.05,0,0)" xlink:href="#aG"/><use transform="matrix(0.05,0,0,0.05,10,0)" xlink:href="#as"/><use transform="matrix(0.05,0,0,0.05,20,0)" xlink:href="#ak"/><use transform="matrix(0.05,0,0,0.05,25.950000000000003,0)" xlink:href="#aH"/><use transform="matrix(0.05,0,0,0.05,30.950000000000003,0)" xlink:href="#al"/><use transform="matrix(0.05,0,0,0.05,34.9,0)" xlink:href="#aw"/></g><g id="m"><use transform="matrix(0.05,0,0,0.05,0,0)" xlink:href="#as"/><use transform="matrix(0.05,0,0,0.05,10,0)" xlink:href="#aq"/><use transform="matrix(0.05,0,0,0.05,20,0)" xlink:href="#ai"/><use transform="matrix(0.05,0,0,0.05,30,0)" xlink:href="#au"/></g><g id="n"><use transform="matrix(0.05,0,0,0.05,0,0)" xlink:href="#an"/><use transform="matrix(0.05,0,0,0.05,12,0)" xlink:href="#am"/><use transform="matrix(0.05,0,0,0.05,22,0)" xlink:href="#aq"/><use transform="matrix(0.05,0,0,0.05,32,0)" xlink:href="#ar"/><use transform="matrix(0.05,0,0,0.05,37,0)" xlink:href="#am"/><use transform="matrix(0.05,0,0,0.05,47,0)" xlink:href="#ah"/></g><g id="o"><use transform="matrix(0.05,0,0,0.05,0,0)" xlink:href="#ap"/><use transform="matrix(0.05,0,0,0.05,10,0)" xlink:href="#as"/></g><path fill="#333" d="M212-179c-10-28-35-45-73-45-59 0-87 40-87 99 0 60 29 101 89 101 43 0 62-24 78-52l27 14C228-24 195 4 139 4 59 4 22-46 18-125c-6-104 99-153 187-111 19 9 31 26 39 46" id="aI"/><g id="p"><use transform="matrix(0.05,0,0,0.05,0,0)" xlink:href="#aI"/><use transform="matrix(0.05,0,0,0.05,12.950000000000001,0)" xlink:href="#am"/><use transform="matrix(0.05,0,0,0.05,22.950000000000003,0)" xlink:href="#aw"/><use transform="matrix(0.05,0,0,0.05,26.900000000000002,0)" xlink:href="#as"/><use transform="matrix(0.05,0,0,0.05,36.900000000000006,0)" xlink:href="#ar"/><use transform="matrix(0.05,0,0,0.05,41.900000000000006,0)" xlink:href="#av"/></g><path d="M63-220v92h138v28H63V0H30v-248h175v28H63" id="aJ"/><path d="M194 0L95-120 63-95V0H30v-248h33v124l119-124h40L117-140 236 0h-42" id="aK"/><g id="q"><use transform="matrix(0.05,0,0,0.05,0,0)" xlink:href="#aJ"/><use transform="matrix(0.05,0,0,0.05,10.950000000000001,0)" xlink:href="#aK"/></g><path d="M85-194c31 0 48 13 60 33l-1-100h32l1 261h-30c-2-10 0-23-3-31C134-8 116 4 85 4 32 4 16-35 15-94c0-66 23-100 70-100zm9 24c-40 0-46 34-46 75 0 40 6 74 45 74 42 0 51-32 51-76 0-42-9-74-50-73" id="aL"/><path d="M-5 72V49h209v23H-5" id="aM"/><path d="M84 4C-5 8 30-112 23-190h32v120c0 31 7 50 39 49 72-2 45-101 50-169h31l1 190h-30c-1-10 1-25-2-33-11 22-28 36-60 37" id="aN"/><path d="M100-194c62-1 85 37 85 99 1 63-27 99-86 99S16-35 15-95c0-66 28-99 85-99zM99-20c44 1 53-31 53-75 0-43-8-75-51-75s-53 32-53 75 10 74 51 75" id="aO"/><g id="r"><use transform="matrix(0.05,0,0,0.05,0,0)" xlink:href="#aE"/><use transform="matrix(0.05,0,0,0.05,3.95,0)" xlink:href="#aL"/><use transform="matrix(0.05,0,0,0.05,13.949999999999998,0)" xlink:href="#aM"/><use transform="matrix(0.05,0,0,0.05,23.95,0)" xlink:href="#aN"/><use transform="matrix(0.05,0,0,0.05,33.95,0)" xlink:href="#ax"/><use transform="matrix(0.05,0,0,0.05,42.95,0)" xlink:href="#aN"/><use transform="matrix(0.05,0,0,0.05,52.95,0)" xlink:href="#aB"/><use transform="matrix(0.05,0,0,0.05,62.95,0)" xlink:href="#aD"/><use transform="matrix(0.05,0,0,0.05,68.9,0)" xlink:href="#aE"/><use transform="matrix(0.05,0,0,0.05,72.85000000000001,0)" xlink:href="#aO"/></g><g id="s"><use transform="matrix(0.05,0,0,0.05,0,0)" xlink:href="#aE"/><use transform="matrix(0.05,0,0,0.05,3.95,0)" xlink:href="#az"/><use transform="matrix(0.05,0,0,0.05,13.949999999999998,0)" xlink:href="#aC"/><use transform="matrix(0.05,0,0,0.05,18.95,0)" xlink:href="#ay"/><use transform="matrix(0.05,0,0,0.05,28.950000000000003,0)" xlink:href="#aF"/><use transform="matrix(0.05,0,0,0.05,38.95,0)" xlink:href="#ay"/><use transform="matrix(0.05,0,0,0.05,48.95,0)" xlink:href="#aD"/></g><g id="t"><use transform="matrix(0.05,0,0,0.05,0,0)" xlink:href="#ar"/><use transform="matrix(0.05,0,0,0.05,5,0)" xlink:href="#as"/><use transform="matrix(0.05,0,0,0.05,15,0)" xlink:href="#aw"/><use transform="matrix(0.05,0,0,0.05,18.95,0)" xlink:href="#as"/><use transform="matrix(0.05,0,0,0.05,28.950000000000003,0)" xlink:href="#aH"/><use transform="matrix(0.05,0,0,0.05,33.95,0)" xlink:href="#am"/><use transform="matrix(0.05,0,0,0.05,43.95,0)" xlink:href="#aq"/><use transform="matrix(0.05,0,0,0.05,53.95,0)" xlink:href="#as"/></g><path fill="#333" d="M96-169c-40 0-48 33-48 73s9 75 48 75c24 0 41-14 43-38l32 2c-6 37-31 61-74 61-59 0-76-41-82-99-10-93 101-131 147-64 4 7 5 14 7 22l-32 3c-4-21-16-35-41-35" id="aP"/><g id="u"><use transform="matrix(0.05,0,0,0.05,0,0)" xlink:href="#aP"/><use transform="matrix(0.05,0,0,0.05,9,0)" xlink:href="#as"/><use transform="matrix(0.05,0,0,0.05,19,0)" xlink:href="#aG"/></g><path fill="#333" d="M115-194c53 0 69 39 70 98 0 66-23 100-70 100C84 3 66-7 56-30L54 0H23l1-261h32v101c10-23 28-34 59-34zm-8 174c40 0 45-34 45-75 0-40-5-75-45-74-42 0-51 32-51 76 0 43 10 73 51 73" id="aQ"/><g id="v"><use transform="matrix(0.05,0,0,0.05,0,0)" xlink:href="#aq"/><use transform="matrix(0.05,0,0,0.05,10,0)" xlink:href="#ai"/><use transform="matrix(0.05,0,0,0.05,20,0)" xlink:href="#au"/><use transform="matrix(0.05,0,0,0.05,34.95,0)" xlink:href="#aQ"/><use transform="matrix(0.05,0,0,0.05,44.95,0)" xlink:href="#as"/><use transform="matrix(0.05,0,0,0.05,54.95,0)" xlink:href="#ak"/></g><path d="M85 4C-4 8 31-112 24-190h32v120c0 31 7 50 39 49 72-2 45-101 50-169h31l1 190h-30c-1-10 1-25-2-33-11 22-28 36-60 37zM73-211c8-23 27-35 38-54h36v5l-58 49H73" id="aR"/><path d="M210-169c-67 3-38 105-44 169h-31v-121c0-29-5-50-35-48C34-165 62-65 56 0H25l-1-190h30c1 10-1 24 2 32 10-44 99-50 107 0 11-21 27-35 58-36 85-2 47 119 55 194h-31v-121c0-29-5-49-35-48" id="aS"/><g id="w"><use transform="matrix(0.05,0,0,0.05,0,0)" xlink:href="#az"/><use transform="matrix(0.05,0,0,0.05,10,0)" xlink:href="#aR"/><use transform="matrix(0.05,0,0,0.05,20,0)" xlink:href="#aS"/><use transform="matrix(0.05,0,0,0.05,34.95,0)" xlink:href="#ay"/><use transform="matrix(0.05,0,0,0.05,44.95,0)" xlink:href="#aD"/><use transform="matrix(0.05,0,0,0.05,50.900000000000006,0)" xlink:href="#aO"/></g><g id="x"><use transform="matrix(0.05,0,0,0.05,0,0)" xlink:href="#aL"/><use transform="matrix(0.05,0,0,0.05,10,0)" xlink:href="#aO"/></g><path d="M96-169c-40 0-48 33-48 73s9 75 48 75c24 0 41-14 43-38l32 2c-6 37-31 61-74 61-59 0-76-41-82-99-10-93 101-131 147-64 4 7 5 14 7 22l-32 3c-4-21-16-35-41-35zm3 187c19-1 33 8 33 26 0 31-30 33-64 32V58c18 2 39 4 41-13 1-15-18-13-34-13L87 0h19" id="aT"/><g id="y"><use transform="matrix(0.05,0,0,0.05,0,0)" xlink:href="#ay"/><use transform="matrix(0.05,0,0,0.05,10,0)" xlink:href="#az"/><use transform="matrix(0.05,0,0,0.05,20,0)" xlink:href="#aL"/><use transform="matrix(0.05,0,0,0.05,30,0)" xlink:href="#ay"/><use transform="matrix(0.05,0,0,0.05,40,0)" xlink:href="#aD"/><use transform="matrix(0.05,0,0,0.05,45.95,0)" xlink:href="#ay"/><use transform="matrix(0.05,0,0,0.05,55.95,0)" xlink:href="#aT"/><use transform="matrix(0.05,0,0,0.05,64.95,0)" xlink:href="#aO"/></g><path d="M115-194c53 0 69 39 70 98 0 66-23 100-70 100C84 3 66-7 56-30L54 0H23l1-261h32v101c10-23 28-34 59-34zm-8 174c40 0 45-34 45-75 0-40-5-75-45-74-42 0-51 32-51 76 0 43 10 73 51 73" id="aU"/><g id="z"><use transform="matrix(0.05,0,0,0.05,0,0)" xlink:href="#az"/><use transform="matrix(0.05,0,0,0.05,10,0)" xlink:href="#aN"/><use transform="matrix(0.05,0,0,0.05,20,0)" xlink:href="#aS"/><use transform="matrix(0.05,0,0,0.05,34.95,0)" xlink:href="#aU"/><use transform="matrix(0.05,0,0,0.05,44.95,0)" xlink:href="#ay"/><use transform="matrix(0.05,0,0,0.05,54.95,0)" xlink:href="#aD"/></g><path d="M96-169c-40 0-48 33-48 73s9 75 48 75c24 0 41-14 43-38l32 2c-6 37-31 61-74 61-59 0-76-41-82-99-10-93 101-131 147-64 4 7 5 14 7 22l-32 3c-4-21-16-35-41-35" id="aV"/><path d="M141-36C126-15 110 5 73 4 37 3 15-17 15-53c-1-64 63-63 125-63 3-35-9-54-41-54-24 1-41 7-42 31l-33-3c5-37 33-52 76-52 45 0 72 20 72 64v82c-1 20 7 32 28 27v20c-31 9-61-2-59-35zM48-53c0 20 12 33 32 33 41-3 63-29 60-74-43 2-92-5-92 41zm117-205c-3 23-9 48-36 47-26-1-65-44-74 0H39c4-23 8-48 36-47s64 44 74 0h16" id="aW"/><g id="A"><use transform="matrix(0.05,0,0,0.05,0,0)" xlink:href="#aL"/><use transform="matrix(0.05,0,0,0.05,10,0)" xlink:href="#ay"/><use transform="matrix(0.05,0,0,0.05,20,0)" xlink:href="#ax"/><use transform="matrix(0.05,0,0,0.05,29,0)" xlink:href="#aV"/><use transform="matrix(0.05,0,0,0.05,38,0)" xlink:href="#aD"/><use transform="matrix(0.05,0,0,0.05,43.95,0)" xlink:href="#aE"/><use transform="matrix(0.05,0,0,0.05,47.900000000000006,0)" xlink:href="#aT"/><use transform="matrix(0.05,0,0,0.05,56.900000000000006,0)" xlink:href="#aW"/><use transform="matrix(0.05,0,0,0.05,66.9,0)" xlink:href="#aO"/></g><path d="M141-36C126-15 110 5 73 4 37 3 15-17 15-53c-1-64 63-63 125-63 3-35-9-54-41-54-24 1-41 7-42 31l-33-3c5-37 33-52 76-52 45 0 72 20 72 64v82c-1 20 7 32 28 27v20c-31 9-61-2-59-35zM48-53c0 20 12 33 32 33 41-3 63-29 60-74-43 2-92-5-92 41zm25-158c8-23 27-35 38-54h36v5l-58 49H73" id="aX"/><g id="B"><use transform="matrix(0.05,0,0,0.05,0,0)" xlink:href="#aA"/><use transform="matrix(0.05,0,0,0.05,10,0)" xlink:href="#aO"/><use transform="matrix(0.05,0,0,0.05,20,0)" xlink:href="#aD"/><use transform="matrix(0.05,0,0,0.05,25.950000000000003,0)" xlink:href="#aX"/><use transform="matrix(0.05,0,0,0.05,35.95,0)" xlink:href="#aD"/><use transform="matrix(0.05,0,0,0.05,41.900000000000006,0)" xlink:href="#aE"/><use transform="matrix(0.05,0,0,0.05,45.85000000000001,0)" xlink:href="#aO"/><use transform="matrix(0.05,0,0,0.05,55.85,0)" xlink:href="#ax"/></g><g id="C"><use transform="matrix(0.05,0,0,0.05,0,0)" xlink:href="#aL"/><use transform="matrix(0.05,0,0,0.05,10,0)" xlink:href="#aB"/><use transform="matrix(0.05,0,0,0.05,20,0)" xlink:href="#aC"/><use transform="matrix(0.05,0,0,0.05,25,0)" xlink:href="#ay"/><use transform="matrix(0.05,0,0,0.05,35,0)" xlink:href="#aC"/><use transform="matrix(0.05,0,0,0.05,40,0)" xlink:href="#aE"/><use transform="matrix(0.05,0,0,0.05,43.95,0)" xlink:href="#aS"/><use transform="matrix(0.05,0,0,0.05,58.900000000000006,0)" xlink:href="#ay"/></g><g id="D"><use transform="matrix(0.05,0,0,0.05,0,0)" xlink:href="#aL"/><use transform="matrix(0.05,0,0,0.05,10,0)" xlink:href="#aE"/><use transform="matrix(0.05,0,0,0.05,13.949999999999998,0)" xlink:href="#aB"/><use transform="matrix(0.05,0,0,0.05,23.95,0)" xlink:href="#ax"/></g><path fill="#333" d="M30 0v-248h187v28H63v79h144v27H63v87h162V0H30" id="aY"/><path fill="#333" d="M108 0H70L1-190h34L89-25l56-165h34" id="aZ"/><g id="E"><use transform="matrix(0.05,0,0,0.05,0,0)" xlink:href="#aY"/><use transform="matrix(0.05,0,0,0.05,12,0)" xlink:href="#aZ"/><use transform="matrix(0.05,0,0,0.05,21,0)" xlink:href="#as"/><use transform="matrix(0.05,0,0,0.05,31,0)" xlink:href="#aq"/><use transform="matrix(0.05,0,0,0.05,41,0)" xlink:href="#ar"/><use transform="matrix(0.05,0,0,0.05,46,0)" xlink:href="#am"/></g><path fill="#333" d="M96-169c-40 0-48 33-48 73s9 75 48 75c24 0 41-14 43-38l32 2c-6 37-31 61-74 61-59 0-76-41-82-99-10-93 101-131 147-64 4 7 5 14 7 22l-32 3c-4-21-16-35-41-35zm3 187c19-1 33 8 33 26 0 31-30 33-64 32V58c18 2 39 4 41-13 1-15-18-13-34-13L87 0h19" id="ba"/><path fill="#333" d="M141-36C126-15 110 5 73 4 37 3 15-17 15-53c-1-64 63-63 125-63 3-35-9-54-41-54-24 1-41 7-42 31l-33-3c5-37 33-52 76-52 45 0 72 20 72 64v82c-1 20 7 32 28 27v20c-31 9-61-2-59-35zM48-53c0 20 12 33 32 33 41-3 63-29 60-74-43 2-92-5-92 41zm117-205c-3 23-9 48-36 47-26-1-65-44-74 0H39c4-23 8-48 36-47s64 44 74 0h16" id="bb"/><g id="F"><use transform="matrix(0.05,0,0,0.05,0,0)" xlink:href="#ap"/><use transform="matrix(0.05,0,0,0.05,10,0)" xlink:href="#am"/><use transform="matrix(0.05,0,0,0.05,20,0)" xlink:href="#av"/><use transform="matrix(0.05,0,0,0.05,30,0)" xlink:href="#ba"/><use transform="matrix(0.05,0,0,0.05,39,0)" xlink:href="#bb"/><use transform="matrix(0.05,0,0,0.05,49,0)" xlink:href="#am"/></g><path d="M30-248c87 1 191-15 191 75 0 78-77 80-158 76V0H30v-248zm33 125c57 0 124 11 124-50 0-59-68-47-124-48v98" id="bc"/><g id="G"><use transform="matrix(0.05,0,0,0.05,0,0)" xlink:href="#bc"/><use transform="matrix(0.05,0,0,0.05,12,0)" xlink:href="#aK"/></g><g id="H"><use transform="matrix(0.05,0,0,0.05,0,0)" xlink:href="#aE"/><use transform="matrix(0.05,0,0,0.05,3.95,0)" xlink:href="#aL"/></g><path fill="#333" d="M-5 72V49h209v23H-5" id="bd"/><g id="I"><use transform="matrix(0.05,0,0,0.05,0,0)" xlink:href="#ap"/><use transform="matrix(0.05,0,0,0.05,10,0)" xlink:href="#av"/><use transform="matrix(0.05,0,0,0.05,20,0)" xlink:href="#ar"/><use transform="matrix(0.05,0,0,0.05,25,0)" xlink:href="#av"/><use transform="matrix(0.05,0,0,0.05,35,0)" xlink:href="#bd"/><use transform="matrix(0.05,0,0,0.05,45,0)" xlink:href="#al"/><use transform="matrix(0.05,0,0,0.05,48.95,0)" xlink:href="#aq"/><use transform="matrix(0.05,0,0,0.05,58.95,0)" xlink:href="#aP"/><use transform="matrix(0.05,0,0,0.05,67.95,0)" xlink:href="#al"/><use transform="matrix(0.05,0,0,0.05,71.9,0)" xlink:href="#am"/></g><g id="J"><use transform="matrix(0.05,0,0,0.05,0,0)" xlink:href="#ap"/><use transform="matrix(0.05,0,0,0.05,10,0)" xlink:href="#av"/><use transform="matrix(0.05,0,0,0.05,20,0)" xlink:href="#ar"/><use transform="matrix(0.05,0,0,0.05,25,0)" xlink:href="#as"/><use transform="matrix(0.05,0,0,0.05,35,0)" xlink:href="#ar"/><use transform="matrix(0.05,0,0,0.05,40,0)" xlink:href="#al"/><use transform="matrix(0.05,0,0,0.05,43.95,0)" xlink:href="#au"/><use transform="matrix(0.05,0,0,0.05,58.900000000000006,0)" xlink:href="#as"/></g><g id="K"><use transform="matrix(0.05,0,0,0.05,0,0)" xlink:href="#aL"/><use transform="matrix(0.05,0,0,0.05,10,0)" xlink:href="#aB"/><use transform="matrix(0.05,0,0,0.05,20,0)" xlink:href="#aC"/><use transform="matrix(0.05,0,0,0.05,25,0)" xlink:href="#aB"/><use transform="matrix(0.05,0,0,0.05,35,0)" xlink:href="#aM"/><use transform="matrix(0.05,0,0,0.05,45,0)" xlink:href="#aC"/><use transform="matrix(0.05,0,0,0.05,50,0)" xlink:href="#ay"/><use transform="matrix(0.05,0,0,0.05,60,0)" xlink:href="#aD"/><use transform="matrix(0.05,0,0,0.05,65.95,0)" xlink:href="#aS"/><use transform="matrix(0.05,0,0,0.05,80.9,0)" xlink:href="#aE"/><use transform="matrix(0.05,0,0,0.05,84.85000000000001,0)" xlink:href="#az"/><use transform="matrix(0.05,0,0,0.05,94.85000000000001,0)" xlink:href="#aO"/></g><g id="L"><use transform="matrix(0.05,0,0,0.05,0,0)" xlink:href="#aL"/><use transform="matrix(0.05,0,0,0.05,10,0)" xlink:href="#ay"/><use transform="matrix(0.05,0,0,0.05,20,0)" xlink:href="#ax"/><use transform="matrix(0.05,0,0,0.05,29,0)" xlink:href="#aV"/><use transform="matrix(0.05,0,0,0.05,38,0)" xlink:href="#aD"/><use transform="matrix(0.05,0,0,0.05,43.95,0)" xlink:href="#aE"/><use transform="matrix(0.05,0,0,0.05,47.900000000000006,0)" xlink:href="#aV"/><use transform="matrix(0.05,0,0,0.05,56.900000000000006,0)" xlink:href="#aB"/><use transform="matrix(0.05,0,0,0.05,66.9,0)" xlink:href="#aO"/></g><path fill="#333" d="M33 0v-248h34V0H33" id="be"/><g id="M"><use transform="matrix(0.05,0,0,0.05,0,0)" xlink:href="#be"/><use transform="matrix(0.05,0,0,0.05,5,0)" xlink:href="#ar"/><use transform="matrix(0.05,0,0,0.05,10,0)" xlink:href="#as"/><use transform="matrix(0.05,0,0,0.05,20,0)" xlink:href="#aq"/><use transform="matrix(0.05,0,0,0.05,30,0)" xlink:href="#ah"/></g><g id="N"><use transform="matrix(0.05,0,0,0.05,0,0)" xlink:href="#ap"/><use transform="matrix(0.05,0,0,0.05,10,0)" xlink:href="#as"/><use transform="matrix(0.05,0,0,0.05,20,0)" xlink:href="#ah"/><use transform="matrix(0.05,0,0,0.05,29,0)" xlink:href="#aP"/><use transform="matrix(0.05,0,0,0.05,38,0)" xlink:href="#ak"/><use transform="matrix(0.05,0,0,0.05,43.95,0)" xlink:href="#al"/><use transform="matrix(0.05,0,0,0.05,47.900000000000006,0)" xlink:href="#aP"/><use transform="matrix(0.05,0,0,0.05,56.900000000000006,0)" xlink:href="#av"/><use transform="matrix(0.05,0,0,0.05,66.9,0)" xlink:href="#am"/></g><path fill="#333" d="M30-248c118-7 216 8 213 122C240-48 200 0 122 0H30v-248zM63-27c89 8 146-16 146-99s-60-101-146-95v194" id="bf"/><g id="O"><use transform="matrix(0.05,0,0,0.05,0,0)" xlink:href="#be"/><use transform="matrix(0.05,0,0,0.05,5,0)" xlink:href="#ar"/><use transform="matrix(0.05,0,0,0.05,10,0)" xlink:href="#as"/><use transform="matrix(0.05,0,0,0.05,20,0)" xlink:href="#au"/><use transform="matrix(0.05,0,0,0.05,34.95,0)" xlink:href="#bd"/><use transform="matrix(0.05,0,0,0.05,44.95,0)" xlink:href="#aG"/><use transform="matrix(0.05,0,0,0.05,54.95,0)" xlink:href="#am"/><use transform="matrix(0.05,0,0,0.05,64.95,0)" xlink:href="#aq"/><use transform="matrix(0.05,0,0,0.05,74.95,0)" xlink:href="#ar"/><use transform="matrix(0.05,0,0,0.05,79.95,0)" xlink:href="#am"/><use transform="matrix(0.05,0,0,0.05,89.95,0)" xlink:href="#ah"/><use transform="matrix(0.05,0,0,0.05,98.95,0)" xlink:href="#bf"/><use transform="matrix(0.05,0,0,0.05,111.9,0)" xlink:href="#as"/><use transform="matrix(0.05,0,0,0.05,121.9,0)" xlink:href="#aI"/><use transform="matrix(0.05,0,0,0.05,134.85,0)" xlink:href="#am"/><use transform="matrix(0.05,0,0,0.05,144.85,0)" xlink:href="#aw"/><use transform="matrix(0.05,0,0,0.05,148.79999999999998,0)" xlink:href="#as"/><use transform="matrix(0.05,0,0,0.05,158.79999999999998,0)" xlink:href="#ar"/><use transform="matrix(0.05,0,0,0.05,163.79999999999998,0)" xlink:href="#av"/></g><g id="P"><use transform="matrix(0.05,0,0,0.05,0,0)" xlink:href="#an"/><use transform="matrix(0.05,0,0,0.05,12,0)" xlink:href="#ao"/></g><path fill="#333" d="M63-220v92h138v28H63V0H30v-248h175v28H63" id="bg"/><g id="Q"><use transform="matrix(0.05,0,0,0.05,0,0)" xlink:href="#bg"/><use transform="matrix(0.05,0,0,0.05,10.950000000000001,0)" xlink:href="#ao"/></g><g id="R"><use transform="matrix(0.05,0,0,0.05,0,0)" xlink:href="#al"/><use transform="matrix(0.05,0,0,0.05,3.95,0)" xlink:href="#ap"/><use transform="matrix(0.05,0,0,0.05,13.949999999999998,0)" xlink:href="#bd"/><use transform="matrix(0.05,0,0,0.05,23.95,0)" xlink:href="#al"/><use transform="matrix(0.05,0,0,0.05,27.899999999999995,0)" xlink:href="#ar"/><use transform="matrix(0.05,0,0,0.05,32.9,0)" xlink:href="#as"/><use transform="matrix(0.05,0,0,0.05,42.9,0)" xlink:href="#au"/></g><g id="S"><use transform="matrix(0.05,0,0,0.05,0,0)" xlink:href="#al"/><use transform="matrix(0.05,0,0,0.05,3.95,0)" xlink:href="#ap"/><use transform="matrix(0.05,0,0,0.05,13.949999999999998,0)" xlink:href="#bd"/><use transform="matrix(0.05,0,0,0.05,23.95,0)" xlink:href="#aG"/><use transform="matrix(0.05,0,0,0.05,33.95,0)" xlink:href="#am"/><use transform="matrix(0.05,0,0,0.05,43.95,0)" xlink:href="#aq"/><use transform="matrix(0.05,0,0,0.05,53.95,0)" xlink:href="#ar"/><use transform="matrix(0.05,0,0,0.05,58.95,0)" xlink:href="#am"/><use transform="matrix(0.05,0,0,0.05,68.95,0)" xlink:href="#bf"/><use transform="matrix(0.05,0,0,0.05,81.9,0)" xlink:href="#as"/><use transform="matrix(0.05,0,0,0.05,91.9,0)" xlink:href="#aI"/><use transform="matrix(0.05,0,0,0.05,104.85000000000001,0)" xlink:href="#am"/><use transform="matrix(0.05,0,0,0.05,114.85000000000001,0)" xlink:href="#aw"/><use transform="matrix(0.05,0,0,0.05,118.80000000000001,0)" xlink:href="#as"/><use transform="matrix(0.05,0,0,0.05,128.8,0)" xlink:href="#ar"/><use transform="matrix(0.05,0,0,0.05,133.8,0)" xlink:href="#av"/></g><g id="T"><use transform="matrix(0.05,0,0,0.05,0,0)" xlink:href="#bg"/><use transform="matrix(0.05,0,0,0.05,10.950000000000001,0)" xlink:href="#av"/><use transform="matrix(0.05,0,0,0.05,20.950000000000003,0)" xlink:href="#aZ"/><use transform="matrix(0.05,0,0,0.05,29.950000000000003,0)" xlink:href="#am"/><use transform="matrix(0.05,0,0,0.05,39.95,0)" xlink:href="#ak"/><use transform="matrix(0.05,0,0,0.05,45.900000000000006,0)" xlink:href="#al"/><use transform="matrix(0.05,0,0,0.05,49.85000000000001,0)" xlink:href="#ar"/><use transform="matrix(0.05,0,0,0.05,54.85,0)" xlink:href="#am"/><use transform="matrix(0.05,0,0,0.05,64.85000000000001,0)" xlink:href="#ah"/></g><g id="U"><use transform="matrix(0.05,0,0,0.05,0,0)" xlink:href="#aE"/><use transform="matrix(0.05,0,0,0.05,3.95,0)" xlink:href="#az"/><use transform="matrix(0.05,0,0,0.05,13.949999999999998,0)" xlink:href="#ay"/><use transform="matrix(0.05,0,0,0.05,23.95,0)" xlink:href="#aC"/><use transform="matrix(0.05,0,0,0.05,28.950000000000003,0)" xlink:href="#ay"/><use transform="matrix(0.05,0,0,0.05,38.95,0)" xlink:href="#aF"/><use transform="matrix(0.05,0,0,0.05,48.95,0)" xlink:href="#ay"/><use transform="matrix(0.05,0,0,0.05,58.95,0)" xlink:href="#aD"/></g><g id="V"><use transform="matrix(0.05,0,0,0.05,0,0)" xlink:href="#bg"/><use transform="matrix(0.05,0,0,0.05,10.950000000000001,0)" xlink:href="#ao"/></g><g id="W"><use transform="matrix(0.05,0,0,0.05,0,0)" xlink:href="#al"/><use transform="matrix(0.05,0,0,0.05,3.95,0)" xlink:href="#ap"/><use transform="matrix(0.05,0,0,0.05,13.949999999999998,0)" xlink:href="#bd"/><use transform="matrix(0.05,0,0,0.05,23.95,0)" xlink:href="#ai"/><use transform="matrix(0.05,0,0,0.05,33.95,0)" xlink:href="#ah"/><use transform="matrix(0.05,0,0,0.05,42.95,0)" xlink:href="#ai"/><use transform="matrix(0.05,0,0,0.05,52.95,0)" xlink:href="#av"/><use transform="matrix(0.05,0,0,0.05,62.95,0)" xlink:href="#ak"/><use transform="matrix(0.05,0,0,0.05,68.9,0)" xlink:href="#al"/><use transform="matrix(0.05,0,0,0.05,72.85000000000001,0)" xlink:href="#am"/></g><g id="Y"><use transform="matrix(0.05,0,0,0.05,0,0)" xlink:href="#as"/><use transform="matrix(0.05,0,0,0.05,10,0)" xlink:href="#aZ"/><use transform="matrix(0.05,0,0,0.05,19,0)" xlink:href="#as"/><use transform="matrix(0.05,0,0,0.05,29,0)" xlink:href="#aq"/><use transform="matrix(0.05,0,0,0.05,39,0)" xlink:href="#ar"/><use transform="matrix(0.05,0,0,0.05,44,0)" xlink:href="#am"/><use transform="matrix(0.05,0,0,0.05,54,0)" xlink:href="#bd"/><use transform="matrix(0.05,0,0,0.05,64,0)" xlink:href="#aG"/><use transform="matrix(0.05,0,0,0.05,74,0)" xlink:href="#am"/><use transform="matrix(0.05,0,0,0.05,84,0)" xlink:href="#aq"/><use transform="matrix(0.05,0,0,0.05,94,0)" xlink:href="#ar"/><use transform="matrix(0.05,0,0,0.05,99,0)" xlink:href="#am"/><use transform="matrix(0.05,0,0,0.05,109,0)" xlink:href="#bf"/><use transform="matrix(0.05,0,0,0.05,121.95,0)" xlink:href="#as"/><use transform="matrix(0.05,0,0,0.05,131.95,0)" xlink:href="#aI"/><use transform="matrix(0.05,0,0,0.05,144.89999999999998,0)" xlink:href="#am"/><use transform="matrix(0.05,0,0,0.05,154.89999999999998,0)" xlink:href="#aw"/><use transform="matrix(0.05,0,0,0.05,158.84999999999997,0)" xlink:href="#as"/><use transform="matrix(0.05,0,0,0.05,168.84999999999997,0)" xlink:href="#ar"/><use transform="matrix(0.05,0,0,0.05,173.84999999999997,0)" xlink:href="#av"/></g><g id="Z"><use transform="matrix(0.05,0,0,0.05,0,0)" xlink:href="#al"/><use transform="matrix(0.05,0,0,0.05,3.95,0)" xlink:href="#ap"/><use transform="matrix(0.05,0,0,0.05,13.949999999999998,0)" xlink:href="#bd"/><use transform="matrix(0.05,0,0,0.05,23.95,0)" xlink:href="#as"/><use transform="matrix(0.05,0,0,0.05,33.95,0)" xlink:href="#aZ"/><use transform="matrix(0.05,0,0,0.05,42.95,0)" xlink:href="#as"/><use transform="matrix(0.05,0,0,0.05,52.95,0)" xlink:href="#aq"/><use transform="matrix(0.05,0,0,0.05,62.95,0)" xlink:href="#ar"/><use transform="matrix(0.05,0,0,0.05,67.95,0)" xlink:href="#am"/></g></defs></g></svg>